<svg width="120" height="40" viewBox="0 0 120 40" fill="none" xmlns="http://www.w3.org/2000/svg">
<g clip-path="url(#clip0_896_157744)">
<rect width="120" height="40" fill="#333333"/>
<g clip-path="url(#clip1_896_157744)">
<path d="M15.537 10.2495L13.934 17.2064M18.9846 14.9331C19.3177 14.6123 19.4886 14.2264 19.4971 13.7754C19.5166 13.3359 19.3715 12.9553 19.0618 12.6337C18.7521 12.3121 18.3717 12.147 17.9207 12.1385C17.4808 12.1415 17.0942 12.3034 16.7611 12.6242C16.428 12.945 16.2516 13.3251 16.2321 13.7646C16.2236 14.2156 16.3742 14.6019 16.6839 14.9236C16.9937 15.2452 17.3685 15.4046 17.8084 15.4016C18.2594 15.4101 18.6515 15.2539 18.9846 14.9331ZM12.7099 14.8317C13.043 14.5109 13.2138 14.125 13.2223 13.674C13.2419 13.2345 13.0968 12.854 12.7871 12.5323C12.4773 12.2107 12.097 12.0456 11.646 12.0371C11.206 12.0401 10.8195 12.202 10.4864 12.5228C10.1532 12.8436 9.97689 13.2237 9.95733 13.6632C9.94882 14.1142 10.0994 14.5006 10.4092 14.8222C10.7189 15.1438 11.0938 15.3032 11.5337 15.3002C11.9847 15.3087 12.3767 15.1525 12.7099 14.8317ZM14.286 20.3469L13.0776 20.7245C12.6761 20.85 12.239 20.7108 11.984 20.3762L11.2293 19.3862C11.0949 19.2098 10.9056 19.0831 10.6913 19.026L9.51864 18.7138C9.10824 18.6045 8.81163 18.248 8.77889 17.8245L8.68349 16.5904C8.66615 16.3661 8.5737 16.1542 8.42107 15.989L7.57828 15.0765C7.29061 14.765 7.23062 14.306 7.42858 13.9311L8.01041 12.8292C8.11291 12.635 8.14868 12.4125 8.1122 12.1961L7.90591 10.9719C7.83532 10.553 8.03711 10.1352 8.40913 9.93007L9.50512 9.32571C9.69973 9.2184 9.85304 9.04932 9.94086 8.84517L10.4292 7.71001C10.5962 7.32167 10.9894 7.08032 11.4113 7.10719L12.6284 7.1847C12.8511 7.19888 13.0721 7.13817 13.2563 7.01223L14.287 6.3076C14.6387 6.06715 15.1041 6.07592 15.4465 6.32946L16.4498 7.07244C16.6291 7.20523 16.8477 7.27423 17.0708 7.26845L18.2899 7.23688C18.7125 7.22593 19.0964 7.48192 19.2487 7.87629L19.6939 9.02905C19.7739 9.23636 19.9207 9.4111 20.1112 9.52567L21.1836 10.1709C21.5476 10.3899 21.7335 10.815 21.6472 11.231L21.3949 12.4465C21.3503 12.6614 21.3776 12.8851 21.4728 13.083L22.0126 14.2061C22.1963 14.5882 22.1191 15.0446 21.8199 15.345L20.9433 16.2251C20.7845 16.3844 20.6842 16.5927 20.6584 16.8162L20.5165 18.0458C20.4679 18.4677 20.158 18.8129 19.7438 18.9066L18.5602 19.1744C18.3439 19.2233 18.15 19.3428 18.009 19.514L17.2176 20.4749C16.9501 20.7996 16.5081 20.9222 16.1116 20.7817L14.9183 20.3588C14.7144 20.2865 14.4925 20.2823 14.286 20.3469Z" stroke="#404040" stroke-width="1.125" stroke-linecap="round" stroke-linejoin="round"/>
</g>
<g clip-path="url(#clip2_896_157744)">
<path d="M62.1348 15.8522L51.2308 13.625M54.9702 21.4072C55.4831 21.9139 56.0911 22.165 56.7943 22.1607C57.4799 22.1741 58.0674 21.9332 58.5565 21.4379C59.0457 20.9427 59.2881 20.3435 59.2838 19.6404C59.262 18.9549 58.9947 18.3589 58.4818 17.8523C57.9689 17.3456 57.3696 17.0856 56.6839 17.0722C55.9808 17.0765 55.3846 17.3263 54.8954 17.8215C54.4063 18.3168 54.1726 18.9071 54.1944 19.5925C54.1987 20.2957 54.4573 20.9006 54.9702 21.4072ZM54.8838 11.625C55.3967 12.1316 56.0047 12.3828 56.7078 12.3785C57.3935 12.3918 57.9809 12.1509 58.4701 11.6557C58.9593 11.1605 59.2017 10.5613 59.1974 9.85815C59.1756 9.1727 58.9083 8.57665 58.3954 8.07C57.8825 7.56336 57.2832 7.30335 56.5975 7.28998C55.8944 7.29429 55.2982 7.54406 54.809 8.03928C54.3199 8.5345 54.0862 9.12483 54.1079 9.81029C54.1123 10.5134 54.3709 11.1183 54.8838 11.625ZM46.4106 14.4722L45.5889 12.0567C45.4535 11.6585 45.5817 11.2181 45.9098 10.9548L47.8778 9.37545C48.0508 9.23664 48.1727 9.04426 48.2244 8.82858L48.8021 6.41777C48.9011 6.00477 49.2502 5.69934 49.6726 5.65604L52.1794 5.39911C52.4032 5.37617 52.6127 5.27845 52.7741 5.12174L54.5861 3.36216C54.8903 3.06679 55.3477 2.99535 55.7274 3.18389L57.9909 4.3076C58.1875 4.40522 58.4108 4.43542 58.6263 4.39354L61.1007 3.91269C61.5177 3.83165 61.9405 4.02294 62.1548 4.38972L63.436 6.58175C63.5482 6.77362 63.721 6.92266 63.9273 7.00535L66.2589 7.93997C66.6513 8.09727 66.9024 8.48433 66.886 8.90677L66.79 11.3924C66.7814 11.6154 66.8476 11.8349 66.9781 12.0159L68.4615 14.0733C68.7107 14.4188 68.7135 14.8843 68.4686 15.2329L67.0106 17.3084C66.8824 17.491 66.8188 17.7112 66.8302 17.9341L66.9567 20.4184C66.9782 20.8406 66.7319 21.2307 66.3415 21.3928L64.0215 22.356C63.8163 22.4412 63.6453 22.5923 63.5355 22.7856L62.2813 24.9932C62.0715 25.3626 61.6511 25.559 61.2331 25.4831L58.753 25.0327C58.537 24.9934 58.3141 25.0264 58.1187 25.1264L55.8692 26.2778C55.4918 26.471 55.0336 26.4052 54.7258 26.1136L52.8923 24.3764C52.729 24.2217 52.5183 24.1265 52.2942 24.1063L49.7845 23.8802C49.3615 23.8421 49.0088 23.541 48.9047 23.1292L48.2974 20.7257C48.2431 20.5106 48.1188 20.3198 47.9441 20.1831L45.9569 18.628C45.6256 18.3688 45.492 17.93 45.6225 17.5301L46.4145 15.1047C46.4816 14.899 46.4803 14.6771 46.4106 14.4722Z" stroke="#404040" stroke-width="1.125" stroke-linecap="round" stroke-linejoin="round"/>
</g>
<g clip-path="url(#clip3_896_157744)">
<path d="M105.396 24.829L112.366 26.8589M110.35 21.5999C110.044 21.2431 109.662 21.0474 109.204 21.0127C108.759 20.9674 108.364 21.0927 108.02 21.3885C107.676 21.6843 107.486 22.061 107.451 22.5183C107.429 22.9651 107.571 23.3669 107.877 23.7236C108.184 24.0804 108.559 24.2814 109.004 24.3267C109.462 24.3614 109.863 24.2309 110.207 23.935C110.552 23.6392 110.735 23.2678 110.757 22.8211C110.792 22.3637 110.656 21.9566 110.35 21.5999ZM109.884 27.9642C109.578 27.6074 109.196 27.4117 108.738 27.377C108.293 27.3317 107.899 27.457 107.554 27.7528C107.21 28.0487 107.02 28.4253 106.985 28.8826C106.963 29.3294 107.105 29.7312 107.411 30.088C107.718 30.4447 108.093 30.6457 108.539 30.691C108.996 30.7257 109.397 30.5952 109.741 30.2993C110.086 30.0035 110.269 29.6322 110.292 29.1854C110.326 28.728 110.19 28.321 109.884 27.9642ZM115.573 26.6777L115.891 27.9433C115.993 28.3512 115.829 28.7797 115.481 29.0153L114.417 29.734C114.234 29.8582 114.096 30.0399 114.027 30.2506L113.637 31.4399C113.504 31.8434 113.132 32.1193 112.707 32.1279L111.431 32.1537C111.206 32.1582 110.989 32.2385 110.815 32.3815L109.826 33.1956C109.499 33.4651 109.037 33.4989 108.674 33.2799L107.574 32.6164C107.386 32.503 107.166 32.4546 106.948 32.4787L105.676 32.6193C105.253 32.6659 104.848 32.4407 104.664 32.0576L104.106 30.894C104.01 30.6936 103.85 30.5309 103.651 30.4316L102.511 29.8623C102.133 29.6734 101.915 29.2671 101.965 28.8475L102.117 27.5988C102.143 27.3773 102.095 27.1531 101.98 26.9621L101.315 25.8597C101.095 25.4949 101.13 25.0308 101.403 24.7034L102.227 23.714C102.37 23.5426 102.451 23.3282 102.458 23.1052L102.497 21.848C102.51 21.4255 102.787 21.0568 103.19 20.9272L104.403 20.5365C104.614 20.4684 104.797 20.3317 104.922 20.1481L105.649 19.0821C105.889 18.7311 106.324 18.5697 106.734 18.6795L107.97 19.0105C108.182 19.0673 108.407 19.0527 108.61 18.969L109.798 18.4792C110.19 18.3175 110.641 18.4206 110.924 18.7364L111.779 19.6905C111.929 19.8581 112.131 19.9701 112.353 20.0086L113.61 20.2268C114.029 20.2994 114.356 20.6283 114.426 21.0472L114.632 22.2818C114.669 22.5005 114.777 22.7009 114.94 22.8514L115.882 23.7224C116.191 24.0079 116.289 24.4562 116.126 24.844L115.621 26.0471C115.537 26.2466 115.52 26.4679 115.573 26.6777Z" stroke="#404040" stroke-width="1.125" stroke-linecap="round" stroke-linejoin="round"/>
</g>
<g clip-path="url(#clip4_896_157744)">
<path d="M25.2975 39.206L35.2108 34.9926M27.9567 30.8441C27.2697 30.722 26.6472 30.8558 26.0892 31.2454C25.5354 31.6113 25.1995 32.1259 25.0816 32.7892C24.9637 33.4525 25.0996 34.0632 25.4892 34.6212C25.883 35.1555 26.4234 35.4837 27.1104 35.6058C27.7974 35.7279 28.4178 35.606 28.9716 35.2401C29.5297 34.8505 29.8676 34.3241 29.9855 33.6607C30.1034 32.9974 29.9654 32.3986 29.5716 31.8643C29.182 31.3063 28.6437 30.9662 27.9567 30.8441ZM33.3979 38.5928C32.7109 38.4707 32.0884 38.6045 31.5304 38.9941C30.9766 39.36 30.6407 39.8746 30.5228 40.5379C30.4049 41.2012 30.5408 41.8119 30.9304 42.3699C31.3242 42.9042 31.8646 43.2324 32.5516 43.3545C33.2386 43.4766 33.859 43.3547 34.4128 42.9888C34.9709 42.5992 35.3088 42.0728 35.4267 41.4094C35.5446 40.7461 35.4066 40.1473 35.0128 39.613C34.6232 39.055 34.0849 38.7149 33.3979 38.5928ZM38.5956 31.6766L40.5504 33.1306C40.8879 33.3817 41.0323 33.8171 40.9115 34.2201L40.22 36.5275C40.1563 36.7399 40.1651 36.9675 40.2449 37.1744L41.0963 39.3816C41.2492 39.7778 41.1351 40.2273 40.8117 40.5027L38.9809 42.0622C38.8096 42.208 38.6926 42.4074 38.6486 42.628L38.1774 44.9923C38.0945 45.4081 37.7585 45.7264 37.3388 45.7867L34.951 46.1294C34.7337 46.1606 34.5327 46.2624 34.379 46.4192L32.6946 48.1373C32.3972 48.4406 31.9406 48.523 31.556 48.3426L29.3617 47.3136C29.1605 47.2192 28.9336 47.1946 28.7168 47.2436L26.3782 47.7717C25.9658 47.8649 25.5394 47.6886 25.3131 47.3315L24.0426 45.3263C23.9232 45.1378 23.7441 44.9947 23.534 44.9197L21.2538 44.1061C20.8526 43.9629 20.5861 43.5812 20.5899 43.1552L20.6118 40.7343C20.6138 40.5112 20.5411 40.2938 20.4053 40.1167L18.9607 38.2331C18.7034 37.8976 18.6849 37.4366 18.9144 37.0816L20.216 35.0681C20.3367 34.8815 20.3917 34.66 20.3725 34.4386L20.1626 32.0241C20.1258 31.6009 20.3604 31.2006 20.7477 31.0259L22.9409 30.0367C23.141 29.9465 23.3059 29.7929 23.41 29.5996L24.5545 27.4761C24.7557 27.1029 25.1704 26.8971 25.5893 26.9626L27.9711 27.3349C28.1933 27.3696 28.4208 27.3284 28.6168 27.2179L30.7116 26.0365C31.0815 25.8279 31.5428 25.8757 31.8621 26.1557L33.6407 27.7154C33.8075 27.8616 34.0181 27.9483 34.2395 27.9617L36.6439 28.1076C37.0637 28.1331 37.4228 28.4186 37.5422 28.822L38.2336 31.1581C38.295 31.3655 38.422 31.5475 38.5956 31.6766Z" stroke="#404040" stroke-width="1.125" stroke-linecap="round" stroke-linejoin="round"/>
</g>
<g clip-path="url(#clip5_896_157744)">
<path d="M90.8884 1.45745L95.0711 8.4328M97.4188 2.57597C97.4386 2.04947 97.2738 1.59783 96.9243 1.22106C96.5931 0.844963 96.1732 0.647349 95.6649 0.628212C95.1565 0.609075 94.714 0.774226 94.3372 1.12366C93.9786 1.47378 93.7894 1.9121 93.7695 2.4386C93.7497 2.9651 93.9054 3.4164 94.2367 3.7925C94.5862 4.16927 95.0151 4.36723 95.5234 4.38636C96.0318 4.4055 96.4652 4.24001 96.8239 3.88989C97.2006 3.54045 97.3989 3.10248 97.4188 2.57597ZM92.19 7.45165C92.2098 6.92515 92.045 6.47351 91.6955 6.09673C91.3643 5.72064 90.9444 5.52303 90.4361 5.50389C89.9278 5.48475 89.4852 5.6499 89.1084 5.99934C88.7498 6.34946 88.5606 6.78777 88.5408 7.31428C88.5209 7.84078 88.6767 8.29208 89.0079 8.66817C89.3574 9.04495 89.7863 9.2429 90.2946 9.26204C90.803 9.28118 91.2365 9.11568 91.5951 8.76556C91.9719 8.41613 92.1702 7.97815 92.19 7.45165ZM97.8641 10.6908L97.1018 12.0819C96.8996 12.4508 96.4883 12.6537 96.0725 12.5897L94.5274 12.3515C94.3082 12.3178 94.084 12.3578 93.89 12.4654L92.5531 13.2069C92.1817 13.4129 91.7207 13.3619 91.4034 13.0796L90.2399 12.0446C90.0718 11.8951 89.8582 11.8066 89.6337 11.7934L88.0744 11.7022C87.6511 11.6774 87.2895 11.3884 87.172 10.981L86.7382 9.47712C86.6773 9.26618 86.5488 9.08113 86.3723 8.95052L85.1184 8.02231C84.7769 7.76955 84.6324 7.32863 84.7581 6.92281L85.2231 5.42083C85.2888 5.20854 85.282 4.9804 85.2036 4.77244L84.6557 3.31858C84.5066 2.92298 84.6224 2.47637 84.9449 2.20305L86.1163 1.21035C86.2865 1.06608 86.4036 0.869016 86.4489 0.65052L86.7676 -0.886137C86.8541 -1.30329 87.1954 -1.61984 87.6179 -1.67474L89.1742 -1.87698C89.3955 -1.90574 89.6008 -2.00768 89.7574 -2.16659L90.8354 -3.26C91.1322 -3.56106 91.5862 -3.64295 91.9695 -3.46455L93.3781 -2.80891C93.5795 -2.71513 93.8065 -2.69113 94.0231 -2.74071L95.5558 -3.09148C95.97 -3.18625 96.3988 -3.00903 96.6251 -2.64953L97.4564 -1.32936C97.5734 -1.14359 97.7483 -1.00147 97.9541 -0.924943L99.4211 -0.379299C99.8185 -0.231497 100.079 0.150842 100.072 0.574769L100.046 2.13649C100.042 2.36141 100.115 2.58104 100.251 2.75988L101.196 3.9979C101.453 4.33553 101.469 4.79906 101.236 5.15391L100.396 6.4313C100.274 6.61661 100.218 6.83717 100.235 7.05829L100.356 8.61697C100.389 9.03636 100.155 9.43133 99.7723 9.60516L98.3278 10.2607C98.1308 10.3501 97.968 10.501 97.8641 10.6908Z" stroke="#404040" stroke-width="1.125" stroke-linecap="round" stroke-linejoin="round"/>
</g>
<g clip-path="url(#clip6_896_157744)">
<path d="M76.8884 36.4575L81.0711 43.4328M83.4188 37.576C83.4386 37.0495 83.2738 36.5978 82.9243 36.2211C82.5931 35.845 82.1732 35.6473 81.6649 35.6282C81.1565 35.6091 80.714 35.7742 80.3372 36.1237C79.9786 36.4738 79.7894 36.9121 79.7695 37.4386C79.7497 37.9651 79.9054 38.4164 80.2367 38.7925C80.5862 39.1693 81.0151 39.3672 81.5234 39.3864C82.0318 39.4055 82.4652 39.24 82.8239 38.8899C83.2006 38.5404 83.3989 38.1025 83.4188 37.576ZM78.19 42.4517C78.2098 41.9251 78.045 41.4735 77.6955 41.0967C77.3643 40.7206 76.9444 40.523 76.4361 40.5039C75.9278 40.4848 75.4852 40.6499 75.1084 40.9993C74.7498 41.3495 74.5606 41.7878 74.5408 42.3143C74.5209 42.8408 74.6767 43.2921 75.0079 43.6682C75.3574 44.0449 75.7863 44.2429 76.2946 44.262C76.803 44.2812 77.2365 44.1157 77.5951 43.7656C77.9719 43.4161 78.1702 42.9782 78.19 42.4517ZM83.8641 45.6908L83.1018 47.0819C82.8996 47.4508 82.4883 47.6537 82.0725 47.5897L80.5274 47.3515C80.3082 47.3178 80.084 47.3578 79.89 47.4654L78.5531 48.2069C78.1817 48.4129 77.7207 48.3619 77.4034 48.0796L76.2399 47.0446C76.0718 46.8951 75.8582 46.8066 75.6337 46.7934L74.0744 46.7022C73.6511 46.6774 73.2895 46.3884 73.172 45.981L72.7382 44.4771C72.6773 44.2662 72.5488 44.0811 72.3723 43.9505L71.1184 43.0223C70.7769 42.7695 70.6324 42.3286 70.7581 41.9228L71.2231 40.4208C71.2888 40.2085 71.282 39.9804 71.2036 39.7724L70.6557 38.3186C70.5066 37.923 70.6224 37.4764 70.9449 37.203L72.1163 36.2103C72.2865 36.0661 72.4036 35.869 72.4489 35.6505L72.7676 34.1139C72.8541 33.6967 73.1954 33.3802 73.6179 33.3253L75.1742 33.123C75.3955 33.0943 75.6008 32.9923 75.7574 32.8334L76.8354 31.74C77.1322 31.4389 77.5862 31.3571 77.9695 31.5355L79.3781 32.1911C79.5795 32.2849 79.8065 32.3089 80.0231 32.2593L81.5558 31.9085C81.97 31.8137 82.3988 31.991 82.6251 32.3505L83.4564 33.6706C83.5734 33.8564 83.7483 33.9985 83.9541 34.0751L85.4211 34.6207C85.8185 34.7685 86.0795 35.1508 86.0724 35.5748L86.0461 37.1365C86.0424 37.3614 86.1145 37.581 86.251 37.7599L87.1956 38.9979C87.4532 39.3355 87.4695 39.7991 87.2361 40.1539L86.3962 41.4313C86.2743 41.6166 86.2175 41.8372 86.2347 42.0583L86.356 43.617C86.3886 44.0364 86.1553 44.4313 85.7723 44.6052L84.3278 45.2607C84.1308 45.3501 83.968 45.501 83.8641 45.6908Z" stroke="#404040" stroke-width="1.125" stroke-linecap="round" stroke-linejoin="round"/>
</g>
</g>
<defs>
<clipPath id="clip0_896_157744">
<rect width="120" height="40" fill="white"/>
</clipPath>
<clipPath id="clip1_896_157744">
<rect width="15.1544" height="15.1544" fill="white" transform="matrix(0.693652 0.72031 0.72031 -0.693652 4 13.5119)"/>
</clipPath>
<clipPath id="clip2_896_157744">
<rect width="23.6235" height="23.6235" fill="white" transform="matrix(-0.702753 0.711434 0.711434 0.702753 56.6016 -2)"/>
</clipPath>
<clipPath id="clip3_896_157744">
<rect width="15.4099" height="15.4099" fill="white" transform="matrix(0.758605 -0.651551 -0.651551 -0.758605 108.04 36.7304)"/>
</clipPath>
<clipPath id="clip4_896_157744">
<rect width="22.8644" height="22.8644" fill="white" transform="matrix(0.174982 -0.984572 -0.984572 -0.174982 39.5117 50.3946)"/>
</clipPath>
<clipPath id="clip5_896_157744">
<rect width="17.2644" height="17.2644" fill="white" transform="matrix(0.999292 0.0376181 0.0376181 -0.999292 84 13.2522)"/>
</clipPath>
<clipPath id="clip6_896_157744">
<rect width="17.2644" height="17.2644" fill="white" transform="matrix(0.999292 0.0376181 0.0376181 -0.999292 70 48.2522)"/>
</clipPath>
</defs>
</svg>
