<svg width="30" height="30" viewBox="0 0 30 30" fill="none" xmlns="http://www.w3.org/2000/svg">
<g clip-path="url(#clip0_2358_24792)">
<path d="M12.9508 14.5988C12.9623 14.8998 12.9116 15.1999 12.8017 15.4803C12.6918 15.7607 12.5251 16.0154 12.3121 16.2283C12.0992 16.4413 11.8445 16.6079 11.5641 16.7178C11.2837 16.8277 10.9836 16.8784 10.6826 16.8669C10.3817 16.8785 10.0816 16.8277 9.80114 16.7178C9.52073 16.608 9.26604 16.4413 9.05307 16.2284C8.8401 16.0154 8.67344 15.7607 8.56354 15.4803C8.45365 15.1999 8.40289 14.8998 8.41445 14.5988C8.40532 14.2996 8.45792 14.0017 8.56898 13.7236C8.68004 13.4456 8.84718 13.1934 9.05998 12.9828C9.27278 12.7722 9.52668 12.6077 9.80585 12.4995C10.085 12.3914 10.3835 12.3419 10.6826 12.3541C10.9818 12.3419 11.2802 12.3914 11.5594 12.4996C11.8385 12.6077 12.0924 12.7723 12.3052 12.9829C12.518 13.1934 12.6852 13.4456 12.7962 13.7236C12.9073 14.0017 12.9599 14.2996 12.9508 14.5988ZM12.0388 14.5988C12.032 14.3321 11.9467 14.0733 11.7935 13.8548C11.6403 13.6363 11.4262 13.4678 11.1777 13.3704C10.9293 13.273 10.6576 13.2511 10.3968 13.3073C10.136 13.3635 9.89748 13.4954 9.71121 13.6865C9.52495 13.8775 9.39917 14.1193 9.34962 14.3815C9.30007 14.6437 9.32894 14.9147 9.43262 15.1605C9.5363 15.4064 9.71019 15.6162 9.93253 15.7638C10.1549 15.9113 10.4158 15.99 10.6826 15.99C10.8647 15.9937 11.0456 15.9599 11.2141 15.8908C11.3826 15.8217 11.5351 15.7188 11.6623 15.5884C11.7894 15.458 11.8884 15.3029 11.9532 15.1327C12.0179 14.9625 12.0471 14.7808 12.0388 14.5988H12.0388ZM11.4543 20.4445H10.589L15.967 12.4943H16.8322L11.4543 20.4445ZM19.1471 18.3166C19.1529 18.7674 19.0246 19.2097 18.7786 19.5874C18.5325 19.9651 18.1797 20.2611 17.7651 20.438C17.3504 20.6148 16.8925 20.6643 16.4496 20.5804C16.0067 20.4964 15.5988 20.2828 15.2776 19.9665C14.9563 19.6502 14.7364 19.2456 14.6456 18.804C14.5548 18.3625 14.5973 17.9039 14.7676 17.4866C14.938 17.0692 15.2286 16.7119 15.6024 16.46C15.9763 16.2081 16.4165 16.073 16.8673 16.0719C17.1669 16.0603 17.4656 16.1101 17.7451 16.2184C18.0247 16.3266 18.2791 16.4909 18.4926 16.7012C18.7062 16.9116 18.8745 17.1634 18.987 17.4412C19.0996 17.719 19.1541 18.0169 19.1471 18.3166V18.3166ZM18.2235 18.3166C18.2156 18.0515 18.1298 17.7946 17.9768 17.5779C17.8239 17.3612 17.6105 17.1943 17.3634 17.0981C17.1162 17.0018 16.8462 16.9805 16.587 17.0367C16.3278 17.0928 16.0908 17.2241 15.9057 17.414C15.7206 17.6039 15.5954 17.8441 15.5459 18.1047C15.4964 18.3653 15.5247 18.6347 15.6272 18.8793C15.7297 19.1239 15.902 19.3329 16.1225 19.4803C16.3431 19.6276 16.6021 19.7068 16.8673 19.7079C17.0494 19.7116 17.2303 19.6778 17.3988 19.6087C17.5674 19.5396 17.7199 19.4367 17.847 19.3063C17.9742 19.1758 18.0732 19.0207 18.1379 18.8505C18.2027 18.6803 18.2318 18.4986 18.2235 18.3166V18.3166Z" fill="#9C182F"/>
<path d="M10.8752 29.1337C10.2815 29.1347 9.71178 28.8999 9.29124 28.4809L1.52024 20.7099C1.10169 20.2891 0.866727 19.7198 0.866699 19.1262C0.866672 18.5327 1.10158 17.9633 1.52009 17.5425L13.4033 5.65939C13.6949 5.37207 14.0883 5.21182 14.4976 5.21364L20.8072 5.29464C20.9664 5.29671 21.1182 5.3619 21.2292 5.47587C21.3403 5.58985 21.4015 5.74327 21.3995 5.9024C21.3998 5.98157 21.3841 6.05998 21.3535 6.13298C21.3228 6.20598 21.2778 6.27206 21.2211 6.32732C21.1644 6.38257 21.0972 6.42585 21.0234 6.4546C20.9496 6.48334 20.8709 6.49696 20.7917 6.49464L14.4828 6.41364C14.3973 6.41769 14.3157 6.45094 14.2518 6.50784L2.36868 18.3909C2.17446 18.5866 2.06556 18.8512 2.06575 19.1269C2.06594 19.4026 2.17521 19.6671 2.36971 19.8625L10.1386 27.6315C10.3341 27.8256 10.5985 27.9346 10.874 27.9346C11.1495 27.9346 11.4139 27.8256 11.6094 27.6315L23.4832 15.7574C23.514 15.7266 23.5383 15.6898 23.5546 15.6493C23.5709 15.6088 23.5788 15.5655 23.578 15.5219L23.359 9.27579C23.3534 9.11678 23.4112 8.96206 23.5197 8.84566C23.6282 8.72927 23.7785 8.66073 23.9375 8.65514C24.0965 8.64955 24.2512 8.70735 24.3676 8.81583C24.484 8.92432 24.5525 9.07459 24.5581 9.23361L24.7771 15.4796C24.7839 15.6878 24.7479 15.8952 24.6712 16.0889C24.5946 16.2827 24.479 16.4586 24.3317 16.6059L12.4578 28.4799C12.25 28.6877 12.0033 28.8525 11.7317 28.9647C11.4601 29.0769 11.169 29.1343 10.8752 29.1337Z" fill="#9C182F"/>
<path d="M20.824 9.776C20.7054 9.77598 20.5894 9.74078 20.4907 9.67485C20.3921 9.60892 20.3152 9.51522 20.2698 9.4056C20.2244 9.29597 20.2125 9.17535 20.2356 9.05897C20.2588 8.94259 20.3159 8.83569 20.3998 8.75178L28.1094 1.04216C28.222 0.92971 28.3745 0.866552 28.5336 0.866577C28.6927 0.866602 28.8453 0.929808 28.9577 1.04229C29.0702 1.15478 29.1334 1.30734 29.1335 1.46642C29.1335 1.6255 29.0703 1.77808 28.9579 1.8906L21.2483 9.60022C21.1926 9.65603 21.1265 9.7003 21.0537 9.73046C20.9809 9.76063 20.9028 9.77611 20.824 9.776Z" fill="#9C182F"/>
</g>
<defs>
<clipPath id="clip0_2358_24792">
<rect width="30" height="30" fill="white"/>
</clipPath>
</defs>
</svg>
