<svg width="28" height="28" viewBox="0 0 28 28" fill="none" xmlns="http://www.w3.org/2000/svg">
<path fill-rule="evenodd" clip-rule="evenodd" d="M21.1829 17.7734C21.4016 17.9922 21.511 18.2578 21.511 18.5703C21.511 18.8828 21.4016 19.1484 21.1829 19.3672L19.5891 20.9609C19.3704 21.1797 19.1047 21.2891 18.7922 21.2891C18.4797 21.2891 18.2141 21.1797 17.9954 20.9609L14.55 17.5156L11.1047 20.9609C10.886 21.1797 10.6204 21.2891 10.3079 21.2891C9.99536 21.2891 9.72974 21.1797 9.51099 20.9609L7.91724 19.3672C7.69849 19.1484 7.58911 18.8828 7.58911 18.5703C7.58911 18.2578 7.69849 17.9922 7.91724 17.7734L11.3626 14.3281L7.91724 10.8828C7.69849 10.6641 7.58911 10.3984 7.58911 10.0859C7.58911 9.77344 7.69849 9.50781 7.91724 9.28907L9.51099 7.69531C9.72974 7.47656 9.99536 7.36719 10.3079 7.36719C10.6204 7.36719 10.886 7.47656 11.1047 7.69531L14.55 11.1406L17.9954 7.69531C18.2141 7.47656 18.4797 7.36719 18.7922 7.36719C19.1047 7.36719 19.3704 7.47656 19.5891 7.69531L21.1829 9.28907C21.4016 9.50782 21.511 9.77344 21.511 10.0859C21.511 10.3984 21.4016 10.6641 21.1829 10.8828L17.7375 14.3281L21.1829 17.7734Z" fill="#ADB5BD"/>
</svg>
