<svg width="33" height="30" viewBox="0 0 33 30" fill="none" xmlns="http://www.w3.org/2000/svg">
<path d="M0.0878906 0V8.9267V17.8534V26.7801V30H18.9354L31.5228 17.8534C32.3221 16.8178 32.7484 15.6032 32.7484 14.3611C32.7484 13.119 32.3221 11.9044 31.5228 10.8688L18.9354 0H0.0878906Z" fill="#D7B46A"/>
<path d="M4.54767 11.6083C4.49062 11.7821 4.47942 11.9664 4.51506 12.1452C4.5507 12.3241 4.6321 12.492 4.7522 12.6345C4.8723 12.777 5.02748 12.8898 5.20429 12.963C5.38111 13.0363 5.57422 13.0678 5.7669 13.0549C6.09755 13.0436 6.41749 12.9416 6.68748 12.7614C6.95747 12.5813 7.16577 12.3309 7.28684 12.0408H8.65643C8.46581 12.6767 8.05908 13.2362 7.49859 13.6335C6.93809 14.0308 6.25474 14.2441 5.55325 14.2406C5.1962 14.2687 4.8372 14.216 4.50614 14.0869C4.17509 13.9578 3.88157 13.7561 3.65001 13.4986C3.41845 13.2411 3.25557 12.9352 3.17491 12.6064C3.09426 12.2776 3.09817 11.9354 3.18633 11.6083C3.33061 10.8691 3.74547 10.201 4.35874 9.72008C4.972 9.23921 5.74485 8.97607 6.54282 8.97644C6.85437 8.94887 7.16852 8.98728 7.46227 9.08886C7.75601 9.19044 8.02192 9.35262 8.2405 9.56352C8.45909 9.77442 8.62482 10.0287 8.72556 10.3077C8.82631 10.5868 8.85951 10.8835 8.82273 11.1762H7.44493C7.45222 11.036 7.42721 10.896 7.3716 10.7659C7.31599 10.6357 7.23111 10.5184 7.12279 10.422C7.01447 10.3257 6.88528 10.2525 6.74411 10.2077C6.60294 10.1628 6.45313 10.1473 6.30497 10.1622C5.87666 10.1648 5.46361 10.3123 5.14106 10.5777C4.81852 10.8432 4.60793 11.2089 4.54767 11.6083V11.6083Z" fill="#9C182F"/>
<path d="M13.0631 13.2703H10.8229L10.3003 14.1428H8.83594L12.0818 9.04297H13.3643L14.6861 14.1428H13.2613L13.0631 13.2703ZM12.8258 12.1966L12.4535 10.5638L11.4721 12.1966H12.8258Z" fill="#9C182F"/>
<path d="M20.3708 10.6461H19.0326C19.0408 10.2659 18.8426 9.96039 18.2727 9.96039C17.7505 9.96039 17.386 10.184 17.386 10.5569C17.386 10.7877 17.5842 10.907 17.9483 10.9817L18.6763 11.1456C19.5078 11.3246 20.0459 11.6602 20.0459 12.3687C20.0459 13.5093 18.9852 14.2474 17.4813 14.2474C16.2698 14.2474 15.2802 13.696 15.3914 12.4429H16.7372C16.7372 12.9351 17.0457 13.1815 17.7186 13.1815C18.249 13.1815 18.5734 12.9725 18.5734 12.6592C18.5734 12.503 18.4709 12.3537 18.0827 12.2717L17.2279 12.0777C16.3413 11.8765 15.8898 11.5113 15.9217 10.7654C15.9691 9.56517 17.1327 8.96094 18.3916 8.96094C19.2705 8.96092 20.4975 9.28191 20.3708 10.6461Z" fill="#9C182F"/>
<path d="M26.4648 9.07227L25.5148 14.1425H24.1849L24.5412 12.241H22.3483L21.9925 14.1425H20.6543L21.6043 9.07227H22.9419L22.5619 11.1076H24.7548L25.1348 9.07227L26.4648 9.07227Z" fill="#9C182F"/>
<path d="M7.7051 19.2701C7.7051 20.1725 6.84263 20.8583 5.48852 20.8583H2.78125L3.73122 15.7881H6.23302C7.24631 15.7881 7.90329 16.2503 7.90329 16.9437C7.90015 17.2314 7.80367 17.5113 7.62679 17.7459C7.44991 17.9805 7.2011 18.1585 6.91373 18.256C7.15218 18.3087 7.36286 18.4397 7.50791 18.6256C7.65297 18.8115 7.72288 19.04 7.7051 19.2701V19.2701ZM6.41479 19.2254C6.41479 18.9568 6.16969 18.8152 5.7578 18.8152H4.49891L4.31714 19.8147H5.49674C6.11409 19.8147 6.41479 19.5387 6.41479 19.2254V19.2254ZM4.87891 16.8171L4.68118 17.8535H5.68673C6.24849 17.8535 6.58109 17.5999 6.58109 17.2347C6.58109 16.9738 6.34373 16.8172 5.89219 16.8172L4.87891 16.8171Z" fill="#9C182F"/>
<path d="M12.3776 19.9842H10.1373L9.61473 20.8566H8.15039L11.3962 15.7568H12.6788L14.0005 20.8566H12.5758L12.3776 19.9842ZM12.1402 18.9105L11.7679 17.2777L10.7866 18.9105H12.1402Z" fill="#9C182F"/>
<path d="M16.118 18.3212C16.061 18.495 16.0498 18.6793 16.0854 18.8581C16.121 19.0369 16.2024 19.2049 16.3225 19.3474C16.4426 19.4899 16.5978 19.6026 16.7746 19.6759C16.9515 19.7492 17.1446 19.7807 17.3373 19.7678C17.6679 19.7564 17.9878 19.6545 18.2578 19.4743C18.5278 19.2942 18.7361 19.0438 18.8572 18.7538H20.2268C20.0361 19.3896 19.6294 19.9491 19.0689 20.3464C18.5084 20.7437 17.8251 20.957 17.1236 20.9535C16.7665 20.9816 16.4075 20.9289 16.0765 20.7998C15.7454 20.6707 15.4519 20.469 15.2203 20.2115C14.9888 19.954 14.8259 19.6481 14.7452 19.3193C14.6646 18.9905 14.6685 18.6483 14.7566 18.3212C14.9009 17.582 15.3158 16.9138 15.9291 16.433C16.5423 15.9521 17.3152 15.689 18.1132 15.6893C18.4247 15.6618 18.7389 15.7002 19.0326 15.8018C19.3264 15.9033 19.5923 16.0655 19.8108 16.2764C20.0294 16.4873 20.1952 16.7416 20.2959 17.0206C20.3966 17.2997 20.4298 17.5964 20.3931 17.8891H19.0153C19.0225 17.7489 18.9975 17.6089 18.9419 17.4788C18.8863 17.3486 18.8014 17.2313 18.6931 17.1349C18.5848 17.0386 18.4556 16.9654 18.3144 16.9206C18.1733 16.8757 18.0234 16.8602 17.8753 16.8751C17.447 16.8777 17.0339 17.0252 16.7114 17.2906C16.3889 17.5561 16.1783 17.9218 16.118 18.3212Z" fill="#9C182F"/>
<path d="M24.3121 18.0101L26.0061 20.8583H24.3754L23.2195 18.9941L22.2933 19.8292L22.1038 20.8583H20.7656L21.7156 15.7881H23.0533L22.6419 17.9801L25.0881 15.7881L26.782 15.7881L24.3121 18.0101Z" fill="#9C182F"/>
</svg>
