<svg width="324" height="38" viewBox="0 0 324 38" fill="none" xmlns="http://www.w3.org/2000/svg">
<path d="M0 4.96667C0 4.96667 0 28.6006 0 32.4006C0 36.2006 2.5022 38 6.0022 38C9.5022 38 312.409 38 312.409 38L322.79 23.623C323.579 22.3119 324 20.7732 324 19.1994C324 17.6257 323.579 16.0869 322.79 14.7758L312.409 0H6C2 0 0 2.43395 0 4.96667Z" fill="url(#paint0_linear_393_8851)"/>
<path d="M0 5.6C0 13.2 0 24.8 0 32.4C0 36.2 2.5 38 6 38C9.5 38 33.6088 38 33.6088 38L45.8118 22.6143C46.5868 21.3026 47 19.7641 47 18.1907C47 16.6174 46.5868 15.0789 45.8118 13.7672L33.6088 0C33.6088 0 8 0 5.5 0C3 0 0 1.16667 0 5.6Z" fill="#D7B46A"/>
<path d="M7.20623 14.3074C7.13492 14.5246 7.12093 14.755 7.16548 14.9785C7.21003 15.202 7.31177 15.4119 7.46188 15.59C7.612 15.7681 7.80597 15.9091 8.02698 16.0007C8.24798 16.0922 8.48936 16.1317 8.7302 16.1155C9.14349 16.1013 9.5434 15.9739 9.88087 15.7487C10.2183 15.5235 10.4787 15.2105 10.63 14.848H12.3419C12.1037 15.6428 11.5953 16.3421 10.8947 16.8387C10.1941 17.3354 9.33998 17.6019 8.46315 17.5976C8.01686 17.6327 7.56813 17.5668 7.15433 17.4055C6.74053 17.2441 6.37364 16.992 6.08421 16.6701C5.79478 16.3483 5.59118 15.9659 5.49037 15.5549C5.38955 15.1439 5.39445 14.7162 5.50464 14.3074C5.68498 13.3834 6.20353 12.5482 6.97008 11.9472C7.73663 11.3461 8.70265 11.0172 9.70006 11.0177C10.0895 10.9832 10.4821 11.0312 10.8493 11.1582C11.2165 11.2852 11.5488 11.4879 11.8221 11.7515C12.0953 12.0151 12.3024 12.3329 12.4284 12.6817C12.5543 13.0305 12.5958 13.4014 12.5498 13.7672L10.8276 13.7672C10.8368 13.592 10.8055 13.4171 10.736 13.2543C10.6665 13.0916 10.5604 12.945 10.425 12.8245C10.2896 12.7041 10.1281 12.6127 9.95166 12.5566C9.7752 12.5006 9.58794 12.4812 9.40276 12.4997C8.8674 12.5031 8.35111 12.6874 7.94794 13.0192C7.54478 13.351 7.28156 13.8081 7.20623 14.3074Z" fill="#9C182F"/>
<path d="M17.8504 16.3841H15.0502L14.397 17.4746H12.5667L16.6237 11.1001L18.2269 11.1001L19.879 17.4746H18.0982L17.8504 16.3841ZM17.5537 15.042L17.0884 13.001L15.8617 15.042H17.5537Z" fill="#9C182F"/>
<path d="M26.9862 13.1064H25.3135C25.3238 12.6312 25.076 12.2493 24.3636 12.2493C23.711 12.2493 23.2554 12.5287 23.2554 12.9948C23.2554 13.2834 23.5031 13.4325 23.9581 13.5259L24.8682 13.7307C25.9075 13.9544 26.5801 14.3739 26.5801 15.2595C26.5801 16.6852 25.2543 17.6078 23.3744 17.6078C21.8601 17.6078 20.6232 16.9186 20.7621 15.3523H22.4444C22.4444 15.9675 22.83 16.2754 23.6711 16.2754C24.334 16.2754 24.7395 16.0142 24.7395 15.6226C24.7395 15.4274 24.6114 15.2407 24.1261 15.1383L23.0578 14.8958C21.9495 14.6443 21.3851 14.1878 21.425 13.2555C21.4842 11.7553 22.9387 11 24.5123 11C25.6109 11 27.1445 11.4012 26.9862 13.1064Z" fill="#9C182F"/>
<path d="M34.6038 11.1406L33.4164 17.4781H31.7541L32.1994 15.1013H29.4584L29.0137 17.4781H27.3411L28.5285 11.1406H30.2005L29.7255 13.6847H32.4665L32.9414 11.1406H34.6038Z" fill="#9C182F"/>
<path d="M11.1545 23.8845C11.1545 25.0125 10.0765 25.8697 8.38393 25.8697H5L6.18741 19.5322H9.31451C10.5811 19.5322 11.4023 20.1099 11.4023 20.9767C11.3983 21.3363 11.2777 21.6862 11.0566 21.9794C10.8356 22.2726 10.5246 22.4951 10.1654 22.617C10.4634 22.6828 10.7267 22.8466 10.9081 23.079C11.0894 23.3113 11.1768 23.5969 11.1545 23.8845ZM9.54171 23.8287C9.54171 23.4929 9.23536 23.3159 8.72051 23.3159H7.14698L6.91978 24.5652H8.39421C9.16586 24.5652 9.54171 24.2203 9.54171 23.8287V23.8287ZM7.62195 20.8185L7.3748 22.1139H8.63168C9.33385 22.1139 9.74958 21.7969 9.74958 21.3404C9.74958 21.0143 9.45289 20.8185 8.8885 20.8185L7.62195 20.8185Z" fill="#9C182F"/>
<path d="M16.9976 24.7791H14.1974L13.5442 25.8696H11.7139L15.771 19.4951H17.3741L19.0262 25.8696H17.2454L16.9976 24.7791ZM16.7009 23.437L16.2356 21.3961L15.0089 23.437H16.7009Z" fill="#9C182F"/>
<path d="M21.6706 22.7004C21.5993 22.9177 21.5853 23.148 21.6299 23.3716C21.6744 23.5951 21.7762 23.805 21.9263 23.9831C22.0764 24.1612 22.2704 24.3021 22.4914 24.3937C22.7124 24.4853 22.9538 24.5247 23.1946 24.5086C23.6079 24.4944 24.0078 24.3669 24.3453 24.1418C24.6827 23.9166 24.9431 23.6036 25.0944 23.2411H26.8063C26.5681 24.0359 26.0597 24.7352 25.3591 25.2318C24.6585 25.7284 23.8043 25.995 22.9275 25.9907C22.4812 26.0257 22.0325 25.9598 21.6187 25.7985C21.2049 25.6372 20.838 25.3851 20.5486 25.0632C20.2591 24.7413 20.0555 24.359 19.9547 23.948C19.8539 23.537 19.8588 23.1093 19.969 22.7004C20.1493 21.7764 20.6679 20.9413 21.4345 20.3402C22.201 19.7392 23.167 19.4103 24.1645 19.4107C24.5539 19.3763 24.9465 19.4243 25.3137 19.5513C25.6809 19.6782 26.0132 19.8809 26.2865 20.1446C26.5597 20.4082 26.7668 20.726 26.8927 21.0748C27.0187 21.4236 27.0602 21.7945 27.0142 22.1603H25.292C25.3011 21.9851 25.2699 21.8101 25.2003 21.6474C25.1308 21.4847 25.0247 21.3381 24.8893 21.2176C24.754 21.0972 24.5925 21.0058 24.416 20.9497C24.2396 20.8937 24.0523 20.8742 23.8671 20.8928C23.3318 20.8961 22.8155 21.0805 22.4123 21.4123C22.0092 21.744 21.746 22.2012 21.6706 22.7004Z" fill="#9C182F"/>
<path d="M31.9124 22.3096L34.0298 25.8697H31.9916L30.5468 23.5396L29.389 24.5834L29.1521 25.8697H27.4795L28.6669 19.5322H30.3389L29.8247 22.2721L32.8823 19.5322H34.9997L31.9124 22.3096Z" fill="#9C182F"/>
<defs>
<linearGradient id="paint0_linear_393_8851" x1="-0.000488266" y1="22.6149" x2="400.605" y2="22.6149" gradientUnits="userSpaceOnUse">
<stop offset="0.03324" stop-color="#9C182F"/>
<stop offset="0.93679" stop-color="#E7343F"/>
</linearGradient>
</defs>
</svg>
