<svg width="115" height="29" viewBox="0 0 115 29" fill="none" xmlns="http://www.w3.org/2000/svg">
<path d="M68.1666 18.014C68.17 17.884 68.1476 17.7547 68.1006 17.6336C68.0536 17.5125 67.9831 17.4022 67.8931 17.3092C67.8032 17.2162 67.6957 17.1423 67.577 17.0921C67.4583 17.0418 67.3309 17.0161 67.2022 17.0166H62.5633C62.4451 17.0126 62.3274 17.0321 62.2167 17.0742C62.106 17.1162 62.0047 17.1799 61.9184 17.2615C61.8321 17.3432 61.7626 17.4412 61.7138 17.5501C61.665 17.6589 61.6379 17.7764 61.6341 17.8958C61.6341 18.5 62.0275 18.9403 62.5633 18.9403H67.2022C67.6915 18.9431 68.1666 18.6211 68.1666 18.014Z" fill="white"/>
<path d="M63.1626 11.2353H67.8029C68.0486 11.2303 68.2851 11.1394 68.472 10.9781C68.6589 10.8167 68.7847 10.5949 68.828 10.3504C68.8548 10.2251 68.8534 10.0953 68.824 9.97063C68.7945 9.84594 68.7376 9.72955 68.6576 9.63007C68.5776 9.5306 68.4764 9.45058 68.3617 9.39594C68.2469 9.3413 68.1215 9.31344 67.9946 9.31443L63.3558 9.30588C63.1099 9.31035 62.8731 9.40107 62.6861 9.5625C62.4991 9.72393 62.3735 9.94604 62.3307 10.1908C62.3048 10.3163 62.3068 10.4461 62.3365 10.5707C62.3663 10.6954 62.4229 10.8118 62.5025 10.9117C62.582 11.0116 62.6824 11.0924 62.7966 11.1484C62.9107 11.2043 63.0357 11.234 63.1626 11.2353V11.2353Z" fill="white"/>
<path d="M113.666 22.1423C113.503 21.9708 113.293 21.853 113.062 21.8045C113.032 21.7962 113.007 21.7772 112.989 21.751C112.972 21.7248 112.965 21.6932 112.969 21.662C113.013 21.35 113.057 21.0279 113.11 20.7116C113.319 19.402 113.542 18.024 113.773 16.6175C113.883 15.9478 113.773 15.3564 113.443 14.9075C113.113 14.4587 112.597 14.1822 111.96 14.1081C111.719 14.081 111.472 14.0511 111.234 14.0212C110.785 13.9656 110.323 13.9072 109.862 13.8673C109.779 13.8602 109.759 13.8587 109.709 13.7333C109.451 13.0878 109.186 12.4323 108.93 11.7996C108.56 10.8905 108.18 9.94712 107.813 9.02087C107.594 8.46655 107.194 8.19865 106.583 8.19865C105.021 8.19865 103.432 8.19865 101.897 8.18582L99.8916 8.17585C98.9625 8.17585 98.3505 8.60335 98.2589 9.58802C97.9839 12.5705 97.1393 21.7262 97.1393 21.7262C97.1393 21.7646 96.3948 21.7262 96.3948 21.7262L97.8542 5.58235C97.9007 5.06935 97.8542 4.67177 97.6201 4.40245C97.3861 4.13312 97.0138 4.06472 96.5232 4.06187C95.1399 4.06187 93.9132 4.06187 92.53 4.06187C87.361 4.04192 82.0143 4.02197 76.7578 3.9892C76.2756 3.9892 75.713 4.03622 75.2998 4.73305L75.273 4.77722C75.2608 4.79699 75.2535 4.8195 75.2519 4.84277L75.1743 5.28737L67.8113 5.27312C67.5361 5.27858 67.2732 5.38949 67.0759 5.58341C66.8785 5.77732 66.7614 6.03977 66.7482 6.31765C66.7426 6.43509 66.7608 6.55245 66.8016 6.66258C66.8423 6.7727 66.9049 6.87329 66.9853 6.95821C67.0658 7.04313 67.1625 7.11062 67.2696 7.15655C67.3767 7.20248 67.492 7.22589 67.6083 7.22537L74.984 7.2325L74.8289 8.90545H72.4545C72.2045 8.90986 71.9639 9.00199 71.7738 9.16604C71.5837 9.33008 71.4559 9.55584 71.4125 9.80462C71.3863 9.93171 71.3884 10.0631 71.4188 10.1892C71.4492 10.3154 71.507 10.4331 71.588 10.5338C71.669 10.6345 71.7712 10.7157 71.8872 10.7715C72.0032 10.8273 72.13 10.8562 72.2585 10.8563C72.2585 10.8563 74.6132 10.8563 74.6456 10.8563L74.4369 13.1078L67.088 13.0935C66.8127 13.0983 66.5496 13.2091 66.3523 13.4032C66.155 13.5972 66.0384 13.8601 66.0263 14.138C66.0205 14.2554 66.0385 14.3727 66.0791 14.4829C66.1197 14.593 66.1821 14.6936 66.2625 14.7785C66.3428 14.8635 66.4395 14.931 66.5465 14.9769C66.6535 15.0229 66.7687 15.0463 66.885 15.0458L74.2564 15.06L74.1028 16.7315H71.741C71.4913 16.7362 71.251 16.8282 71.061 16.9919C70.871 17.1556 70.743 17.3809 70.699 17.6293C70.6726 17.7565 70.6746 17.888 70.7048 18.0143C70.7351 18.1407 70.7928 18.2585 70.8739 18.3594C70.9549 18.4603 71.0572 18.5417 71.1733 18.5975C71.2894 18.6534 71.4164 18.6824 71.545 18.6824C71.545 18.6824 73.8898 18.6824 73.918 18.6824L73.7587 20.4152L66.4267 20.4009C66.1515 20.4061 65.8886 20.5169 65.6914 20.7109C65.4942 20.9049 65.3775 21.1676 65.365 21.4454C65.3594 21.5628 65.3776 21.68 65.4182 21.79C65.4589 21.9001 65.5213 22.0006 65.6016 22.0855C65.682 22.1704 65.7785 22.2379 65.8854 22.2839C65.9924 22.3299 66.1075 22.3535 66.2237 22.3532L73.5811 22.366L73.5444 23.144C73.5444 23.144 73.5613 23.2865 73.5627 23.2865C73.7573 23.7725 74.1084 23.9036 74.6597 23.9591H78.0437H78.5259C78.5189 24.0161 78.5118 24.0731 78.5076 24.1301C78.3158 26.2463 79.8189 27.9634 81.8648 27.9677C83.9107 27.9719 85.724 26.2577 85.9157 24.1444C85.9157 24.0874 85.9242 24.0304 85.927 23.9734L101.155 24.0019C101.112 24.3373 101.112 24.6768 101.155 25.0122C101.417 27.077 103.281 28.3781 105.319 27.9178C106.199 27.7063 106.989 27.215 107.573 26.516C108.157 25.8171 108.503 24.9474 108.562 24.0347V24.0347L113.074 24.0432C113.254 24.0388 113.427 23.9711 113.564 23.8518C113.7 23.7325 113.791 23.5689 113.821 23.3891V23.382L113.858 23.1626C113.947 22.7265 113.88 22.3845 113.666 22.1423Z" fill="white"/>
<path d="M16.1644 0.962502H10.0464L8.07244 4.9525L1.95868 16.6446H7.90888H8.00899L8.84653 14.5513H12.6056L12.6944 16.6432L18.302 16.6375L16.1644 0.962502ZM10.3256 10.8534L12.239 6.06543L12.4434 10.852L10.3256 10.8534Z" fill="white"/>
<path d="M58.8113 11.8481C58.9437 11.2947 59.0104 10.7274 59.0101 10.158C59.0114 9.63878 58.9441 9.12168 58.8099 8.62046C58.5776 7.76465 58.1109 6.99256 57.4633 6.39318C56.4326 5.42845 55.0931 4.95108 53.4308 4.9525C53.2898 4.9525 53.1488 4.9525 53.0078 4.9639C52.2111 5.00636 51.4284 5.19265 50.6968 5.51395C49.9402 5.85808 49.2597 6.35206 48.6954 6.96666C48.1311 7.58127 47.6945 8.30401 47.4115 9.09213C47.3052 9.40386 47.2213 9.72294 47.1605 10.0469C47.0776 10.5014 47.0365 10.9627 47.0378 11.4249C47.038 11.8229 47.0796 12.2198 47.1619 12.609C47.2309 12.9515 47.3348 13.2858 47.4721 13.6065C47.7535 14.2666 48.1781 14.8544 48.7143 15.3265C49.2195 15.7618 49.8038 16.0933 50.4345 16.3026C51.1327 16.5249 51.8613 16.6341 52.5932 16.6261C52.7342 16.6261 52.8752 16.6261 53.0162 16.6133C53.8177 16.5758 54.606 16.3939 55.3441 16.0761C56.1004 15.73 56.7806 15.2345 57.3446 14.6188C57.9085 14.0031 58.3449 13.2795 58.628 12.4908C58.7026 12.2804 58.7647 12.0658 58.8141 11.8481H58.8113ZM54.398 12.2286C54.0435 12.6334 53.5457 12.8812 53.012 12.9183C52.9528 12.9183 52.895 12.9183 52.8357 12.9183C52.5888 12.9293 52.3423 12.8885 52.1118 12.7985C51.8812 12.7085 51.6717 12.5712 51.4962 12.3953C51.1621 12.0533 50.9985 11.583 50.9971 10.9988C50.9867 10.6911 51.0367 10.3843 51.1442 10.0962C51.2516 9.80815 51.4144 9.54438 51.6231 9.32013C51.9801 8.9211 52.4778 8.67959 53.0092 8.64753C53.067 8.64753 53.1262 8.64041 53.184 8.64041C53.4301 8.63274 53.675 8.67643 53.9036 8.76874C54.1322 8.86105 54.3395 9.00001 54.5126 9.17693C54.6857 9.35384 54.8208 9.56493 54.9095 9.79699C54.9982 10.0291 55.0387 10.2771 55.0283 10.5257C55.0463 11.1547 54.8201 11.7659 54.398 12.2286" fill="white"/>
<path d="M47.8302 4.9411L43.5706 4.94395L41.6347 15.5004L41.4316 16.6133H41.6347L45.7039 16.6104L47.8302 4.9411Z" fill="white"/>
<path d="M42.0436 8.63043C41.8108 7.77451 41.3435 7.00245 40.6956 6.40315C39.6663 5.43605 38.3226 4.95583 36.6644 4.96248C36.5234 4.96248 36.3824 4.96248 36.2414 4.9753C35.4434 5.01549 34.6591 5.20086 33.9262 5.5225C33.5404 5.69662 33.1729 5.90954 32.8292 6.15805C32.4386 6.44136 32.0844 6.77259 31.7746 7.14415C31.2788 7.71784 30.896 8.3819 30.6466 9.10068C30.5403 9.41241 30.4564 9.73149 30.3956 10.0554C30.3126 10.5104 30.2716 10.9722 30.2729 11.4348C30.2725 11.8324 30.3141 12.2289 30.397 12.6176C30.4653 12.9602 30.5693 13.2946 30.7072 13.6151C30.9887 14.2751 31.4132 14.8629 31.9494 15.335C32.2237 15.572 32.5225 15.7783 32.8405 15.9506C33.106 16.095 33.3834 16.2156 33.6696 16.3112C34.3658 16.5339 35.0925 16.6441 35.8227 16.6375C35.9637 16.6375 36.1047 16.6375 36.2457 16.6247C37.0471 16.5872 37.8355 16.4052 38.5736 16.0874C39.3295 15.7415 40.0094 15.2464 40.5733 14.6312C41.1373 14.016 41.5739 13.2931 41.8575 12.505C41.9325 12.2947 41.9951 12.0801 42.045 11.8623C42.1776 11.309 42.2439 10.7416 42.2424 10.1723C42.244 9.6531 42.1772 9.13602 42.0436 8.6347V8.63043ZM37.6275 12.2428C37.2737 12.6487 36.7755 12.8966 36.2414 12.9325C36.1836 12.9325 36.1244 12.9325 36.0666 12.9325C35.8195 12.9435 35.5728 12.9027 35.342 12.8127C35.1113 12.7227 34.9014 12.5854 34.7257 12.4095C34.3929 12.0675 34.228 11.5973 34.228 11.013C34.2177 10.7055 34.2676 10.3989 34.3748 10.1108C34.482 9.82277 34.6444 9.55892 34.8526 9.33438C35.21 8.93584 35.7074 8.69443 36.2386 8.66178C36.2978 8.66178 36.3571 8.66178 36.4149 8.66178C36.6609 8.65411 36.9059 8.6978 37.1345 8.79011C37.3631 8.88242 37.5704 9.02138 37.7435 9.1983C37.9165 9.37522 38.0517 9.5863 38.1404 9.81836C38.2291 10.0504 38.2695 10.2985 38.2592 10.547C38.2757 11.1744 38.049 11.7834 37.6275 12.2442" fill="white"/>
<path d="M25.8596 4.95963H25.7313H20.6948L18.5516 16.6375H22.7929L23.4598 13.1562C23.7742 13.1867 24.09 13.201 24.4059 13.199C26.1444 13.199 29.7188 12.8114 30.2306 9.67495C30.9652 5.17052 26.6647 4.96105 25.8596 4.96105V4.95963ZM26.2586 9.0052C26.1176 9.98417 25.0545 10.1295 24.4383 10.1295C24.2908 10.1304 24.1434 10.1218 23.997 10.1039L24.3918 7.93075C24.3918 7.93075 24.4905 7.92077 24.6442 7.92077C25.187 7.92077 26.4039 8.02907 26.2586 9.0052Z" fill="white"/>
<path d="M4.52345 21.4796L4.27388 22.2691H6.13226L5.64722 23.8052H3.78038L3.54632 24.5448H5.51468L5.02118 26.081H1.09998L3.04718 19.9506H6.97685L6.49322 21.4796H4.52345Z" fill="white"/>
<path d="M11.393 19.9506H13.3543L11.3972 26.081H9.4458L8.53776 23.2652L7.62972 26.081H5.67828L7.62549 19.9506H9.45708L10.4568 22.9046L11.393 19.9506Z" fill="white"/>
<path d="M17.6745 21.6164H16.5071L15.0801 26.081H13.1188L14.5458 21.6164H13.3698L13.8986 19.9506H18.2033L17.6745 21.6164Z" fill="white"/>
<path d="M21.3293 23.5915L21.9934 26.081H19.7374L19.3581 24.1572L18.7405 26.081H16.751L18.6982 19.9535H21.1107C22.5207 19.9535 22.986 20.8469 22.8591 21.7219C22.6927 22.8818 22.171 23.2509 21.3293 23.5943V23.5915ZM20.2661 22.3318C20.4094 22.3393 20.5502 22.2925 20.6611 22.2005C20.772 22.1085 20.8448 21.978 20.8654 21.8345C20.9006 21.5936 20.7526 21.4397 20.5044 21.4397H20.2224L19.9404 22.3318H20.2661Z" fill="white"/>
<path d="M25.9203 21.4796L25.6693 22.2691H27.5291L27.0426 23.8052H25.1758L24.9417 24.5448H26.9115L26.418 26.081H22.4954L24.4426 19.9506H28.3736L27.89 21.4796H25.9203Z" fill="white"/>
<path d="M30.6719 24.656C30.8104 24.6671 30.9496 24.6492 31.0809 24.6034C31.2122 24.5575 31.3326 24.4847 31.4347 24.3895L31.618 23.8195H30.937L31.305 22.6795H33.9403L33.2663 24.8084C32.7474 25.4012 31.8774 26.165 30.4886 26.165C28.3581 26.165 27.5784 24.7657 27.7913 23.2894C28.0296 21.6321 29.5086 19.8808 31.6998 19.8808C33.3453 19.8808 33.8994 20.5334 34.1856 21.2032L32.2962 21.8387C32.2032 21.6492 32.0142 21.4112 31.4291 21.4112C30.6522 21.4112 30.0106 22.4401 29.8781 23.3421C29.778 24.0375 29.9866 24.656 30.6691 24.656" fill="white"/>
<path d="M39.4125 19.9506L39.3829 26.0781H37.4907V25.1932H35.8114L35.2474 26.0781H33.3298L37.203 19.9506H39.4125ZM36.6715 23.8323H37.4991L37.5132 22.4928L36.6715 23.8323Z" fill="white"/>
<path d="M40.6223 24.8583H41.9153L41.5726 26.1408H40.2783L40.6223 24.8583Z" fill="white"/>
<path d="M42.7063 24.2955C42.7056 23.9635 42.7702 23.6347 42.8963 23.3282C43.0224 23.0216 43.2075 22.7435 43.4409 22.5099C43.916 22.0285 44.5602 21.7565 45.233 21.7533C46.1749 21.7533 46.6952 22.1808 46.9899 22.7023L46.0635 23.3621C45.8478 23.0329 45.6165 22.7992 45.1371 22.7992C44.8455 22.8106 44.5699 22.9375 44.3701 23.1526C44.0752 23.4574 43.9093 23.8663 43.9076 24.2926C43.9076 24.8469 44.2742 25.2018 44.7452 25.2018C45.1216 25.2018 45.3924 25.0479 45.7124 24.7743L46.3356 25.5694C45.8873 25.9727 45.4332 26.2377 44.7057 26.2377C43.541 26.242 42.7063 25.4725 42.7063 24.2955Z" fill="white"/>
<path d="M51.5963 23.7483C51.5866 24.409 51.3196 25.0392 50.8533 25.5024C50.6269 25.735 50.3572 25.92 50.0598 26.0469C49.7625 26.1739 49.4432 26.2401 49.1204 26.242C47.8514 26.242 47.059 25.397 47.059 24.247C47.0731 23.5886 47.3387 22.9613 47.8002 22.4964C48.2618 22.0316 48.8834 21.7653 49.5349 21.7533C50.8053 21.7533 51.5963 22.5983 51.5963 23.7483ZM49.9509 24.8583C50.2309 24.5696 50.3934 24.1851 50.4063 23.781C50.4063 23.1455 50.0298 22.7992 49.4785 22.7992C49.1864 22.8037 48.908 22.9252 48.7044 23.1369C48.4239 23.4253 48.2613 23.81 48.249 24.2142C48.249 24.8498 48.6241 25.196 49.1754 25.196C49.4679 25.1916 49.7468 25.0702 49.9509 24.8583Z" fill="white"/>
<path d="M53.0486 21.8345H54.257L54.1371 22.2848C54.4417 22.0112 54.7928 21.7533 55.2722 21.7533C55.5188 21.7407 55.7628 21.8102 55.9666 21.9513C56.1703 22.0924 56.3227 22.2971 56.4002 22.5342C56.5805 22.2949 56.8123 22.1002 57.0781 21.965C57.3439 21.8297 57.6367 21.7573 57.9342 21.7533C58.6999 21.7533 59.1722 22.2278 59.1722 23.0087C59.1575 23.2869 59.1101 23.5625 59.0312 23.8295L58.4164 26.1451H57.218L57.8482 23.781C57.8816 23.6549 57.9006 23.5253 57.9046 23.3949C57.9046 23.0486 57.7129 22.8633 57.3406 22.8633C56.8612 22.8633 56.5651 23.2096 56.4298 23.7183L55.7826 26.1408H54.5686L55.1988 23.7768C55.2322 23.6506 55.2512 23.5211 55.2552 23.3906C55.2552 23.0443 55.0635 22.8591 54.6912 22.8591C54.2118 22.8591 53.9157 23.2053 53.7804 23.7141L53.1332 26.1365H51.9192L53.0486 21.8345Z" fill="white"/>
</svg>
