<svg width="42" height="39" viewBox="0 0 42 39" fill="none" xmlns="http://www.w3.org/2000/svg">
<path d="M0 0V11.6047V23.2094V32.8421C0 35.9211 2.5 39 6 39C9.5 39 27.1976 39 27.1976 39L40.6866 23.2094C41.5432 21.8632 42 20.2842 42 18.6694C42 17.0547 41.5432 15.4757 40.6866 14.1294L27.1976 0H0Z" fill="#D7B46A"/>
<path d="M8.45974 15.6478C8.40269 15.8216 8.39149 16.0059 8.42713 16.1847C8.46277 16.3635 8.54417 16.5314 8.66426 16.6739C8.78436 16.8164 8.93953 16.9292 9.11634 17.0025C9.29315 17.0757 9.48626 17.1073 9.67894 17.0944C10.0096 17.083 10.3295 16.981 10.5995 16.8009C10.8695 16.6207 11.0778 16.3703 11.1988 16.0803H12.5684C12.3778 16.7162 11.9711 17.2756 11.4106 17.6729C10.8501 18.0702 10.1668 18.2835 9.46529 18.28C9.10825 18.3081 8.74926 18.2554 8.41821 18.1263C8.08717 17.9972 7.79365 17.7956 7.5621 17.538C7.33055 17.2805 7.16767 16.9746 7.08702 16.6458C7.00637 16.3171 7.01028 15.9749 7.09844 15.6478C7.24271 14.9086 7.65756 14.2405 8.27081 13.7596C8.88406 13.2788 9.65689 13.0156 10.4548 13.016C10.7664 12.9884 11.0805 13.0268 11.3743 13.1284C11.668 13.23 11.9339 13.3922 12.1525 13.603C12.371 13.8139 12.5368 14.0682 12.6375 14.3472C12.7383 14.6263 12.7715 14.923 12.7347 15.2157H11.3569C11.3642 15.0755 11.3392 14.9355 11.2836 14.8054C11.228 14.6752 11.1431 14.5579 11.0348 14.4615C10.9265 14.3652 10.7973 14.2921 10.6561 14.2472C10.5149 14.2023 10.3651 14.1868 10.217 14.2017C9.78869 14.2043 9.37565 14.3518 9.05311 14.6172C8.73058 14.8827 8.52 15.2484 8.45974 15.6478Z" fill="#9C182F"/>
<path d="M16.9749 17.3088H14.7347L14.2121 18.1812H12.7478L15.9935 13.0815H17.2761L18.5978 18.1812H17.1731L16.9749 17.3088ZM16.7375 16.2351L16.3653 14.6023L15.3839 16.2351H16.7375Z" fill="#9C182F"/>
<path d="M24.2825 14.6851H22.9444C22.9526 14.3049 22.7544 13.9994 22.1844 13.9994C21.6623 13.9994 21.2978 14.223 21.2978 14.5959C21.2978 14.8267 21.496 14.946 21.8601 15.0207L22.5881 15.1846C23.4196 15.3636 23.9576 15.6992 23.9576 16.4076C23.9576 17.5482 22.897 18.2863 21.3931 18.2863C20.1816 18.2863 19.192 17.7349 19.3032 16.4819H20.6491C20.6491 16.9741 20.9575 17.2204 21.6304 17.2204C22.1608 17.2204 22.4851 17.0114 22.4851 16.6982C22.4851 16.542 22.3826 16.3926 21.9945 16.3107L21.1398 16.1167C20.2532 15.9155 19.8016 15.5503 19.8335 14.8045C19.8809 13.6042 21.0445 13 22.3034 13C23.1823 13 24.4092 13.321 24.2825 14.6851Z" fill="#9C182F"/>
<path d="M30.3762 13.1108L29.4263 18.1809H28.0964L28.4527 16.2794H26.2598L25.9041 18.1809H24.5659L25.5159 13.1108H26.8535L26.4735 15.1461H28.6663L29.0463 13.1108L30.3762 13.1108Z" fill="#9C182F"/>
<path d="M11.6171 23.3085C11.6171 24.211 10.7546 24.8967 9.40055 24.8967H6.69336L7.6433 19.8267H10.145C11.1583 19.8267 11.8153 20.2888 11.8153 20.9823C11.8121 21.27 11.7156 21.5499 11.5388 21.7844C11.3619 22.019 11.1131 22.197 10.8257 22.2945C11.0642 22.3472 11.2748 22.4782 11.4199 22.6641C11.5649 22.85 11.6349 23.0785 11.6171 23.3085ZM10.3268 23.2639C10.3268 22.9953 10.0817 22.8537 9.66982 22.8537H8.41097L8.22921 23.8531H9.40877C10.0261 23.8531 10.3268 23.5772 10.3268 23.2639V23.2639ZM8.79096 20.8557L8.59323 21.8921H9.59875C10.1605 21.8921 10.4931 21.6384 10.4931 21.2733C10.4931 21.0124 10.2557 20.8557 9.80421 20.8557L8.79096 20.8557Z" fill="#9C182F"/>
<path d="M16.2893 24.0227H14.0491L13.5266 24.8951H12.0623L15.308 19.7954H16.5905L17.9122 24.8951H16.4875L16.2893 24.0227ZM16.052 22.949L15.6797 21.3162L14.6984 22.949H16.052Z" fill="#9C182F"/>
<path d="M20.0298 22.3602C19.9728 22.534 19.9616 22.7183 19.9972 22.8971C20.0329 23.0759 20.1143 23.2438 20.2344 23.3863C20.3545 23.5288 20.5096 23.6416 20.6864 23.7149C20.8633 23.7881 21.0564 23.8197 21.249 23.8067C21.5797 23.7954 21.8996 23.6934 22.1696 23.5133C22.4396 23.3332 22.6479 23.0827 22.7689 22.7927H24.1385C23.9479 23.4286 23.5411 23.988 22.9807 24.3853C22.4202 24.7826 21.7368 24.9959 21.0354 24.9924C20.6783 25.0205 20.3193 24.9678 19.9883 24.8387C19.6572 24.7096 19.3637 24.508 19.1322 24.2504C18.9006 23.9929 18.7377 23.687 18.6571 23.3582C18.5764 23.0294 18.5804 22.6873 18.6685 22.3602C18.8128 21.621 19.2276 20.9529 19.8409 20.472C20.4542 19.9911 21.227 19.728 22.0249 19.7284C22.3365 19.7008 22.6506 19.7392 22.9444 19.8408C23.2381 19.9424 23.504 20.1046 23.7226 20.3155C23.9411 20.5264 24.1069 20.7806 24.2076 21.0597C24.3083 21.3387 24.3415 21.6354 24.3048 21.9281H22.927C22.9343 21.7879 22.9093 21.648 22.8537 21.5178C22.7981 21.3876 22.7132 21.2703 22.6049 21.1739C22.4965 21.0776 22.3674 21.0045 22.2262 20.9596C22.085 20.9148 21.9352 20.8992 21.7871 20.9141C21.3588 20.9167 20.9457 21.0642 20.6232 21.3296C20.3007 21.5951 20.0901 21.9608 20.0298 22.3602Z" fill="#9C182F"/>
<path d="M28.2237 22.0486L29.9176 24.8967H28.287L27.1311 23.0326L26.2048 23.8677L26.0153 24.8967H24.6772L25.6272 19.8267H26.9648L26.5534 22.0186L28.9996 19.8267H30.6935L28.2237 22.0486Z" fill="#9C182F"/>
</svg>
