<svg width="112" height="92" viewBox="0 0 112 92" fill="none" xmlns="http://www.w3.org/2000/svg">
<g clip-path="url(#clip0_4901_17492)">
<path d="M36.0572 70.7265L14.7806 72.2963C14.4139 72.3486 14.0412 72.3452 13.6756 72.2861C13.3849 72.2165 13.1126 72.086 12.8769 71.9036C12.6413 71.7211 12.4478 71.4908 12.3094 71.2281C12.1709 70.9655 12.0908 70.6765 12.0744 70.3806C12.058 70.0847 12.1056 69.7888 12.2141 69.5127C12.5501 68.6165 12.9355 67.7395 13.309 66.8586C13.5199 66.3717 13.6077 65.8412 13.5648 65.3131C12.4066 49.8999 11.2483 34.4861 10.09 19.0717C10.0586 18.5618 9.9017 18.0672 9.63292 17.6313C9.18144 16.9029 8.74743 16.1651 8.31074 15.4356C7.28578 13.7193 8.08467 12.1632 10.0785 12.0112C13.2136 11.7799 16.3503 11.5485 19.4854 11.3172L52.8734 8.85386C53.2601 8.79751 53.6532 8.79943 54.0393 8.85958C54.3304 8.92847 54.6032 9.05845 54.8393 9.24076C55.0754 9.42306 55.2693 9.65344 55.4078 9.91633C55.5463 10.1792 55.6263 10.4685 55.6424 10.7647C55.6584 11.0608 55.6101 11.3569 55.5008 11.633C55.1698 12.5305 54.7827 13.4059 54.4075 14.2869C54.1958 14.7736 54.108 15.3043 54.1517 15.8324C55.3101 31.2478 56.4684 46.6616 57.6265 62.0738C57.6574 62.584 57.815 63.0788 58.0852 63.5141C58.5061 64.1874 58.8626 64.9048 59.3278 65.5519C60.5543 67.2222 59.5343 69.0485 57.4595 69.1786C50.3201 69.6235 43.1906 70.2002 36.0572 70.7265Z" fill="#E54C3C"/>
<path d="M32.1176 17.6595L14.4101 18.9659C13.4697 19.0353 12.9349 18.3197 13.3077 17.4945C13.3488 17.3907 13.411 17.2963 13.4903 17.2172C13.5697 17.1381 13.6645 17.0759 13.769 17.0345C13.9973 16.9438 14.239 16.8906 14.4846 16.8769L49.4689 14.2959C50.3435 14.2313 50.6536 14.3984 50.8888 15.0428C50.9351 15.1757 50.9519 15.3169 50.9382 15.4569C50.9245 15.5968 50.8806 15.7321 50.8095 15.8537C50.7383 15.9754 50.6416 16.0804 50.5259 16.1617C50.4102 16.243 50.2781 16.2987 50.1388 16.325C49.9755 16.3518 49.81 16.3493 49.6456 16.3614L32.1176 17.6595Z" fill="#BF3A2B"/>
<path d="M35.6413 63.4779L53.1647 62.1851C53.9226 62.1292 54.4945 62.4801 54.5515 63.041C54.6278 63.7037 54.1422 64.1932 53.3105 64.2562C49.4997 64.5374 45.6883 64.8186 41.8764 65.0998L18.2735 66.8412C17.6948 66.8839 17.1591 66.8595 16.877 66.2301C16.8016 66.0806 16.7656 65.9146 16.7724 65.7477C16.7792 65.5807 16.8285 65.4182 16.9158 65.2752C17.0031 65.1322 17.1255 65.0135 17.2716 64.93C17.4177 64.8465 17.5827 64.8011 17.7513 64.7978C19.1241 64.6965 20.4968 64.5953 21.8712 64.4939L35.6413 63.4779Z" fill="#BF3A2B"/>
<g clip-path="url(#clip1_4901_17492)">
<path d="M16.4916 47.9056L20.0578 47.6425C20.1678 47.5217 20.3211 47.5176 20.4631 47.5072C23.0853 47.3137 25.6984 47.1083 28.3183 46.933C30.0189 46.7922 31.7213 46.6765 33.4231 46.5519C33.5578 46.5276 33.6969 46.5508 33.8162 46.6175C33.9382 46.74 33.9412 46.9011 33.9539 47.0578C34.0996 48.9972 34.2454 50.9366 34.3911 52.8759C34.4026 53.0291 34.4302 53.1902 34.3167 53.3256C33.2814 53.402 32.2459 53.4883 31.2107 53.5655C28.2159 53.7865 25.2178 53.9617 22.2284 54.2417C19.4612 54.5018 17.3567 52.7994 16.7855 50.6794C16.7692 50.6193 16.7751 50.5405 16.6882 50.5217L16.4916 47.9056Z" fill="#2D6993"/>
<path d="M34.3163 53.3202C34.1493 51.0983 33.9823 48.8764 33.8154 46.6545C33.8305 46.6134 33.8602 46.5792 33.899 46.5582C33.9924 46.5182 34.0925 46.4961 34.1942 46.4932C35.8923 46.3679 37.5905 46.2327 39.2894 46.1173C41.8967 45.9078 44.5053 45.7271 47.1138 45.5337C47.2585 45.5231 47.4089 45.5039 47.5349 45.6072C48.6158 45.5328 49.6983 45.4674 50.778 45.3769C51.0493 45.3569 51.1559 45.3968 51.1652 45.6898C51.1869 46.5711 51.3618 47.4464 51.2266 48.3339C50.8999 50.4832 49.1025 52.2158 46.9198 52.3886C42.7539 52.7175 38.5854 53.0107 34.4179 53.3181C34.3841 53.3206 34.3502 53.3213 34.3163 53.3202Z" fill="#2D5177"/>
<path d="M28.3236 47.029C27.4694 47.0966 26.6158 47.1704 25.7612 47.2325C23.8606 47.3727 21.9593 47.5085 20.0574 47.6398C18.8019 44.5919 19.9625 41.4648 22.8922 40.0028C22.9858 39.8761 23.1205 39.7851 23.2738 39.7449C25.2622 39.0189 27.1208 39.2989 28.8659 40.453C29.024 40.5407 29.1554 40.6689 29.2465 40.824C29.2652 40.9758 29.1587 41.0702 29.0793 41.176C27.817 42.8655 27.5982 44.7087 28.267 46.6756C28.3119 46.7894 28.3811 46.8996 28.3236 47.029Z" fill="#FDD100"/>
<path d="M47.5366 45.6115C46.3769 45.7025 45.2175 45.797 44.0574 45.8817C42.4696 45.9989 40.8812 46.1079 39.2931 46.2206C39.2286 46.1119 39.2704 46.0034 39.2922 45.8945C39.5645 44.5447 39.4145 43.2504 38.7842 42.014C38.4988 41.4661 38.1234 40.9689 37.6736 40.5428C37.5757 40.45 37.4624 40.3701 37.4387 40.2241C37.4425 40.1683 37.4581 40.114 37.4845 40.0646C37.5108 40.0151 37.5473 39.9717 37.5917 39.9372C39.1921 38.4029 41.0744 37.8253 43.2648 38.2988C43.3322 38.3058 43.3975 38.326 43.4569 38.3582C43.5163 38.3905 43.5686 38.4342 43.6108 38.4868C46.0452 39.2909 47.6341 41.3431 47.7395 43.8218C47.7551 44.4248 47.6868 45.027 47.5366 45.6115Z" fill="#F7B300"/>
<path d="M29.2199 40.8377C27.8921 39.7564 26.3764 39.2952 24.6633 39.4874C24.0485 39.5629 23.4502 39.737 22.8918 40.0027C22.8339 39.2322 22.8034 38.4633 23.0361 37.7128C23.6223 35.8336 24.8691 34.6281 26.7701 34.0806C26.8696 34.0607 26.9706 34.0494 27.0721 34.0466C27.1688 33.8692 27.3456 33.8742 27.5126 33.8583C28.7594 33.7424 30.0076 34.0661 31.0373 34.7724C32.067 35.4787 32.8122 36.5223 33.1416 37.7195C33.1684 37.8389 33.2104 37.9545 33.2666 38.0634C33.2739 38.3188 33.3368 38.5745 33.2558 38.8282C33.1736 38.9433 33.0462 38.9428 32.924 38.9617C31.631 39.1421 30.4341 39.7399 29.5186 40.6625C29.4385 40.7459 29.3721 40.8661 29.2199 40.8377Z" fill="#FEF493"/>
<path d="M33.2195 38.8427C33.2442 38.5778 33.1176 38.3096 33.2342 38.0452C33.1955 38.0067 33.1698 37.9573 33.1608 37.9038C33.1526 36.9963 33.4773 36.1867 33.9767 35.4517C34.9634 33.9906 36.3668 33.2114 38.1348 33.0728C38.3039 33.0604 38.4769 33.0386 38.5987 33.1954C39.6665 33.1887 40.6144 33.5467 41.4569 34.171C42.7942 35.1615 43.4966 36.498 43.5835 38.151C43.5918 38.2621 43.6002 38.3732 43.614 38.4848C41.315 37.8481 39.3268 38.3966 37.6249 40.0312C37.5719 40.0889 37.5227 40.15 37.4777 40.2141C37.3616 40.2668 37.2846 40.186 37.2075 40.1277C36.0844 39.2772 34.8115 38.8901 33.404 38.9146C33.3703 38.9138 33.3367 38.9093 33.3039 38.9013C33.2701 38.8913 33.2405 38.8707 33.2195 38.8427Z" fill="#FDDC61"/>
<path d="M38.5971 33.1972C37.9515 33.0764 37.3313 33.2194 36.7482 33.4327C34.7127 34.1739 33.5338 35.6311 33.2185 37.7634C33.2159 37.8081 33.2166 37.8529 33.2204 37.8975C33.1111 37.9191 33.1248 37.8352 33.1139 37.7747C33.0353 37.4142 32.9808 37.049 32.9508 36.6813C32.7222 33.5907 32.4915 30.5005 32.2587 27.4108C32.2432 27.2039 32.1776 26.9853 32.3279 26.7949C35.0211 26.5061 37.7798 28.4557 38.4293 31.0979C38.5925 31.7852 38.649 32.4931 38.5971 33.1972Z" fill="#FDD100"/>
<path d="M32.3281 26.7949C32.6002 30.4151 32.8704 34.036 33.139 37.6576C33.1453 37.7418 33.1235 37.8389 33.2206 37.8975C33.2243 37.9468 33.228 37.996 33.2317 38.0453C33.1349 38.0398 33.1042 37.9818 33.0858 37.8939C32.8361 36.8137 32.2374 35.8438 31.3805 35.1315C30.5237 34.4193 29.4557 34.0036 28.3387 33.9478C27.91 33.9299 27.4853 33.8918 27.0732 34.0466C26.6867 32.3273 26.9134 30.7097 27.9553 29.2581C29.022 27.7722 30.4844 26.9427 32.3281 26.7949Z" fill="#FDDC61"/>
<path d="M29.2202 40.8377C29.8775 40.1137 30.6985 39.5542 31.616 39.2051C32.1303 39.0095 32.6701 38.8878 33.2191 38.8435L33.2356 38.8576C33.362 38.9789 33.3587 39.1405 33.3705 39.2981C33.5428 41.5911 33.7151 43.8841 33.8874 46.1771C33.899 46.3312 33.9219 46.4908 33.814 46.6275L33.8163 46.658C32.3348 46.7619 30.853 46.8658 29.3709 46.9698C29.0237 46.9954 28.6749 47.0112 28.3273 47.0323C27.4369 44.8629 27.6678 42.8414 29.1309 40.9803C29.1628 40.9329 29.19 40.884 29.2202 40.8377Z" fill="#FDDC61"/>
<path d="M33.814 46.624L33.2359 38.8576C34.7215 38.748 36.0465 39.1638 37.2344 40.0401C37.3152 40.0999 37.3977 40.1569 37.4785 40.2158C38.1999 40.8743 38.7891 41.6245 39.1285 42.5481C39.5711 43.7551 39.6666 44.9778 39.2954 46.2205L33.814 46.624Z" fill="#FDD100"/>
</g>
</g>
<g clip-path="url(#clip2_4901_17492)">
<path d="M71.647 68.0603C70.2172 67.5061 70.0144 66.2896 69.8719 65.011C69.765 63.8897 69.5994 62.7743 69.3756 61.6692C69.3635 61.6125 69.4125 61.5418 69.4316 61.4781C69.6312 61.3125 69.869 61.3676 70.0935 61.3828C79.2754 62.0062 88.4574 62.6296 97.6393 63.2529C97.816 63.2543 97.9917 63.2798 98.1613 63.3286C98.4347 63.4654 98.3827 63.697 98.3263 63.9139C97.9469 65.348 97.5609 66.7804 97.0964 68.1893C96.7898 69.1101 96.1023 69.6154 95.084 69.6528L71.647 68.0603Z" fill="#80B8F8"/>
<path d="M95.0771 69.651C96.2968 69.3844 96.9129 68.6197 97.1781 67.448C97.4848 66.0998 97.9125 64.7794 98.2875 63.4476C98.3384 63.4 98.3994 63.3638 98.4661 63.3415C98.5329 63.3191 98.6039 63.3111 98.6742 63.318C99.3404 63.3346 100.004 63.3823 100.667 63.4533C100.737 63.456 100.806 63.4728 100.87 63.5026C100.934 63.5324 100.99 63.5745 101.037 63.6264C100.588 65.2065 100.16 66.7919 99.684 68.3623C99.4332 69.1908 98.7283 69.5807 97.9411 69.8467L95.0771 69.651Z" fill="#3185DA"/>
<path d="M67.3062 44.7466C66.2574 40.1879 67.5474 36.4128 71.2891 33.4692C71.7882 33.0579 72.3518 32.7269 72.9585 32.4889C73.0581 32.3718 73.173 32.2678 73.3002 32.1796C74.3597 31.671 75.5052 31.3528 76.6818 31.2402C77.251 31.2308 77.8187 31.0499 78.3897 31.2263C78.3981 31.5295 78.6701 31.4181 78.8236 31.4753C79.7712 31.8227 80.6732 32.2503 81.4537 32.8916C83.2422 34.3573 84.384 36.2194 84.9968 38.3976C85.0958 38.6732 85.174 38.9555 85.2307 39.2421C84.8323 40.3448 84.5954 41.497 84.5269 42.6648C84.4827 43.5581 84.5475 44.4537 84.7201 45.3327C84.7584 45.5314 84.85 45.7311 84.6794 45.9209C84.4483 46.0974 84.1782 46.0661 83.9165 46.0483C78.6105 45.6933 73.3053 45.3331 68.0009 44.9678C67.7475 44.9454 67.4894 44.9538 67.3062 44.7466Z" fill="#B68258"/>
<path d="M78.4487 31.3199C77.8389 31.2032 77.2428 31.3887 76.6324 31.3759C76.5566 31.3304 76.4947 31.266 76.453 31.1894C76.4114 31.1128 76.3916 31.0267 76.3956 30.9403C76.2948 29.6875 76.3991 28.4276 76.7044 27.2076C76.7262 27.1417 76.7707 27.0851 76.8303 27.0473C77.2595 26.1868 77.5227 25.2565 78.0621 24.4424C80.1202 21.3351 82.9879 19.5647 86.8129 19.3152C87.1807 19.2708 87.5526 19.2686 87.9211 19.3086C91.2838 19.8772 93.4336 21.909 94.8472 24.8001C96.006 27.1699 96.2068 29.6513 95.67 32.2021C95.6544 32.2867 95.6267 32.3687 95.5878 32.4459C95.4526 32.6445 95.2422 32.6562 95.0252 32.6674C92.0921 32.7203 89.615 33.8003 87.5458 35.7963C87.4032 35.9282 87.2895 36.0855 87.0737 36.0994C86.859 36.077 86.7305 35.928 86.6155 35.7773C84.8506 33.4495 82.4891 32.067 79.5655 31.575C79.306 31.4678 79.0188 31.5106 78.7514 31.4405C78.6404 31.4308 78.5349 31.3888 78.4487 31.3199Z" fill="#FCE9AE"/>
<path d="M69.3431 61.3773C69.0316 59.2045 68.7205 57.0316 68.4099 54.8588C68.408 54.7902 68.4154 54.7217 68.432 54.6551C68.6536 54.4987 68.907 54.5406 69.1514 54.5572C77.7568 55.1414 86.3618 55.7256 94.9664 56.3098C95.1449 56.3154 95.3223 56.3409 95.495 56.386C95.7568 56.4596 95.815 56.6791 95.8966 56.8886C96.124 57.4599 96.5186 57.8725 97.1602 57.916C97.8018 57.9596 98.3096 57.6616 98.6052 57.0738C98.6873 56.9092 98.7512 56.7187 98.9626 56.6526C99.4132 56.6221 99.8707 56.548 100.27 56.8466C100.345 57.04 100.273 57.2208 100.223 57.4018C99.7323 59.1869 99.2058 60.9526 98.7091 62.7307C98.5298 63.3939 98.4971 63.4034 97.797 63.3559C88.5044 62.725 79.2126 62.0941 69.9217 61.4634C69.7241 61.446 69.5231 61.4766 69.3431 61.3773Z" fill="#E5EEF4"/>
<path d="M95.663 56.5051L68.4306 54.6563L67.6194 49.0163C67.5315 48.7441 67.6768 48.6305 67.9261 48.5955C68.1378 48.575 68.3511 48.5773 68.5623 48.6023L88.8537 49.98C89.1194 49.998 89.3864 49.9966 89.6335 50.1095C89.869 50.2554 89.8337 50.4959 89.8252 50.7148C89.8054 51.2135 89.7564 51.7102 89.7221 52.2066C89.6977 52.4811 89.7109 52.7576 89.7613 53.0289C89.9165 53.7953 90.44 54.2153 91.2081 54.1869C91.5467 54.1746 91.869 54.0434 92.1155 53.8176C92.362 53.5918 92.5159 53.2866 92.5489 52.9584C92.5952 52.6173 92.5858 52.2712 92.6426 51.9321C92.8223 50.8767 93.5558 50.3057 94.5937 50.3904C95.4003 50.4608 96.1137 51.1249 96.1027 51.9216C96.0814 53.3488 95.9432 54.7682 95.8223 56.1887C95.8226 56.2499 95.8083 56.3102 95.7807 56.3651C95.753 56.42 95.7128 56.4679 95.663 56.5051Z" fill="#80B8F8"/>
<path d="M89.715 50.1891C82.5637 49.7036 75.4126 49.2229 68.2616 48.7469C68.0238 48.7307 67.6567 48.5383 67.626 49.0206C67.5407 48.7109 67.2961 48.6969 67.021 48.6601C66.2948 48.5653 65.5526 48.5292 64.9991 47.9253C64.4009 47.273 64.3568 46.5595 64.6857 45.8181C65.0305 45.0389 65.7415 44.756 66.5631 44.7052C66.8106 44.7034 67.0579 44.7172 67.3037 44.7464C70.4755 44.9678 73.6469 45.1883 76.818 45.4079C79.233 45.5719 81.6472 45.7358 84.0604 45.8997C84.2703 45.9139 84.4831 45.9634 84.6816 45.8522C86.1903 46.0183 87.7063 46.0212 89.221 46.0799C90.065 46.1125 90.1512 46.2352 90.0998 47.0565C90.0483 47.8778 89.9861 48.7009 89.9293 49.5218C89.914 49.7623 89.9236 50.0097 89.715 50.1891Z" fill="#E5EEF4"/>
<path d="M98.0602 32.828C102.719 34.221 105.47 37.2548 106.198 41.9437C106.486 43.7893 106.16 45.6012 105.456 47.3379C105.404 47.3852 105.342 47.4206 105.275 47.4416C105.207 47.4627 105.136 47.4688 105.066 47.4595C104.35 47.4109 103.628 47.4073 102.921 47.2606C102.615 47.0515 102.791 46.792 102.865 46.5633C103.205 45.5867 103.402 44.5683 103.451 43.5378C103.543 40.5905 102.743 37.9048 100.771 35.637C99.7524 34.4311 98.4101 33.5235 96.8941 33.0151C96.6853 32.9464 96.4315 32.9304 96.3356 32.6772C96.5463 32.4083 96.8433 32.5532 97.104 32.5267C97.4466 32.5526 97.8072 32.5303 98.0602 32.828Z" fill="#E96C9C"/>
<path d="M98.0611 32.8281L97.1111 32.6701C96.6392 32.4484 96.1331 32.7427 95.6578 32.5714C95.6001 32.5469 95.5506 32.5071 95.5149 32.4565C95.7159 31.5483 95.8144 30.6213 95.8089 29.6918C95.8259 25.5848 93.5927 21.4406 89.4605 19.8028C88.9603 19.6052 88.4342 19.4734 87.9211 19.3086C94.8643 19.4579 99.9929 26.2963 98.0611 32.8281Z" fill="#F7CB7C"/>
<path d="M67.81 21.9748C67.1518 20.6845 66.4702 19.4057 65.845 18.1008C65.4958 17.3614 65.7436 16.673 66.4652 16.3128C67.3865 15.8559 68.3246 15.4217 69.2792 15.0102C70.0481 14.6806 70.667 14.9174 71.0539 15.6334C71.2337 15.9677 71.3971 16.3061 71.567 16.6475C71.3941 17.219 70.9805 17.661 70.6455 18.1435C69.8232 19.3229 69.0354 20.5241 68.1863 21.686C68.0883 21.8105 68.0433 22.0166 67.81 21.9748Z" fill="#EFB3A2"/>
<path d="M69.3437 61.3774L97.583 63.2946C98.3654 63.3477 98.3495 63.3466 98.5559 62.6203C99.1043 60.6911 99.6658 58.7667 100.223 56.8407C100.275 56.7949 100.337 56.761 100.404 56.7413C100.471 56.7216 100.542 56.7166 100.612 56.7268C101.277 56.759 101.941 56.8054 102.604 56.8621C102.745 56.8649 102.88 56.9206 102.981 57.0176C102.369 59.184 101.756 61.3504 101.142 63.5167C101.129 63.56 101.078 63.5929 101.044 63.6309L98.2954 63.4533C98.1904 63.4462 98.0851 63.4261 97.9801 63.4189L69.438 61.4812L69.3437 61.3774Z" fill="#CCD5DD"/>
<path d="M70.035 26.4847L68.559 23.5674C69.411 22.229 70.3422 20.9414 71.2336 19.6304C71.4773 19.2729 71.7194 18.9165 71.9747 18.5637C72.0724 18.4249 72.1377 18.2527 72.3437 18.2264L73.7367 21.0108C73.5507 21.6554 73.0731 22.1347 72.7128 22.6739C71.9086 23.8818 71.0584 25.0593 70.2454 26.26C70.1979 26.3524 70.1251 26.4302 70.035 26.4847Z" fill="#EFB3A2"/>
<path d="M72.206 30.674C71.6679 29.8088 71.2624 28.8799 70.8085 27.9737C71.0733 27.2903 71.5727 26.7462 71.9694 26.1432C72.6268 25.1488 73.3331 24.1798 73.9995 23.1886C74.1478 22.9752 74.2299 22.6756 74.5715 22.6377L75.9804 25.4245C75.5556 26.2594 74.9493 26.9794 74.4299 27.7546C73.8524 28.6167 73.244 29.4638 72.6628 30.3219C72.561 30.4812 72.4762 30.704 72.206 30.674Z" fill="#EFB3A2"/>
<path d="M104.57 51.3223C104.038 53.1834 103.506 55.0453 102.973 56.908C102.108 56.9791 101.251 56.8352 100.392 56.7807C100.058 56.7581 100.17 56.4748 100.215 56.2933C100.4 55.5396 100.599 54.7894 100.837 54.051C101.165 53.0342 101.345 51.9762 101.764 50.9864C101.977 50.7826 102.245 50.8047 102.508 50.8187C102.945 50.8484 103.384 50.8691 103.822 50.9079C103.992 50.9215 104.16 50.9442 104.327 50.9759C104.496 51.0238 104.661 51.0921 104.57 51.3223Z" fill="#3185DA"/>
<path d="M101.807 51.036C101.592 52.2163 101.182 53.3444 100.868 54.4986C100.703 55.1095 100.563 55.7286 100.352 56.3248C100.214 56.7167 100.388 56.748 100.704 56.7642C101.461 56.8013 102.216 56.8578 102.973 56.9079C102.971 56.9415 102.975 56.9769 102.975 57.012L100.225 56.8356L98.8686 56.7254C98.6781 56.5462 98.7115 56.3134 98.7266 56.0949C98.8254 54.5378 98.933 52.9813 99.0495 51.4255C99.0414 51.2182 99.1023 51.0142 99.2232 50.8437C100.101 50.6695 100.966 50.6893 101.807 51.036Z" fill="#80B8F8"/>
<path d="M104.567 51.3221C104.42 50.9498 104.052 51.1963 103.82 51.0662C103.839 50.7857 104.108 50.7546 104.282 50.63C104.995 50.1044 105.267 49.4201 105.044 48.6517C104.839 47.9455 104.328 47.538 103.564 47.4472C103.299 47.4163 102.987 47.4989 102.79 47.2245L102.811 47.148L105.455 47.3379C106.02 47.3762 106.58 47.3961 107.079 47.7274C107.726 48.161 108.122 49.049 107.945 49.7552C107.744 50.5637 107.066 51.1021 106.241 51.2435C105.684 51.3421 105.115 51.1203 104.567 51.3221Z" fill="#CCD5DD"/>
<path d="M72.205 30.674C73.0339 29.6691 73.6803 28.5441 74.4543 27.503C74.9666 26.8117 75.3567 26.033 75.9847 25.4249L76.7402 26.9296C76.8032 27.1754 76.6574 27.3538 76.5315 27.5349C75.4687 29.0655 74.4327 30.6135 73.3495 32.131C73.3069 32.1849 73.2783 32.248 73.266 32.315C73.2351 32.3702 73.1887 32.4157 73.1323 32.4464C73.0759 32.477 73.0117 32.4915 72.9471 32.4882C72.9446 32.023 72.6022 31.6854 72.4497 31.2854C72.3734 31.0764 72.2063 30.9066 72.205 30.674Z" fill="#B68358"/>
<path d="M74.5732 22.6379C73.4702 24.2281 72.366 25.8178 71.2605 27.4069C71.1227 27.6041 70.9673 27.7858 70.8208 27.9745C70.5641 27.4792 70.3079 26.9829 70.0522 26.4859C70.1827 25.9895 70.5467 25.6271 70.8272 25.2189C71.7947 23.8117 72.7776 22.4134 73.754 21.012C74.072 21.5315 74.346 22.0752 74.5732 22.6379Z" fill="#B68358"/>
<path d="M72.3491 18.2267C71.1992 19.9046 70.0497 21.5826 68.9007 23.2606C68.8134 23.3846 68.7317 23.5232 68.5645 23.5677L67.8111 21.9748C68.9147 20.3881 70.0196 18.8019 71.1257 17.2163C71.2621 17.0203 71.4189 16.8375 71.5655 16.6474L72.3491 18.2267Z" fill="#B68358"/>
<path d="M73.2654 32.3149C73.082 32.0921 73.3167 31.9781 73.4102 31.8429C74.4729 30.2941 75.5431 28.7524 76.6083 27.2063C76.66 27.1179 76.7039 27.0253 76.7395 26.9295L76.8288 27.0473C76.6565 28.0606 76.5487 29.0835 76.5063 30.1101C76.487 30.5355 76.5294 30.9616 76.6323 31.3759C75.4646 31.5089 74.3275 31.826 73.2654 32.3149Z" fill="#EFB3A2"/>
<path d="M99.2781 50.8436C99.1426 52.8034 99.007 54.7641 98.8714 56.7256C98.6176 57.5968 97.9887 58.1035 97.2021 58.0721C96.4155 58.0408 95.8797 57.4888 95.6687 56.5069C95.767 55.0848 95.8773 53.6636 95.973 52.2414C96.0384 51.2951 95.4849 50.6146 94.6109 50.5345C93.6123 50.442 92.9159 50.9974 92.8022 51.9859C92.7676 52.2927 92.7595 52.6038 92.7382 52.9115C92.6631 53.7467 92.0333 54.3625 91.252 54.3692C90.3171 54.3784 89.7439 53.8862 89.5964 52.9696C89.5445 52.6401 89.596 52.3202 89.6118 51.994C89.6427 51.3934 89.6842 50.7936 89.7217 50.1935C89.8013 49.0416 89.8729 47.8905 89.9804 46.7419C90.0165 46.3547 89.8592 46.2752 89.5131 46.2621C88.0665 46.2015 86.6196 46.1267 85.1744 46.0454C85.0044 46.0339 84.7683 46.1283 84.6884 45.8553C84.1019 43.6158 84.2652 41.2542 85.1545 39.1149C85.1324 39.0679 85.1015 39.0126 85.118 38.9682C85.5354 37.8536 86.1228 36.8466 87.0619 36.0623C87.8503 35.3547 88.6199 34.6276 89.5518 34.0831C91.2514 33.0905 93.0742 32.535 95.0656 32.5338C95.2239 32.5449 95.3826 32.5206 95.5296 32.4627L95.6491 32.4903C95.8827 32.5867 96.1725 32.5259 96.3694 32.7289C97.9321 33.1168 99.2338 33.9208 100.376 35.0219C101.684 36.286 102.629 37.8618 103.115 39.5913C103.629 41.3549 103.804 43.1449 103.431 44.9769C103.269 45.7118 103.068 46.4377 102.827 47.1517L102.848 47.1999C102.493 47.3875 102.12 47.2635 101.755 47.2556C101.26 47.2388 100.765 47.2091 100.273 47.1549C99.8328 47.1069 99.6723 47.2856 99.6519 47.6972C99.6108 48.5231 99.5471 49.3474 99.4808 50.1703C99.449 50.3993 99.4664 50.6498 99.2781 50.8436Z" fill="#ED80A6"/>
<path d="M87.0478 36.0599C86.3143 37.0167 85.5806 37.9761 85.1403 39.1126C84.8662 38.9082 84.9351 38.5869 84.8512 38.3136C84.0856 35.8757 82.7592 33.8257 80.5327 32.403C79.8973 31.9955 79.1961 31.695 78.4587 31.5141C78.1634 31.4421 78.4065 31.3807 78.4455 31.3184L78.7604 31.3398C79.0367 31.4546 79.3465 31.3562 79.6228 31.4711C82.4806 31.8911 84.7565 33.2756 86.5548 35.4485C86.7239 35.6483 86.8843 35.8566 87.0478 36.0599Z" fill="#925D38"/>
<path d="M84.1239 24.7254C84.0858 24.9117 84.0312 25.0944 83.9607 25.2715C83.8998 25.4156 83.7925 25.5365 83.6549 25.6162C83.5173 25.6958 83.3568 25.7298 83.1974 25.7132C83.0368 25.7113 82.8814 25.6568 82.7562 25.5586C82.6311 25.4603 82.5434 25.324 82.5075 25.1715C82.4088 24.8225 82.4121 24.4539 82.517 24.1071C82.6304 23.7031 82.8633 23.4228 83.3299 23.4493C83.7966 23.4757 84.0429 23.773 84.0976 24.217C84.1165 24.369 84.1138 24.5234 84.1239 24.7254Z" fill="#B78358"/>
<path d="M88.5899 24.9611C88.59 25.115 88.5793 25.2688 88.5581 25.4213C88.5245 25.586 88.4356 25.735 88.3052 25.8449C88.1749 25.9547 88.0106 26.0192 87.8382 26.028C87.6658 26.0368 87.4952 25.9896 87.3532 25.8937C87.2112 25.7978 87.106 25.6587 87.054 25.4984C86.9442 25.1149 86.9546 24.7086 87.0839 24.3315C87.2134 23.887 87.5456 23.6771 88.0063 23.7707C88.4379 23.8597 88.6466 24.1609 88.6257 24.5985C88.6174 24.7187 88.6091 24.8377 88.6009 24.9566L88.5899 24.9611Z" fill="#B78358"/>
<path d="M93.1485 25.2861C93.1402 25.4063 93.1318 25.5278 93.1234 25.6481C93.0642 26.0999 92.7609 26.317 92.3293 26.3241C92.235 26.3312 92.1401 26.3199 92.0502 26.2909C91.9604 26.2619 91.8773 26.2157 91.8059 26.1551C91.7346 26.0945 91.6763 26.0207 91.6345 25.938C91.5928 25.8552 91.5684 25.7652 91.5628 25.6733C91.522 25.3308 91.5428 24.9841 91.6243 24.6488C91.6404 24.5537 91.6764 24.4628 91.73 24.3819C91.7837 24.3009 91.8539 24.2316 91.9363 24.1782C92.0188 24.1249 92.1116 24.0886 92.2091 24.0717C92.3066 24.0548 92.4067 24.0575 92.5032 24.0798C92.9292 24.1529 93.1925 24.4176 93.1783 24.8738C93.1715 25.011 93.1579 25.1491 93.1485 25.2861Z" fill="#B78358"/>
<path d="M84.4959 28.5588C84.4979 28.4045 84.5085 28.2504 84.5278 28.0973C84.5508 27.9241 84.639 27.7656 84.7752 27.6522C84.9115 27.5389 85.0862 27.4789 85.2656 27.4837C85.4436 27.4617 85.6237 27.5064 85.7695 27.6086C85.9152 27.7108 86.0159 27.863 86.051 28.0344C86.1581 28.4364 86.1311 28.8608 85.9738 29.2462C85.9178 29.4117 85.8003 29.5507 85.6443 29.6362C85.4884 29.7217 85.3051 29.7474 85.1304 29.7085C84.7204 29.6352 84.4731 29.3898 84.4652 28.9632C84.4627 28.8267 84.4842 28.6892 84.4937 28.5521L84.4959 28.5588Z" fill="#B68358"/>
<path d="M89.0405 28.8608C89.0731 28.389 89.0771 27.9061 89.7169 27.8027C90.0463 27.7485 90.3266 27.8441 90.4955 28.1232C90.7929 28.6278 90.7056 29.157 90.4804 29.6534C90.4165 29.7883 90.3087 29.8989 90.1737 29.9681C90.0387 30.0374 89.8839 30.0614 89.7332 30.0365C89.1844 29.9824 88.9868 29.6365 89.0405 28.8608Z" fill="#B68358"/>
<path d="M79.6286 31.4728C79.3363 31.4529 79.0327 31.5193 78.7661 31.3415C79.0593 31.3471 79.3592 31.3155 79.6286 31.4728Z" fill="#B68258"/>
<path d="M96.3571 32.7254C96.1026 32.6952 95.8573 32.6135 95.6369 32.4855C96.1316 32.5308 96.6418 32.4486 97.1136 32.6702C96.8633 32.7 96.5967 32.5416 96.3571 32.7254Z" fill="#EB779E"/>
<path d="M99.2791 50.8436C99.354 49.6642 99.4343 48.4838 99.5012 47.3038C99.5191 47.0453 99.6038 46.9393 99.8863 46.965C100.868 47.0511 101.851 47.1191 102.833 47.1949C103.069 47.3538 103.344 47.292 103.601 47.3133C104.421 47.3806 104.943 47.8174 105.156 48.5618C105.35 49.2478 105.291 49.9114 104.721 50.4558C104.453 50.7117 104.126 50.87 103.822 51.0663C103.151 51.1143 102.479 50.8868 101.806 51.0359L99.2791 50.8436Z" fill="#E5EEF4"/>
</g>
<path d="M83.2616 81.0825C82.6984 82.7529 82.1351 84.4233 81.5666 86.0908C81.5152 86.2646 81.4033 86.4147 81.2508 86.5146C81.0982 86.6144 80.9149 86.6574 80.7334 86.6359L38.3384 84.5063C37.4534 84.4618 37.3391 84.3763 37.1399 83.5196C36.7673 81.9185 36.4058 80.3139 36.0387 78.7117C36.2462 78.5503 36.4886 78.5882 36.727 78.5988C37.6541 78.6454 38.583 78.6853 39.5098 78.7386C39.85 78.7327 40.191 78.7647 40.5273 78.7816L79.0911 80.7188C79.2949 80.72 79.4985 80.7347 79.7003 80.7629C80.683 80.7906 81.6627 80.852 82.6429 80.9026C82.862 80.915 83.0887 80.9128 83.2616 81.0825Z" fill="#B2B2B2"/>
<path d="M39.2326 64.3112C40.5128 62.4099 41.7894 60.5093 43.0623 58.6094C43.3163 58.2326 43.5705 57.8545 43.8338 57.4836C44.0434 57.1654 44.3365 56.9096 44.6816 56.7437C45.0267 56.5778 45.4109 56.5081 45.7929 56.542C47.9794 56.6518 50.166 56.7617 52.3511 56.8714C52.5364 57.1188 52.5186 57.4127 52.5398 57.6924C52.7766 60.8272 55.4214 63.3986 58.5942 63.5201C59.9469 63.5855 61.2851 63.2194 62.4123 62.4757C62.6227 62.3375 62.8146 62.1632 63.0715 62.1031C63.3788 62.0996 63.5515 62.326 63.7515 62.4997C65.1366 63.7054 66.7279 64.2722 68.5777 64.0257C70.0783 63.8305 71.2739 63.0859 72.2718 61.9904C72.6014 61.6297 72.9011 61.2417 73.2398 60.8908C73.4837 60.6326 73.4842 60.4635 73.2037 60.2357C72.2862 59.4945 71.4622 58.6308 70.3214 58.1975C70.2725 58.1818 70.2284 58.154 70.1933 58.1168C70.1581 58.0795 70.1332 58.034 70.1208 57.9845C70.1164 57.932 70.1322 57.8799 70.1649 57.8384C70.1977 57.797 70.2449 57.7692 70.2974 57.7608C72.1081 57.8517 73.9194 57.9603 75.731 58.0337C76.6722 58.0729 77.3206 58.499 77.7553 59.3148C79.0151 61.6895 80.2889 64.0581 81.5572 66.4291C81.3036 66.6369 81.0044 66.5623 80.7238 66.5496C78.2121 66.4288 75.7006 66.3027 73.1894 66.1711C62.1932 65.6187 51.197 65.0664 40.2009 64.514C39.871 64.5042 39.5126 64.5727 39.2326 64.3112Z" fill="#F3B462"/>
<path d="M40.2776 69.2137C39.831 68.7382 39.7029 68.2003 39.9513 67.5879C40.1559 67.0031 40.7019 66.7356 41.429 66.8777C41.9777 66.985 42.5069 67.1536 43.0767 67.1958C43.8244 67.2691 44.579 67.1628 45.2765 66.8856C46.6224 66.3243 47.9154 66.3974 49.1975 67.0826C50.1622 67.5977 51.1943 67.6739 52.2688 67.4817C53.259 67.3076 54.2762 67.3587 55.2436 67.6311C56.2396 67.907 57.2695 68.0521 58.2689 67.8615C59.8761 67.5555 61.4347 67.7203 63.0186 68.0027C64.8055 68.3197 66.6182 68.3459 68.3796 67.8825C70.0137 67.4507 71.6122 67.3687 73.2567 67.7745C74.5613 68.1011 75.8883 68.042 77.202 67.7915C78.1336 67.6178 78.9875 67.8419 79.8247 68.2059C80.0143 68.2833 80.1855 68.3992 80.3273 68.5461C80.469 68.6929 80.5782 68.8676 80.6478 69.0587C80.7211 69.2545 80.7643 69.45 80.6117 69.6317C80.5557 70.1808 80.3419 70.7023 79.9956 71.1345C79.8071 71.7783 79.2454 72.0314 78.6953 72.139C76.8822 72.4942 75.049 72.6808 73.2871 71.9011C71.5722 71.1388 69.8417 70.972 68.0234 71.5096C66.5986 71.9317 65.2069 71.759 63.8679 71.0912C63.4703 70.8753 63.0227 70.766 62.5693 70.7741C62.116 70.7821 61.6726 70.9073 61.2831 71.1372C60.9056 71.3536 60.4876 71.4916 60.0546 71.5426C59.6216 71.5936 59.1826 71.5567 58.7645 71.434C57.5019 71.0751 56.173 71.0083 54.8802 71.2389C54.0027 71.3879 53.1005 71.2872 52.2784 70.9486C51.745 70.7292 51.1964 70.5479 50.6368 70.4063C49.4083 70.1133 48.205 70.2341 47.0159 70.5855C46.2152 70.8158 45.4186 70.911 44.6147 70.6164C44.1917 70.4396 43.7843 70.2282 43.3967 69.9844C42.7335 69.6076 42.0648 69.3373 41.2647 69.5568C41.0851 69.6177 40.8902 69.617 40.7111 69.5547C40.5321 69.4925 40.3794 69.3724 40.2776 69.2137Z" fill="#8B6239"/>
<path d="M80.613 69.6332C80.6162 68.9571 80.272 68.534 79.6596 68.2855C78.7943 67.9364 77.9253 67.7927 76.9808 67.9779C75.4968 68.2766 74.0125 68.156 72.5469 67.8011C71.3482 67.5123 70.1634 67.5921 68.9789 67.9072C66.7247 68.5054 64.4582 68.4917 62.1826 68.0149C61.0544 67.7636 59.8861 67.744 58.7499 67.9574C57.7016 68.1767 56.6154 68.1434 55.5827 67.8605C54.3392 67.5101 53.0306 67.4508 51.76 67.6874C50.8812 67.8386 49.9767 67.6822 49.2015 67.2451C47.9011 66.5428 46.6117 66.4807 45.2532 67.0468C44.1275 67.5191 42.9597 67.4536 41.8119 67.1052C41.0794 66.8818 40.4464 66.9284 39.9584 67.5828C39.1422 67.5283 39.0456 67.4139 39.0918 66.5926C39.1309 65.8277 39.1863 65.0649 39.235 64.3005L81.5565 66.4265C81.52 67.2997 81.493 68.1734 81.4442 69.0474C81.4144 69.576 81.0547 69.6702 80.613 69.6332Z" fill="#E9A95E"/>
<path d="M40.2781 69.2137C40.4827 69.333 40.7105 69.4081 40.9465 69.4342C41.1825 69.4602 41.4214 69.4367 41.6476 69.365C42.2238 69.2005 42.7053 69.4749 43.1927 69.7131C43.825 70.0262 44.3897 70.4617 45.1196 70.6011C45.6515 70.7075 46.2023 70.6746 46.7174 70.5056C48.5506 69.8825 50.5562 69.9881 52.3124 70.8001C53.1217 71.1565 54.0221 71.257 54.8911 71.0879C56.1797 70.849 57.507 70.9157 58.7645 71.2825C59.1714 71.408 59.6003 71.4477 60.0236 71.399C60.4468 71.3504 60.8552 71.2146 61.2223 71.0002C62.1306 70.4818 63.0446 70.4912 63.9422 70.9556C64.57 71.2911 65.2593 71.4984 65.9693 71.5652C66.6794 71.632 67.3957 71.5569 68.076 71.3445C69.7916 70.8396 71.4619 70.9289 73.0822 71.6744C74.8851 72.5061 76.7501 72.3361 78.6157 72.0241C79.1761 71.9291 79.6285 71.5704 79.9923 71.1289C80.0767 71.24 80.2067 71.2073 80.3202 71.2306C80.947 71.3581 81.2837 71.7659 81.2672 72.4088C81.2558 72.8451 81.213 73.2811 81.1853 73.7166C81.0669 74.3233 80.6743 74.5809 79.9521 74.5284C79.4375 74.256 78.8405 74.1779 78.2722 74.3087C77.0053 74.5521 75.8142 74.3286 74.6702 73.745C74.1744 73.4784 73.6246 73.3253 73.0613 73.297C72.4979 73.2687 71.9353 73.366 71.4149 73.5815C70.3215 74.0302 69.1055 74.0918 67.9717 73.7561C67.0056 73.4745 65.9855 73.4256 64.9965 73.6135C63.8403 73.838 62.6464 73.7808 61.5175 73.4468C60.3741 73.1141 59.1741 73.017 57.9914 73.1615C55.6867 73.4217 53.3527 73.1324 51.1837 72.3177C50.0676 71.9087 48.9278 71.7229 47.7317 71.8914C46.1446 72.1203 44.5263 72.0034 42.9895 71.5491C42.1586 71.3031 41.3816 71.4426 40.5955 71.7074C40.2204 71.8346 39.9821 72.1175 39.7061 72.3633C39.1575 72.4129 38.8961 72.1874 38.8444 71.5965C38.863 71.2322 38.864 70.8658 38.8827 70.5015C38.9371 69.544 39.3106 69.207 40.2781 69.2137Z" fill="#E9A95E"/>
<path d="M54.5098 54.9377C55.5301 55.3514 56.4669 55.9286 57.4508 56.4136C57.9953 56.683 58.5383 56.9551 59.0827 57.2259C59.8519 57.3998 60.4817 57.8683 61.1759 58.2007C61.585 58.3957 61.9732 58.6235 62.3922 58.8122C62.6255 58.9484 62.8647 59.074 63.0935 59.218C63.2256 59.3031 63.4161 59.3695 63.3653 59.5888C62.7186 60.5165 61.9482 61.3002 60.8776 61.763C60.1648 62.0686 59.39 62.2057 58.6145 62.1634C57.839 62.1212 57.0841 61.9007 56.4094 61.5196C55.7347 61.1384 55.1587 60.607 54.727 59.9672C54.2953 59.3275 54.0198 58.597 53.9221 57.8336C53.7895 56.7963 53.9049 55.8216 54.5098 54.9377Z" fill="#D56E7D"/>
<path d="M54.5115 54.9377C54.4449 55.4389 54.1903 55.8792 54.0962 56.3843C53.6451 58.8787 55.3136 61.2969 57.7232 61.9035C59.6718 62.3936 61.7934 61.5845 62.967 59.8825C63.0659 59.7387 63.1467 59.5467 63.3726 59.5337C63.5032 59.4604 63.62 59.5258 63.7393 59.5697C63.8585 59.6135 64.0158 59.6877 64.1502 59.7553C64.8288 60.0978 64.8551 60.1965 64.4387 60.8396C64.2248 61.1492 63.9908 61.4446 63.7382 61.7241C63.5422 61.8739 63.3908 62.0854 63.1386 62.1579C61.7088 63.2384 60.1028 63.8137 58.3007 63.6353C56.7661 63.4945 55.332 62.8179 54.2544 61.7262C53.1768 60.6345 52.526 59.1988 52.4182 57.6755C52.3993 57.4041 52.3786 57.1407 52.3596 56.8733C52.4467 56.1277 52.6217 55.3948 52.8808 54.6895C53.0368 54.3078 53.1819 54.1393 53.5892 54.4235C53.8864 54.6122 54.1944 54.7839 54.5115 54.9377Z" fill="#DF535E"/>
<path d="M63.6478 59.6354L63.3623 59.5331L62.3585 58.9038C62.2061 58.3349 62.3962 57.8481 62.7317 57.3983C63.6218 55.3967 65.1181 54.137 67.3067 53.7262C68.3872 53.5235 69.4705 53.7199 70.5519 53.7391C70.7687 53.7432 70.7939 53.8649 70.7823 54.0388C70.7032 55.2912 70.7542 56.5611 70.3007 57.7677L70.1756 57.9724C70.1165 58.0198 70.0459 58.051 69.9708 58.0629C69.8957 58.0748 69.8187 58.067 69.7476 58.0402C68.987 57.8318 68.1929 57.7712 67.409 57.8619C67.3252 57.8657 67.2414 57.8532 67.1625 57.8251C66.8244 57.6553 67.0649 57.4916 67.1861 57.3638C67.4814 57.0608 67.8117 56.7933 68.1239 56.5088C68.2307 56.4251 68.3245 56.3264 68.4023 56.2157C68.4402 56.1691 68.4594 56.1102 68.4561 56.0503C68.4529 55.9905 68.4275 55.934 68.3848 55.8916C68.3423 55.8491 68.2857 55.8233 68.2255 55.8187C68.1653 55.8142 68.1055 55.8314 68.0571 55.867C67.9276 55.948 67.8082 56.0437 67.7012 56.1521C66.7676 56.987 65.8345 57.8229 64.9017 58.6597C64.4682 58.9679 64.1722 59.4453 63.6478 59.6354Z" fill="#74A98C"/>
<path d="M80.042 74.4693C80.287 74.4731 80.5275 74.4041 80.7326 74.2712C80.9376 74.1384 81.0979 73.9477 81.1926 73.7238C81.8035 75.8697 82.4144 78.0148 83.0254 80.159C83.1122 80.465 83.1851 80.7743 83.2635 81.0826L79.71 80.9041C79.7204 80.3271 79.9714 79.7973 80.0548 79.2348C81.2395 78.3827 81.2396 77.0194 80.0551 76.1065C80.1992 75.5579 80.0865 75.0139 80.042 74.4693Z" fill="#808080"/>
<path d="M38.8495 71.5981C39.0077 71.9482 39.1889 72.2738 39.6101 72.3653C39.7495 72.9123 39.8374 73.4709 39.8728 74.0339C39.8642 74.0484 39.8529 74.0611 39.8395 74.0715C38.8014 74.6455 38.6346 74.9983 38.742 76.2074C38.795 76.7984 39.2475 76.9983 39.6621 77.2463C39.6857 77.2908 39.7143 77.345 39.6919 77.3831C39.4452 77.8562 39.4751 78.3663 39.4791 78.8737L36.0346 78.7006C36.9463 76.3282 37.8678 73.9508 38.8495 71.5981Z" fill="#808080"/>
<path d="M62.7316 57.3983C62.6058 57.8996 62.4814 58.4015 62.3583 58.9038C61.224 58.4235 60.1579 57.8114 59.0795 57.2257L62.7316 57.3983Z" fill="#F3B462"/>
<path d="M39.4823 78.8833C39.1784 78.3135 39.3197 77.7932 39.6698 77.2995C39.8784 76.9042 40.2611 76.8937 40.6367 76.8896C41.101 76.8845 41.5391 77.0472 41.9887 77.1428C42.9428 77.3471 43.9372 77.2588 44.8394 76.8897C46.1392 76.3761 47.3881 76.4321 48.6203 77.0796C49.4057 77.4951 50.2642 77.71 51.1332 77.5602C52.5591 77.3026 54.0265 77.3855 55.4136 77.8023C56.2458 78.051 57.0982 78.0113 57.9398 77.8629C59.2795 77.624 60.6537 77.6507 61.9829 77.9416C64.1754 78.4155 66.3662 78.3078 68.5376 77.7542C69.7048 77.4585 70.8776 77.3713 72.0667 77.661C73.6385 78.0512 75.2774 78.0966 76.8687 77.794C77.8692 77.6076 78.7491 77.9114 79.5899 78.3932C79.9108 78.5771 80.1546 78.8273 80.1085 79.247C80.1231 79.8199 79.9858 80.3866 79.7105 80.8906C79.558 80.8829 79.4048 80.8901 79.2523 80.8824L39.8893 78.9051C39.754 78.9091 39.6184 78.8902 39.4823 78.8833Z" fill="#8B6239"/>
<path d="M67.0182 57.7083C68.0767 57.5988 69.1465 57.6883 70.1715 57.9722C71.4584 58.4831 72.4324 59.4288 73.4653 60.2908C73.6578 60.4506 73.7074 60.5735 73.521 60.7751C73.0642 61.2729 72.6493 61.8065 72.1729 62.2871C69.7111 64.7818 66.2213 64.8797 63.5945 62.5446C63.443 62.4098 63.2828 62.2868 63.127 62.1573C63.2641 61.97 63.4358 61.8102 63.6329 61.6863C64.0316 61.3912 64.5099 61.4599 64.9567 61.4242C66.6013 61.2958 68.2382 61.1833 69.8771 61.0573C69.911 61.057 69.9449 61.0547 69.9785 61.0502C70.1727 61.0167 70.4557 61.035 70.4258 60.7643C70.396 60.4937 70.1151 60.5418 69.9247 60.5539C69.0099 60.6134 68.0973 60.6825 67.1849 60.7476C66.408 60.8046 65.6306 60.8724 64.8559 60.9146C64.6725 60.9243 64.4801 60.9755 64.33 60.8152C64.6867 60.1663 64.6867 60.1663 64.0078 59.8279C63.8881 59.7678 63.7714 59.6997 63.6518 59.6369C64.0133 59.266 64.4037 58.9238 64.8193 58.6136C65.4931 58.1713 66.1778 57.754 67.0182 57.7083Z" fill="#588870"/>
<path d="M39.8324 74.0454C39.6408 73.4948 39.52 72.9478 39.6099 72.3639C40.1691 71.5454 41.5889 71.0351 42.6348 71.3216C43.8568 71.6777 45.1245 71.8562 46.3982 71.8515C46.9571 71.8395 47.5148 71.7962 48.0688 71.7217C49.1616 71.5724 50.1987 71.7909 51.2042 72.1741C52.5556 72.6731 53.9711 72.9814 55.4092 73.09C56.5235 73.1879 57.6448 73.067 58.7571 72.9646C59.7269 72.8714 60.6441 73.0594 61.5606 73.3138C62.7052 73.6395 63.9121 73.6871 65.0793 73.4526C66.1713 73.237 67.2381 73.3826 68.296 73.6751C69.2689 73.9477 70.3067 73.8814 71.2362 73.4874C71.8115 73.2341 72.4389 73.1187 73.0675 73.1502C73.6962 73.1818 74.3086 73.3596 74.855 73.6692C75.9909 74.2794 77.2071 74.3851 78.4562 74.1422C79.0422 74.0283 79.5672 74.0912 80.0393 74.4679C80.3207 74.9973 80.43 75.5289 80.0693 76.0694C79.9859 76.2954 79.8175 76.4807 79.5995 76.5867C79.3814 76.6927 79.1305 76.7111 78.8991 76.6381C77.8687 76.3673 76.9655 76.6262 76.058 77.0756C75.0217 77.5889 73.987 77.537 72.9185 77.0762C71.3457 76.3918 69.5747 76.3005 67.9386 76.8193C66.8683 77.1428 65.8199 77.2254 64.7386 76.883C63.6778 76.5645 62.5555 76.5016 61.4652 76.6997C60.5017 76.8555 59.5625 76.8043 58.7266 76.228C57.8261 75.608 56.898 75.5519 55.8744 75.9495C55.2416 76.202 54.5642 76.3265 53.8821 76.3154C53.2 76.3044 52.527 76.1581 51.9029 75.8853C50.3123 75.2265 48.68 75.089 47.032 75.6582C45.1575 76.3052 43.3084 76.0567 41.4736 75.5291C40.7068 75.3093 40.0567 74.8898 39.8324 74.0454Z" fill="#8B6239"/>
<path d="M57.3513 60.4647C57.052 60.3644 56.8967 60.1713 57.0506 59.8572C57.2718 59.403 57.5236 58.9639 57.7554 58.5157C57.7766 58.4599 57.8103 58.4095 57.8539 58.3683C57.8976 58.3272 57.9501 58.2964 58.0075 58.2782C58.0649 58.26 58.1257 58.2549 58.1853 58.2633C58.245 58.2717 58.302 58.2933 58.352 58.3266C58.6181 58.4603 58.6072 58.6748 58.4703 58.9222C58.2364 59.3311 58.0265 59.7534 57.8032 60.1682C57.7662 60.2565 57.7034 60.332 57.6229 60.3848C57.5424 60.4376 57.4478 60.4654 57.3513 60.4647Z" fill="#EE9DAD"/>
<path d="M60.3313 60.31C60.3469 60.6462 60.2447 60.8034 60.0506 60.8626C60.0057 60.8774 59.9582 60.8832 59.9111 60.8795C59.8639 60.8759 59.818 60.8629 59.776 60.8414C59.7339 60.8198 59.6967 60.7902 59.6664 60.7542C59.6361 60.7182 59.6134 60.6765 59.5996 60.6317C59.4422 60.2433 59.3071 59.8464 59.195 59.4428C59.1423 59.2468 59.2902 59.1027 59.4762 59.016C59.5128 58.9931 59.5541 58.9785 59.597 58.9732C59.64 58.9679 59.6836 58.972 59.7247 58.9853C59.7659 58.9986 59.8036 59.0208 59.8351 59.0502C59.8667 59.0795 59.8913 59.1155 59.9072 59.1554C60.0812 59.5698 60.2203 60.0002 60.3313 60.31Z" fill="#EE9CAC"/>
<path d="M56.6116 57.4994C56.8928 57.5 57.0272 57.6203 57.0815 57.8138C57.0959 57.8585 57.1012 57.9056 57.097 57.9524C57.0929 57.9992 57.0794 58.0447 57.0573 58.0863C57.0353 58.1279 57.0051 58.1646 56.9685 58.1945C56.9319 58.2244 56.8897 58.2468 56.8443 58.2603C56.4812 58.3936 56.1048 58.4937 55.7344 58.6103C55.4818 58.6923 55.3273 58.5642 55.2628 58.3567C55.1984 58.1493 55.2189 57.9352 55.4592 57.8526C55.8594 57.7145 56.2664 57.6038 56.6116 57.4994Z" fill="#EE9DAD"/>
<path d="M64.3274 60.8151L69.7628 60.3875C69.8136 60.382 69.8648 60.3805 69.9159 60.3831C70.2423 60.4062 70.7039 60.3212 70.682 60.8029C70.6626 61.182 70.2733 61.1882 69.9286 61.202C68.7032 61.2756 67.4799 61.3873 66.2547 61.4827L63.6361 61.6811L64.3274 60.8151Z" fill="#4E8165"/>
<path d="M67.0189 57.7083L64.8174 58.6108L67.9337 55.781C68.127 55.6054 68.3298 55.5899 68.5133 55.7912C68.6969 55.9925 68.6583 56.1866 68.4662 56.365L67.0189 57.7083Z" fill="#4E8265"/>
<path d="M39.8349 74.0456C40.5132 75.2752 41.7319 75.4933 42.9644 75.7351C44.3491 76.0135 45.7833 75.9256 47.1228 75.4801C48.6342 74.9782 50.2797 75.0493 51.7413 75.6797C52.4402 75.9866 53.1956 76.1468 53.9601 76.1503C54.7246 76.1538 55.4815 76.0005 56.1832 75.6999C56.9248 75.399 57.6992 75.4163 58.3772 75.8778C59.4229 76.5944 60.5242 76.7592 61.7571 76.5141C62.9595 76.277 64.1511 76.5424 65.3138 76.8686C66.1536 77.1029 66.9634 76.9623 67.7619 76.7211C69.5648 76.1665 71.3356 76.2366 73.0717 76.9878C73.5185 77.1935 74.005 77.3007 74.4977 77.3021C74.9903 77.3035 75.4774 77.199 75.9254 76.9959C76.6328 76.6961 77.2974 76.2182 78.141 76.3782C78.2423 76.3823 78.3431 76.3955 78.442 76.4177C79.0663 76.6736 79.6002 76.5381 80.0687 76.0774C80.8387 76.3406 81.0549 76.6504 81.0184 77.4438C81.0039 77.7271 81.0057 78.0126 80.975 78.2937C80.9067 78.8002 80.6574 79.1636 80.1064 79.2617C79.6323 78.3913 78.2827 77.7433 77.2047 77.9231C75.9521 78.1537 74.6724 78.2038 73.4052 78.0717C72.8508 78.0049 72.3007 77.9064 71.7578 77.7766C70.6669 77.5149 69.5986 77.6397 68.5426 77.9235C67.1462 78.2821 65.7055 78.4424 64.2636 78.3996C63.163 78.3809 62.0758 78.1545 60.9974 77.9421C60.0422 77.7507 59.1091 77.8472 58.1727 78.0071C57.0004 78.2178 55.794 78.1442 54.6566 77.7926C53.5934 77.4687 52.5172 77.508 51.4349 77.693C50.4392 77.8668 49.4134 77.6969 48.5289 77.2116C47.9824 76.902 47.3701 76.7243 46.7414 76.6927C46.1127 76.6611 45.4854 76.7766 44.9101 77.0298C43.7179 77.5218 42.497 77.5064 41.2791 77.1396C40.7078 76.9675 40.179 76.9775 39.6709 77.3049C38.8335 77.1046 38.5725 76.7642 38.61 75.9235C38.6204 75.7211 38.6307 75.5188 38.6409 75.3191C38.6899 74.4695 38.9887 74.1518 39.8349 74.0456Z" fill="#E9A95E"/>
<defs>
<clipPath id="clip0_4901_17492">
<rect width="63.3012" height="62.7285" fill="white" transform="matrix(0.997289 -0.073578 0.0749351 0.997188 0 11.5574)"/>
</clipPath>
<clipPath id="clip1_4901_17492">
<rect width="34.8156" height="34.5007" fill="white" transform="matrix(0.997289 -0.073578 0.0749351 0.997188 14.6963 24.1012)"/>
</clipPath>
<clipPath id="clip2_4901_17492">
<rect width="51.1283" height="53.0776" fill="white" transform="matrix(0.997703 0.0677359 -0.0689862 0.997618 60.8789 14.1373)"/>
</clipPath>
</defs>
</svg>
