<svg width="115" height="94" viewBox="0 0 115 94" fill="none" xmlns="http://www.w3.org/2000/svg">
<g clip-path="url(#clip0_4901_17460)">
<path d="M101.149 21.981C101.996 22.7268 102.839 23.4786 103.695 24.2126C103.786 24.2819 103.857 24.3742 103.9 24.4799C103.943 24.5857 103.957 24.7009 103.939 24.8136C103.268 32.4123 102.601 40.0114 101.939 47.6108C101.833 48.8173 100.63 49.8062 99.4044 49.7011C86.3797 48.584 73.352 47.4665 60.3214 46.3489C59.0735 46.2418 58.0787 45.0555 58.1871 43.8141C58.8484 36.2456 59.5066 28.6768 60.162 21.1078C60.1641 20.9785 60.2014 20.8522 60.27 20.7422C60.3387 20.6323 60.436 20.5427 60.5518 20.4831C61.5098 19.911 62.4577 19.3229 63.409 18.7401C63.5967 18.96 63.5223 19.2166 63.5022 19.4603C63.3812 20.9229 63.2534 22.3858 63.1188 23.849C63.0336 24.6876 62.9939 25.5302 62.9999 26.373C63.1599 28.5079 63.9746 30.5434 65.3348 32.2066C66.5242 33.6223 67.9663 34.6897 69.7265 35.3138C70.3874 35.5832 71.088 35.7187 71.7766 35.8609C72.3118 35.9697 72.4082 35.8987 72.4568 35.3429C72.6813 32.8456 72.8939 30.3397 73.1124 27.8381C73.1593 27.5779 73.1584 27.3123 73.2014 27.0517C73.2742 26.6506 73.496 26.2911 73.8231 26.044C74.1501 25.797 74.5588 25.6803 74.9684 25.717C75.378 25.7537 75.7589 25.9412 76.0359 26.2424C76.3129 26.5436 76.466 26.9367 76.4649 27.3442C76.4554 27.6857 76.3726 28.0233 76.4202 28.3646C76.4687 30.3531 77.1849 32.0981 78.3823 33.6693C78.526 33.8351 78.6823 33.9899 78.8498 34.1322C80.009 35.4245 81.5609 36.3084 83.2713 36.6505C84.0286 36.806 84.7965 36.8971 85.5554 37.0339C85.8305 37.0827 85.9802 36.9974 86.0122 36.7182C86.0258 36.5621 86.0458 36.4066 86.0593 36.2517C86.2702 33.8375 86.481 31.4246 86.6922 29.0079C86.7418 28.7454 86.746 28.479 86.7842 28.2155C86.8119 28.0016 86.8821 27.7952 86.9908 27.6083C87.0996 27.4215 87.2446 27.2578 87.4177 27.127C87.5907 26.9961 87.7882 26.9005 87.9988 26.8459C88.2094 26.7912 88.4288 26.7785 88.6444 26.8085C89.5463 26.9072 90.1053 27.602 90.0482 28.5458C90.0286 28.8725 89.9584 29.1962 90.0033 29.5259C90.0505 31.5143 90.7666 33.2606 91.9639 34.8329C92.1076 34.9992 92.2638 35.1543 92.4313 35.2971C93.5909 36.5903 95.1438 37.4743 96.8553 37.8156C97.6139 37.97 98.3804 38.0635 99.1407 38.1979C99.4184 38.2469 99.5614 38.1509 99.593 37.8756C99.608 37.7045 99.6292 37.5339 99.6443 37.3615C99.8565 34.9324 100.059 32.5023 100.289 30.0747C100.488 27.6205 100.699 25.1677 100.921 22.7164C100.947 22.4594 100.915 22.1773 101.149 21.981Z" fill="#EBAA2C"/>
<path d="M76.3187 28.4214C76.5104 26.6926 77.3699 25.3432 78.7295 24.2871C79.0088 24.0707 78.9832 23.7527 79.0346 23.484C79.4375 21.387 79.808 19.2835 80.1896 17.1822C80.2342 16.9343 80.2882 16.6936 80.3374 16.4499C80.5041 16.2868 80.7145 16.32 80.9138 16.3358C82.0497 16.4257 83.1841 16.523 84.317 16.6277C84.5162 16.6448 84.7291 16.6492 84.865 16.8383C84.8873 18.6572 84.9095 20.4765 84.9317 22.2962C84.9408 22.9957 84.9474 23.6955 84.9515 24.3954C84.9425 24.464 84.9478 24.5337 84.9668 24.6002C84.9859 24.6668 85.0184 24.7288 85.0624 24.7824C86.1106 25.9016 86.7228 27.3537 86.7897 28.8791C86.7873 28.9066 86.8166 28.9343 86.8307 28.9619C86.5996 31.6071 86.3719 34.2527 86.1475 36.8985C86.1343 37.0496 86.1914 37.2973 85.9007 37.2384C84.9773 37.051 84.0266 37.0173 83.122 36.7308C82.9717 36.5179 83.0268 36.2797 83.0469 36.0499C83.1909 34.4013 83.3351 32.7515 83.4791 31.1029C83.5606 30.17 83.165 29.4503 82.3579 28.9935C81.067 28.2599 79.4337 29.1202 79.2496 30.6319C79.1282 31.6281 79.0756 32.6227 78.9773 33.6171C78.9589 33.8282 78.9816 34.0629 78.7764 34.2165C77.3835 32.8475 76.6573 31.1595 76.38 29.2609C76.3396 28.9818 76.3376 28.6998 76.3187 28.4214Z" fill="#07CA28"/>
<path d="M98.449 18.0034C98.4713 19.8223 98.4935 21.6416 98.5157 23.4613C98.5249 24.1609 98.5315 24.8606 98.5355 25.5606C98.5265 25.6292 98.5318 25.6988 98.5508 25.7654C98.5699 25.8319 98.6024 25.8939 98.6464 25.9476C99.6946 27.0668 100.307 28.5189 100.374 30.0442C100.371 30.0717 100.401 30.0994 100.415 30.127C100.184 32.7723 99.9559 35.4178 99.7315 38.0636C99.7183 38.2147 99.7754 38.4625 99.4847 38.4035C98.5613 38.2161 97.6106 38.1824 96.7059 37.8972C96.5557 37.683 96.6108 37.4449 96.6309 37.2151C96.7749 35.5665 96.919 33.9179 97.063 32.2693C97.1446 31.3351 96.7491 30.6154 95.9418 30.1599C94.6509 29.4263 93.0189 30.2866 92.8335 31.7983C92.7121 32.7945 92.6595 33.7891 92.5612 34.7835C92.5428 34.9946 92.5656 35.2281 92.3603 35.3828C90.9628 34.0085 90.2361 32.3267 89.9541 30.4226C89.9147 30.1475 89.9139 29.8655 89.8939 29.5857C90.0855 27.8582 90.9451 26.5075 92.3047 25.4514C92.584 25.2351 92.5584 24.917 92.6098 24.6484C93.0127 22.5514 93.3832 20.4479 93.7648 18.3465C93.8093 18.0987 93.8634 17.858 93.9126 17.6143C94.0793 17.4512 94.2897 17.4843 94.489 17.5002C95.6249 17.59 96.7593 17.6874 97.8922 17.7921C98.1013 17.8113 98.3131 17.8143 98.449 18.0034Z" fill="#07CA28"/>
<path d="M71.2879 15.6738C71.311 17.4928 71.3333 19.312 71.3546 21.1317C71.3629 21.8312 71.3695 22.5309 71.3744 23.231C71.3655 23.2995 71.3707 23.3692 71.3898 23.4357C71.4088 23.5023 71.4414 23.5643 71.4854 23.618C72.5335 24.7372 73.1457 26.1892 73.2127 27.7146C73.2103 27.7421 73.2396 27.7698 73.2537 27.7974C73.0227 30.4418 72.7968 33.0854 72.5761 35.7282C72.557 35.9467 72.5513 36.1274 72.2358 36.0765C71.3186 35.9349 70.4062 35.7811 69.5591 35.375C69.4102 35.1609 69.4717 34.9221 69.4918 34.6923C69.6305 33.1049 69.7692 31.5175 69.9078 29.9301C69.9862 29.0334 69.6128 28.3357 68.8588 27.8671C67.5808 27.073 65.8823 27.9088 65.6749 29.4249C65.5754 30.1713 65.544 30.9236 65.4678 31.6645C65.4493 31.8768 65.4746 32.1105 65.2669 32.2638C63.8501 30.6021 63.1007 28.6705 62.9015 26.5169C63.181 25.1354 63.9855 24.0807 65.0432 23.1962C65.2189 23.0724 65.3387 22.8853 65.377 22.675C65.6582 21.1124 65.9558 19.5525 66.2484 17.9909C66.4188 17.0878 66.5899 16.1856 66.7617 15.2843C66.9284 15.1212 67.1388 15.1543 67.3381 15.1702C68.474 15.2601 69.6084 15.3574 70.7413 15.4621C70.9403 15.4817 71.1521 15.4847 71.2879 15.6738Z" fill="#07CA28"/>
<path d="M78.7751 34.2139C78.8755 33.064 78.9802 31.9141 79.0892 30.7641C79.2144 29.4172 80.2698 28.486 81.5495 28.592C82.8292 28.698 83.731 29.7857 83.6133 31.1333C83.4503 32.9992 83.2873 34.8651 83.1244 36.7298C81.4379 36.3799 79.9117 35.497 78.7751 34.2139Z" fill="#E1E1E1"/>
<path d="M92.3551 35.3787C92.4556 34.2288 92.5603 33.0789 92.6692 31.929C92.7945 30.582 93.8511 29.6509 95.1296 29.7568C96.408 29.8627 97.3111 30.9506 97.1933 32.2994C97.0304 34.1641 96.8674 36.03 96.7044 37.8959C95.0181 37.5447 93.4922 36.6615 92.3551 35.3787Z" fill="#E1E1E1"/>
<path d="M65.2625 32.2646C65.3413 31.3629 65.4277 30.4618 65.5127 29.5606C65.6389 28.2477 66.7011 27.3246 67.9634 27.4266C69.2509 27.5308 70.1449 28.6204 70.0365 29.9637C69.8788 31.7684 69.7213 33.5719 69.5636 35.3766C68.2264 34.9108 67.0851 34.1372 66.0741 33.1647C65.781 32.8854 65.4662 32.6231 65.2625 32.2646Z" fill="#E1E1E1"/>
<path fill-rule="evenodd" clip-rule="evenodd" d="M76.3144 27.7113C76.2833 27.9474 76.2522 28.1836 76.3202 28.4215C76.3727 28.3916 76.4164 28.3485 76.4468 28.2966C76.4772 28.2446 76.4932 28.1856 76.4933 28.1256C76.7071 26.7687 77.4178 25.5374 78.4896 24.6667C78.9544 24.2737 79.1143 23.8105 79.213 23.2615C79.4279 22.0685 79.6493 20.8765 79.8709 19.6844C79.9825 19.0836 80.0941 18.4829 80.2049 17.8819C80.227 17.761 80.2574 17.6401 80.2879 17.5189C80.3781 17.1605 80.4692 16.7984 80.3505 16.4196C79.7398 16.142 79.7398 16.142 79.8023 15.4264C79.8072 15.3742 79.8114 15.3219 79.8156 15.2697C79.8277 15.1196 79.8398 14.9696 79.8678 14.8217C79.9995 14.1133 80.5287 13.6378 81.2552 13.6661C82.3247 13.7062 83.3939 13.7942 84.4542 13.9405C85.172 14.0385 85.6104 14.6021 85.6096 15.3243C85.609 15.5706 85.5837 15.8161 85.5584 16.0611C85.5485 16.1576 85.5385 16.2541 85.5301 16.3505C85.5122 16.5843 85.4239 16.7378 85.1566 16.73C85.0456 16.7221 84.9351 16.7506 84.8422 16.8112C84.7294 16.9386 84.7327 17.0931 84.7361 17.2477C84.7368 17.2805 84.7375 17.3132 84.7371 17.3458C84.726 18.1109 84.7383 18.8759 84.7507 19.6411C84.7574 20.06 84.7641 20.4789 84.7671 20.898C84.7689 21.1685 84.7698 21.439 84.7707 21.7097C84.7736 22.5601 84.7765 23.4111 84.8071 24.2623C84.8139 24.5432 84.9192 24.8129 85.1049 25.0252C85.9584 26.0183 86.4916 27.2422 86.6355 28.5388C86.6386 28.5679 86.6397 28.5984 86.6407 28.6294C86.6455 28.7659 86.6504 28.9099 86.8316 28.9696C86.8411 28.8826 86.85 28.7956 86.859 28.7087C86.8739 28.5637 86.8889 28.4186 86.9063 28.2738C87.0099 27.4082 87.7313 26.8548 88.635 26.9474C89.4719 27.0343 89.9791 27.6679 89.9276 28.533C89.9211 28.6377 89.9065 28.7423 89.8918 28.8471C89.857 29.0954 89.8221 29.3442 89.8958 29.5948C90.033 29.5361 90.0578 29.4124 90.0775 29.2882C90.2913 27.9314 91.002 26.7 92.0738 25.8293C92.5386 25.4363 92.6984 24.9731 92.7972 24.4242C93.012 23.2311 93.2335 22.0391 93.4551 20.847C93.5667 20.2463 93.6783 19.6455 93.7891 19.0445C93.8112 18.9236 93.8416 18.8028 93.8721 18.6815C93.9623 18.3231 94.0534 17.961 93.9346 17.5823C93.6371 17.447 93.4845 17.3777 93.4135 17.2593C93.3388 17.1348 93.3544 16.956 93.3865 16.589C93.3913 16.5368 93.3956 16.4846 93.3998 16.4324C93.4119 16.2822 93.424 16.1323 93.452 15.9844C93.5837 15.2759 94.1129 14.8004 94.8394 14.8287C95.9089 14.8689 96.9781 14.9568 98.0384 15.1031C98.7562 15.2012 99.1946 15.7648 99.1938 16.4869C99.1932 16.7333 99.1679 16.9788 99.1426 17.2237C99.1326 17.3203 99.1227 17.4168 99.1143 17.5132C99.0964 17.7469 99.008 17.9004 98.7408 17.8926C98.6298 17.8847 98.5193 17.9133 98.4264 17.9738C98.3136 18.1012 98.3169 18.2557 98.3202 18.4104C98.3209 18.4431 98.3216 18.4759 98.3212 18.5084C98.3102 19.2735 98.3225 20.0385 98.3348 20.8038C98.3416 21.2226 98.3483 21.6415 98.3512 22.0606C98.3531 22.3311 98.354 22.6016 98.3549 22.8722C98.3578 23.7227 98.3607 24.5737 98.3913 25.4249C98.3981 25.7058 98.5034 25.9756 98.6891 26.1878C99.5426 27.1809 100.076 28.4049 100.22 29.7014C100.223 29.7305 100.224 29.7611 100.225 29.792C100.23 29.9285 100.235 30.0726 100.416 30.1322C100.422 30.0707 100.43 30.0091 100.437 29.9474C100.45 29.8391 100.464 29.7307 100.473 29.6225C100.702 27.0777 100.928 24.5327 101.15 21.9874C101.488 18.0469 101.83 14.1071 102.174 10.168C102.382 7.75734 101.042 6.17025 98.6173 5.96224L68.6827 3.39466C66.2588 3.18675 64.6615 4.52069 64.4509 6.93238C64.1008 10.8718 63.7536 14.8111 63.4095 18.7502C63.3658 19.2574 63.3217 19.7645 63.2776 20.2715C63.1378 21.8773 62.9981 23.4827 62.8722 25.09C62.847 25.4179 62.8634 25.7489 62.8797 26.0796C62.8871 26.2279 62.8944 26.3762 62.898 26.5241C63.0198 26.4763 63.0512 26.3678 63.0817 26.2624C63.0855 26.2494 63.0892 26.2365 63.0931 26.2238C63.4112 25.1518 64.0465 24.199 64.9169 23.4887C65.39 23.1027 65.5403 22.6324 65.6391 22.0834C65.8417 20.9629 66.0493 19.8428 66.2569 18.7226C66.3815 18.0505 66.506 17.3784 66.6295 16.7062C66.6517 16.5867 66.6821 16.4672 66.7125 16.3471C66.8037 15.988 66.896 15.6243 66.7749 15.2452C66.478 15.1121 66.3254 15.0437 66.2541 14.9259C66.1787 14.8014 66.1944 14.6217 66.2267 14.2519C66.2316 14.1997 66.2359 14.1475 66.2401 14.0952C66.2522 13.9451 66.2643 13.7952 66.2923 13.6473C66.4253 12.9389 66.9543 12.4646 67.6808 12.493C68.7504 12.5331 69.8196 12.6211 70.8798 12.7674C71.5914 12.8649 72.0297 13.4297 72.0289 14.1506C72.0274 14.3979 72.0023 14.6443 71.9772 14.8907C71.9674 14.9865 71.9577 15.0823 71.9493 15.1781C71.9314 15.4119 71.8432 15.5641 71.5759 15.5563C71.4649 15.5484 71.3544 15.577 71.2615 15.6375C71.1487 15.7649 71.1521 15.9194 71.1554 16.074C71.1561 16.1068 71.1568 16.1396 71.1564 16.1721C71.1454 16.9372 71.1577 17.7022 71.17 18.4674C71.1767 18.8863 71.1835 19.3052 71.1864 19.7243C71.1882 20.0006 71.1891 20.277 71.1899 20.5534C71.1925 21.398 71.1951 22.2432 71.2264 23.0886C71.2332 23.3695 71.3385 23.6393 71.5243 23.8515C72.3777 24.8446 72.9109 26.0686 73.0549 27.3651C73.0579 27.3942 73.059 27.4248 73.0601 27.4557C73.0648 27.5922 73.0697 27.7363 73.2509 27.7959C73.2596 27.7132 73.2692 27.6304 73.2788 27.5475C73.2943 27.4141 73.3099 27.2804 73.3216 27.1464C73.4186 26.2827 74.1178 25.6934 74.9661 25.7662C75.8143 25.8389 76.3946 26.538 76.3467 27.4059C76.3412 27.5077 76.3278 27.6095 76.3144 27.7113ZM87.6984 8.02797L83.4129 7.66039L79.0756 7.28837C78.0369 7.20053 77.3035 7.74538 77.2248 8.64711C77.1543 9.5269 77.7834 10.1899 78.7917 10.2764L87.4624 11.0201C88.4671 11.105 89.2039 10.5793 89.2886 9.68186C89.3734 8.78442 88.7345 8.11684 87.6984 8.02797Z" fill="#B87A0A"/>
<path d="M71.2878 15.6738L66.7501 15.2846C65.9971 15.1823 66.0427 15.1837 66.0626 14.4329C66.0963 12.7245 66.8527 12.1477 68.4831 12.397C69.1973 12.5073 69.9245 12.5269 70.6453 12.5913C71.7015 12.6819 72.2416 13.3322 72.1554 14.3918L72.1065 14.9513C72.0435 15.7009 72.0435 15.7009 71.2878 15.6738Z" fill="#E1E1E1"/>
<path d="M84.8684 16.8386L80.337 16.4499C79.584 16.3476 79.6296 16.349 79.6495 15.5982C79.6832 13.8899 80.4396 13.313 82.07 13.5623C82.7842 13.6727 83.5114 13.6923 84.2322 13.7566C85.2885 13.8472 85.8285 14.4975 85.7423 15.5571C85.726 15.7432 85.7095 15.9318 85.6934 16.1166C85.6241 16.8657 85.6241 16.8657 84.8684 16.8386Z" fill="#E1E1E1"/>
<path d="M98.4489 18.0034L93.9112 17.6142C93.1582 17.5119 93.2051 17.5134 93.2237 16.7625C93.2574 15.0541 94.0139 14.4773 95.6442 14.7266C96.3584 14.8369 97.0856 14.8565 97.8064 14.9209C98.8627 15.0115 99.4027 15.6618 99.3165 16.7214C99.3002 16.9075 99.2838 17.0961 99.2676 17.2809C99.2047 18.0305 99.2047 18.0305 98.4489 18.0034Z" fill="#E1E1E1"/>
</g>
<g clip-path="url(#clip1_4901_17460)">
<path d="M69.6625 59.7219C69.3159 60.8425 68.528 61.3638 67.3673 61.3896C67.1954 61.4063 67.0249 61.4359 66.8575 61.4781L66.7374 61.5061C66.4847 61.5559 66.2282 61.5847 65.9706 61.5922L13.687 65.5991C13.3034 65.6285 12.9177 65.6973 12.5326 65.6176C12.2055 65.5481 11.9004 65.4008 11.6437 65.1884C11.3869 64.976 11.1862 64.7049 11.0588 64.3984C10.9315 64.092 10.8813 63.7594 10.9127 63.4295C10.944 63.0995 11.056 62.7821 11.2388 62.5045C11.3527 62.3403 11.4854 62.1898 11.6344 62.056C10.246 62.1881 8.90594 62.2771 7.56678 62.378C7.33013 62.4211 7.08576 62.3871 6.8702 62.2812C6.83365 61.8129 7.2245 61.899 7.46198 61.874C8.67507 61.7469 9.89424 61.6757 11.1114 61.579C12.084 61.5044 12.084 61.5044 12.3138 60.5856C12.4181 60.4445 12.5051 60.5215 12.591 60.6071C12.8997 61.4505 12.8999 61.4521 13.8484 61.3777C14.2919 61.3438 14.7396 61.3419 15.1823 61.2755C16.087 61.1482 17.0003 61.3069 17.9071 61.2067C23.8745 60.7493 29.8431 60.3073 35.8075 59.8109C35.9136 59.8028 36.0185 59.7777 36.124 59.7611C36.9214 59.7597 37.7146 59.6596 38.5129 59.6258C39.7492 59.4645 41.0106 59.5368 42.229 59.213C43.167 59.3578 44.0934 59.1759 45.0198 59.1066C45.8418 59.0436 46.6756 59.0668 47.483 58.8632C47.8337 58.7629 48.2014 58.7348 48.5635 58.7804C49.4882 58.8427 50.3994 58.6653 51.3177 58.6239C52.0249 58.5919 52.7272 58.4972 53.4356 58.4804C56.2093 58.2866 58.9769 58.037 61.7489 57.8433C63.3894 57.7415 65.0212 57.5498 66.6613 57.4429C66.9571 57.3951 67.2596 57.4085 67.5498 57.4824C68.5039 57.5236 69.1723 57.9878 69.5828 58.8337L69.6625 59.7219Z" fill="#F06B38"/>
<path d="M5.08093 59.6278C4.50734 59.7383 4.0163 59.4721 3.50423 59.2895L3.48436 59.035C3.54512 59.0185 3.60452 58.9974 3.66203 58.9719C5.04386 58.2481 5.05374 58.2422 4.41971 56.8503C4.24079 56.4561 4.36951 56.2073 4.67369 55.9774C4.77923 55.7406 5.00865 55.6565 5.21567 55.5502C5.64801 55.3293 5.73034 55.0157 5.49834 54.6034C5.4261 54.4724 5.35057 54.3434 5.28662 54.2083C5.00252 53.6139 5.09971 53.2702 5.65199 52.9087C5.72416 52.8622 5.79856 52.8224 5.87455 52.7807C6.69971 52.3181 6.69971 52.3181 6.28865 51.4655C6.21446 51.3358 6.14983 51.201 6.09524 51.0621C5.97904 50.699 6.15442 50.5183 6.50137 50.5275C6.84833 50.5368 7.26235 50.5887 7.52998 50.8395C8.27331 51.5353 9.0593 52.2038 9.60013 53.0858C9.64114 53.3393 9.61076 53.5991 9.51232 53.8367C9.00667 55.4354 8.50641 57.0372 7.99219 58.6366C7.92853 58.8361 7.88871 59.0542 7.69079 59.1888C6.84367 59.4364 5.99934 59.7417 5.08093 59.6278Z" fill="#D88800"/>
<path d="M22.5936 22.622C23.857 22.3443 25.0794 22.6022 26.2909 22.9173C27.1578 23.1444 27.9441 23.574 28.7459 23.9597C29.3859 24.0814 29.8489 24.5187 30.3046 24.9053C31.1715 25.6394 32.0576 26.3771 32.5838 27.424C32.4101 27.8691 31.9525 28.1636 31.9522 28.7115C31.9531 29.0323 32.0803 29.3383 32.0261 29.6583C32.0085 30.7127 32.0451 31.7562 32.6083 32.703C32.5694 32.9141 32.4478 33.1014 32.27 33.2239C30.9629 34.4001 29.3591 35.2042 27.6285 35.5509C27.2359 35.6291 26.8292 35.6001 26.452 35.467C26.0748 35.3339 25.7412 35.1016 25.4869 34.7951C24.3682 33.5495 24.151 32.1137 24.7585 30.5839C25.366 29.0541 25.4843 27.5465 24.7999 26.0167C24.5762 25.4867 24.2539 25.003 23.8498 24.591C23.2934 24.0315 22.865 23.36 22.5936 22.622Z" fill="#FC4343"/>
<path d="M47.3085 24.9813C47.0342 25.528 46.7545 26.0717 46.4839 26.6215C46.1114 27.4098 45.9379 28.2759 45.9782 29.1454C46.0168 29.221 45.9999 29.1147 46.0148 29.1955C46.2755 30.7031 47.0718 31.9683 47.8699 33.2333C48.0233 33.6312 48.1527 34.0309 48.014 34.4614C47.7606 34.7897 47.4317 34.6579 47.128 34.5856C45.581 34.2081 44.1346 33.5039 42.8878 32.521C42.1728 31.9443 41.501 31.317 40.8775 30.644C39.1341 28.8319 38.7609 26.3685 40.0955 24.1345C40.6518 23.206 41.1535 22.2408 42.0232 21.5324C42.8957 21.0846 43.8641 20.8512 44.8467 20.8517C46.0755 20.8156 47.1367 21.9427 47.3198 23.3385C47.3935 23.8839 47.3897 24.4369 47.3085 24.9813Z" fill="#FC4343"/>
<path d="M42.0189 21.5328C41.3693 22.523 40.6268 23.4487 40.0793 24.5113C39.0602 26.4839 39.2949 28.5858 40.7387 30.2451C42.0624 31.7549 43.5599 33.0209 45.4096 33.8332C46.2051 34.1819 47.0219 34.517 47.9215 34.5232C47.9825 34.5668 48.0315 34.625 48.0638 34.6923C48.0962 34.7596 48.1109 34.8339 48.1066 34.9084C48.2216 36.3811 46.8773 37.829 45.3906 37.8047C44.553 37.8193 43.7169 37.7279 42.9027 37.5328C40.2312 36.8518 38.0646 35.3998 36.3307 33.2899C36.1728 33.0989 35.9741 32.9144 36.0088 32.6318C36.6292 31.9955 36.7123 31.2279 36.5941 30.3972C36.5305 29.9583 36.5251 29.5132 36.4905 29.0704C36.5283 28.3848 36.182 27.8549 35.8088 27.3322C35.7773 27.2295 35.7852 27.1189 35.831 27.0216C36.6459 25.522 37.5805 24.1225 39.0751 23.1887C40.0151 22.5636 40.9032 21.8487 42.0189 21.5328Z" fill="#C82C2C"/>
<path d="M22.5936 22.622C22.6553 22.6395 22.7591 22.6452 22.7704 22.6802C23.1269 23.7162 24.0357 24.3685 24.5895 25.2631C25.6065 26.9039 25.7633 28.6482 24.9918 30.4158C24.7579 30.9162 24.6307 31.459 24.618 32.0103C24.6053 32.5616 24.7075 33.1096 24.918 33.62C25.5603 35.2281 26.8178 35.7359 28.485 35.1815C30.0071 34.6738 31.3989 33.8431 32.5635 32.7473C32.6844 32.7074 32.7381 32.7766 32.7733 32.8746C32.5756 33.8285 31.9336 34.5417 31.3578 35.2634C30.165 36.7516 28.6321 37.9373 26.8856 38.7228C26.0867 39.0224 25.2622 39.2501 24.4221 39.4031C23.2173 39.6371 22.1514 39.1556 21.5632 38.0861C21.0987 37.2896 20.9343 36.3558 21.099 35.4505C21.165 35.014 21.3206 34.5955 21.556 34.2207C22.0737 33.3277 22.4283 32.3976 22.461 31.3608C22.4642 31.211 22.5128 31.0657 22.6007 30.9438C22.5732 29.8321 22.1876 28.7582 21.5002 27.8791C21.2833 27.5937 21.094 27.2873 20.8916 26.9888C20.6193 26.0828 20.4944 25.1673 20.8423 24.2616C21.146 23.4294 21.6072 22.7403 22.5936 22.622Z" fill="#C82C2C"/>
<path d="M66.8631 61.4777C65.7457 66.3442 63.4299 70.8608 60.1223 74.6246C55.2743 80.1905 49.2003 83.6589 41.9003 85.0296C41.8367 85.0379 41.7727 85.0428 41.7085 85.0443C39.1953 85.0441 36.7654 84.522 34.3775 83.8106C31.7615 83.0443 29.2627 81.9296 26.9495 80.4969C26.6322 80.3191 26.3314 80.1137 26.0507 79.8831C25.7966 79.6516 25.6527 79.3742 25.748 79.029C25.8434 78.6837 26.1226 78.5309 26.4646 78.4774C26.8067 78.4239 27.1485 78.4113 27.4907 78.3817C27.8338 78.3603 28.1711 78.2838 28.4893 78.1549C29.0324 77.9188 29.2951 77.4446 29.1795 76.9346C29.0639 76.4246 28.6723 76.1303 28.0859 76.165C26.9068 76.1956 25.7301 76.2858 24.5603 76.4352C22.5362 76.7217 20.9996 76.1022 19.7216 74.4933C18.3937 72.8183 17.0831 71.1454 16.0154 69.2951C15.9237 69.1515 15.8455 68.9998 15.782 68.8419C15.5814 68.2804 15.8043 67.8708 16.3848 67.7375C16.659 67.6881 16.9365 67.6588 17.2151 67.65L37.7423 66.0768C38.1716 66.0669 38.5975 65.9986 39.008 65.874C39.9331 65.5437 40.1281 64.776 39.5058 64.0198C39.3993 63.8914 38.9988 63.7924 39.3616 63.5188C48.2542 62.8373 57.1468 62.1558 66.0394 61.4743C66.2911 61.455 66.5485 61.3755 66.8022 61.4705C66.8108 61.4768 66.821 61.4808 66.8317 61.4821C66.8423 61.4834 66.8532 61.4819 66.8631 61.4777Z" fill="#C54B1A"/>
<path d="M39.2248 63.5942C39.7564 63.8948 40.141 64.2988 40.0806 64.9589C40.0054 65.6952 39.472 65.9887 38.8307 66.1368C38.6008 66.184 38.3677 66.2144 38.1333 66.2278L17.0153 67.8462C16.8646 67.8578 16.7157 67.8692 16.565 67.8807C15.8814 67.9502 15.6605 68.3204 16.0017 68.9173C17.0502 70.7927 18.2956 72.5531 19.7172 74.1694C20.057 74.5495 20.4274 74.9035 20.7542 75.2949C21.515 76.2146 22.5599 76.3598 23.6568 76.2894C25.0914 76.1965 26.5232 76.0697 27.9564 75.9599C28.7681 75.8977 29.293 76.2671 29.4132 76.9679C29.5294 77.6178 29.1576 78.1071 28.4073 78.3814C27.848 78.5864 27.2677 78.5456 26.7025 78.6094C26.3611 78.6492 25.9843 78.632 25.876 79.055C25.7678 79.4781 26.0763 79.7224 26.3831 79.9242C27.7648 80.8139 29.2138 81.5964 30.7172 82.2649C33.7771 83.598 37.0234 84.464 40.3452 84.8331C40.8024 84.8868 41.2795 84.8195 41.7134 85.0371L41.6997 85.0382C41.4587 85.1727 41.1676 85.0636 40.9241 85.1881C33.9963 86.2432 26.9112 84.9797 20.7893 81.5976C14.6674 78.2155 9.85813 72.9077 7.12203 66.5136C7.07166 66.398 7.0396 66.2741 6.99938 66.156C6.90782 65.8217 7.17494 65.8012 7.3716 65.8049C9.12664 65.7797 10.8635 65.3888 12.6283 65.5557C12.8428 65.5614 13.0574 65.5484 13.2695 65.5168C21.669 64.8731 30.0679 64.2294 38.4662 63.5858C38.7164 63.57 38.9731 63.482 39.2248 63.5942Z" fill="#A52B2B"/>
<path d="M39.2248 63.5942C28.8082 64.3925 18.3917 65.1908 7.9751 65.9891C7.65661 66.0135 7.26899 65.7701 6.99912 66.1526C6.90891 66.0699 6.80965 65.9973 6.70319 65.9364C5.07879 65.2518 4.73425 64.104 5.73472 62.6875C5.98047 62.2829 6.29847 62.0315 6.80883 62.2143L12.0571 61.8121C12.1347 61.9905 11.995 62.0097 11.9251 62.0628C11.1555 62.6424 10.8965 63.4286 11.2094 64.2375C11.5542 65.1242 12.2178 65.5257 13.2195 65.4489C30.8152 64.1004 48.4097 62.752 66.0031 61.4037C66.2651 61.3836 66.5502 61.2406 66.8017 61.4603L39.2248 63.5942Z" fill="#E45920"/>
<path d="M40.9188 85.1884C41.1471 84.9833 41.4259 85.0711 41.6935 85.0386C41.4613 85.2167 41.185 85.1816 40.9188 85.1884Z" fill="#B23725"/>
<path d="M47.5197 58.997C47.3617 59.1798 47.1256 59.1347 46.9203 59.1521C45.5744 59.2553 44.2268 59.3586 42.881 59.4617C42.6481 59.4795 42.354 59.6182 42.2213 59.2648C42.0353 59.0879 42.057 58.837 41.9985 58.6162C41.7574 57.7352 41.1376 57.2758 40.2086 57.2906C39.954 57.2948 39.696 57.3436 39.4519 57.2172C38.7709 56.416 38.6228 55.4238 38.4761 54.4485C38.2266 52.7966 38.5344 51.2011 39.1448 49.6643C39.3496 49.1109 39.8648 48.9144 40.3293 48.6638C40.7983 48.411 41.2901 48.2019 41.7981 48.0392C42.13 47.9139 42.475 47.8257 42.8266 47.776C43.4434 47.5878 44.0918 47.523 44.7341 47.5854C45.4619 47.685 45.5795 47.8006 45.5438 48.5133C45.5365 48.6402 45.5083 48.7652 45.5062 48.8917C45.6809 50.225 46.309 50.8579 47.7487 51.1401C48.1089 51.2081 48.2627 51.4796 48.3657 51.7841C48.4864 52.1643 48.6971 52.5103 48.9802 52.7935C49.8465 53.5412 50.8405 53.675 51.8241 53.1678C52.8807 52.6243 52.9376 52.6472 53.3676 53.809C53.5162 54.2346 53.6076 54.6765 53.7208 55.1115C53.7807 55.5046 53.8047 55.9005 53.8272 56.2981C53.8873 56.7169 53.881 57.1424 53.8085 57.5592C53.7938 57.8219 53.7464 58.0818 53.6673 58.333C53.6232 58.4541 53.5471 58.5613 53.447 58.6434L48.9177 59.0093C48.8553 59.0238 48.7904 59.0238 48.728 59.0094C48.6656 58.9949 48.6074 58.9663 48.558 58.9259C48.6011 58.6615 48.8459 58.5762 49.0167 58.4248C49.634 57.8808 49.8151 57.133 49.499 56.4165C49.1938 55.7282 48.5381 55.3602 47.7339 55.4304C47.3793 55.4486 47.0399 55.5785 46.7651 55.8013C46.4902 56.0241 46.2944 56.328 46.2062 56.6689C46.0052 57.425 46.3001 58.1363 46.9945 58.5798C47.1809 58.6952 47.4361 58.7422 47.5197 58.997Z" fill="#F09A0B"/>
<path d="M12.3961 60.5588L7.74088 59.1354C7.98256 57.818 8.52209 56.587 8.87416 55.2936C9.08051 54.5387 9.42939 53.8225 9.49992 53.0268L11.4532 53.6213C11.4368 53.8529 11.2409 53.9243 11.0791 54.0152C10.8553 54.1204 10.6731 54.2963 10.5611 54.5153C10.4491 54.7343 10.4137 54.9839 10.4604 55.2249C10.5351 55.7842 10.8866 56.073 11.4002 56.2299C12.8246 56.6703 14.2591 57.0844 15.681 57.5353C15.9731 57.6 16.2512 57.7163 16.5019 57.8786C16.8268 58.2462 16.8494 58.7343 17.0123 59.1656C17.2751 59.8623 17.6707 60.4943 17.9534 61.1809C17.964 61.2471 17.953 61.3149 17.922 61.3745L15.1735 61.4725C14.261 61.3017 13.3431 61.1502 12.5359 60.6505L12.3961 60.5588Z" fill="#EBB600"/>
<path d="M39.2848 49.5836C39.0904 50.3153 38.8504 51.0369 38.7136 51.7779C38.3647 53.6152 38.642 55.5153 39.5022 57.1792C39.5561 57.3628 39.4147 57.4488 39.3026 57.5359C38.9941 57.7449 38.7597 58.0447 38.6323 58.3928C38.505 58.741 38.4912 59.1199 38.5928 59.4763C38.6097 59.5261 38.6147 59.5792 38.6074 59.6313C38.6001 59.6834 38.5807 59.7331 38.5508 59.7765C37.7708 59.8021 36.999 60.0661 36.2113 59.8397C36.1569 59.827 36.1058 59.803 36.0613 59.7693C36.0168 59.7357 35.98 59.6931 35.9532 59.6445C35.4948 58.4575 35.3306 57.1788 35.4744 55.9159C35.7726 53.6009 36.6693 51.583 38.4713 50.0197C38.7069 49.8156 38.9065 49.5255 39.2848 49.5836Z" fill="#C87F01"/>
<path d="M53.4411 58.6353L53.5303 58.3878C54.0258 58.2253 54.5538 58.2599 55.0566 58.2128C55.8448 58.1371 56.6346 58.0817 57.4264 58.0312C57.8716 57.9971 58.0805 57.8258 58.0418 57.3525C57.8963 55.5989 57.7678 53.8422 57.6313 52.0929C57.6003 51.6959 57.4151 51.5309 57.011 51.5619C54.5573 51.7499 52.1029 51.9516 49.6473 52.1159C49.0908 52.1586 49.0654 52.5838 48.8465 52.8908C48.5342 52.6059 48.3116 52.2377 48.2056 51.8305C48.1358 51.5764 48.0563 51.2855 47.688 51.2898C47.6767 50.8589 47.9879 50.7189 48.3233 50.6011C48.5716 50.5311 48.8281 50.4937 49.0863 50.4897C51.802 50.2816 54.5177 50.0734 57.2334 49.8653C58.6495 49.7568 59.1696 50.1965 59.2849 51.5856C59.434 53.3851 59.5661 55.1876 59.7066 56.9877C59.77 57.8004 59.8293 57.8317 60.6512 57.7909C60.9698 57.7442 61.2935 57.7436 61.6123 57.7889C61.6915 57.8141 61.7613 57.8623 61.8126 57.9272L61.7812 57.9671C60.6707 58.1939 59.5355 58.1717 58.4131 58.2696C56.7579 58.4033 55.0989 58.5117 53.4411 58.6353Z" fill="#F2D273"/>
<path d="M47.5199 58.997C46.0162 58.578 45.6163 57.1186 46.2603 56.0998C46.4703 55.7763 46.7722 55.5215 47.128 55.3676C47.4838 55.2137 47.8776 55.1675 48.2598 55.2348C48.6415 55.308 48.992 55.4937 49.2654 55.7675C49.5388 56.0414 49.7224 56.3906 49.7921 56.7696C49.8646 57.1374 49.8218 57.5185 49.6693 57.8615C49.5169 58.2045 49.2622 58.4931 48.9394 58.6885C48.8149 58.7714 48.6826 58.8413 48.5542 58.9177L47.5199 58.997Z" fill="#A52B2B"/>
<path d="M36.1084 59.7349C36.1437 59.7681 36.1774 59.803 36.2111 59.838C35.9727 60.027 35.6817 59.9844 35.4094 60.0053C29.5781 60.4624 23.7466 60.9173 17.9149 61.3699C17.9081 61.3376 17.9055 61.3045 17.9072 61.2715C18.1364 60.986 18.4764 61.0162 18.7861 60.9891C19.9718 60.8863 21.161 60.8071 22.3477 60.7161C24.7967 60.5114 27.2458 60.3305 29.6969 60.1529C30.4157 60.1371 31.1318 60.0429 31.8516 59.9963C32.2455 59.9661 32.4086 59.7829 32.3845 59.3854C32.3566 58.7344 32.2484 58.0893 32.0623 57.4643C31.9936 57.0702 31.6972 56.7379 31.7347 56.3135C31.8658 56.073 32.0443 56.1976 32.1605 56.2962C33.494 57.4246 34.9064 58.4599 36.1084 59.7349Z" fill="#473B82"/>
<path d="M38.5512 59.7748C38.1219 58.688 38.364 58.038 39.5027 57.1792C40.982 56.9754 41.7398 57.3269 42.1221 58.3849C42.2071 58.6695 42.2408 58.9668 42.2217 59.2631C42.1689 59.3544 42.0918 59.4296 41.999 59.4806C41.9061 59.5317 41.8009 59.5566 41.6948 59.5526C40.6457 59.6177 39.5979 59.6997 38.5512 59.7748Z" fill="#A62B2B"/>
<path d="M12.5374 60.6453C13.4367 60.8515 14.3186 61.1263 15.1751 61.4673C14.6477 61.5077 14.1212 61.56 13.5929 61.5885C12.5794 61.6457 12.5979 61.9054 12.5374 60.6453Z" fill="#C54F1E"/>
<path d="M61.4092 44.727C62.6515 45.1951 63.2067 46.0844 63.2904 47.3991C63.5 50.6362 63.768 53.8705 64.0478 57.1022C64.0899 57.6417 63.9417 57.817 63.4143 57.813C62.8869 57.809 62.3462 57.8778 61.8134 57.9152L61.7661 57.883C61.4903 57.6157 61.5177 57.2603 61.4916 56.926C61.2948 54.4048 61.0978 51.8819 60.901 49.3607C60.8006 48.0746 60.7914 48.0668 59.4644 48.1685C55.2498 48.4915 51.0358 48.8144 46.8224 49.1373C46.4611 49.165 46.096 49.2323 45.7353 49.1353C45.4117 48.9621 45.6007 48.8452 45.7926 48.7657C46.0745 48.6485 46.3824 48.6641 46.6798 48.6345C46.9772 48.6049 47.1402 48.4644 47.1394 48.1453C47.1391 46.7287 47.8785 45.851 49.1952 45.3968C49.7646 45.2949 50.3408 45.2342 50.9191 45.2152C54.0378 44.9762 57.1559 44.7372 60.2734 44.4983C60.6624 44.4719 61.0925 44.3553 61.4092 44.727Z" fill="#0190F7"/>
<path d="M61.4097 44.727C61.1804 44.6901 60.9485 44.6713 60.7163 44.6709C56.8293 44.9688 52.9438 45.2694 49.0595 45.5728C48.4899 45.7342 47.929 45.9632 47.3191 45.7847C47.2212 45.7408 47.1396 45.6677 47.0857 45.5756C46.5456 44.6594 46.7305 42.394 47.4049 41.5879C47.7749 41.1744 48.251 40.8678 48.7826 40.7006C50.2598 40.4713 51.7547 40.4455 53.2407 40.306C53.8991 40.2436 54.5603 40.2186 55.214 40.119C56.0882 40.1083 56.9579 40.0178 57.8284 39.9596C58.1246 39.9369 58.4257 39.8882 58.6978 40.0636C60.3313 40.0477 61.3665 40.9736 61.4782 42.5814C61.5289 43.2978 61.7113 44.0229 61.4097 44.727Z" fill="#6354AF"/>
<path d="M58.6939 40.0673C57.5534 40.1308 56.4209 40.3644 55.2629 40.2483C54.7583 39.9627 54.6603 39.3916 54.3701 38.9615C52.9796 36.9322 51.1207 35.2608 48.9476 34.086C48.5207 33.8474 48.0534 33.6647 47.7157 33.2878C47.3957 32.5203 46.7303 31.962 46.4313 31.1776C46.1804 30.5227 45.9635 29.8634 45.9718 29.1527C51.0876 30.872 55.3491 33.6722 57.9914 38.5048C58.2729 38.9987 58.4634 39.5422 58.6939 40.0673Z" fill="#C54B1A"/>
<path d="M22.5951 30.9375C22.7181 32.005 22.4203 32.9785 21.9154 33.9031C21.6426 34.4019 21.3484 34.8921 21.2518 35.4644C21.202 35.5331 21.1819 35.6285 21.1186 35.6778C19.8842 36.636 18.778 37.7346 17.647 38.8027C17.3301 38.716 17.1261 38.7505 17.1806 39.161C17.1926 39.3733 17.1401 39.5842 17.0297 39.7666C16.854 40.0531 16.733 40.3781 16.3771 40.5198C16.3373 40.5359 16.2963 40.5488 16.2544 40.5582C15.2049 40.7513 15.2049 40.7513 15.2447 41.8133C15.2784 42.6419 15.1235 42.8193 14.2968 42.91C14.1479 42.9214 13.9995 42.9413 13.8482 42.9444C13.3636 42.9815 13.1831 43.2514 13.219 43.7112C13.2323 43.8808 13.2455 44.0505 13.2468 44.2211C13.2561 44.5617 13.2772 44.9424 12.8883 45.1019C12.4689 45.2672 12.0228 45.356 11.5904 45.1127C11.5129 45.0691 11.5104 44.9703 11.5123 44.8848C12.0997 40.4721 14.3938 37.0243 17.7124 34.1688C19.1894 32.8834 20.8311 31.7969 22.5951 30.9375Z" fill="#C54B1A"/>
<path d="M16.9514 39.6855C16.9693 39.4964 16.9839 39.3075 17.0035 39.1183C17.0261 38.8998 16.8422 38.6186 17.1055 38.4824C17.3196 38.3789 17.4412 38.7007 17.643 38.7484C18.1119 38.8405 18.2779 39.2237 18.4221 39.5933C18.7366 40.4004 19.0394 41.2118 19.3722 42.0107C18.3352 43.3344 17.1895 44.5675 16.0955 45.8461C15.7796 46.2117 15.5374 46.662 15.0535 46.863C14.8963 46.8829 14.7367 46.8713 14.5841 46.829L12.7173 46.46C12.2359 46.3728 11.7823 46.1735 11.3938 45.8787C11.304 45.5442 11.0708 45.1832 11.4891 44.8934C11.9196 45.311 12.4252 45.0572 12.8517 44.9597C13.2782 44.8621 13.0004 44.4158 13.0173 44.1243C13.0163 43.913 12.9999 43.7021 12.968 43.4932C12.9335 43.0503 13.1378 42.8435 13.5789 42.779C14.0524 42.7103 14.6637 42.928 14.9689 42.5342C15.241 42.1805 14.9832 41.637 14.9663 41.1775C14.9494 40.718 15.1395 40.5054 15.5846 40.4696C15.8808 40.4469 16.1779 40.4139 16.4755 40.3859C16.7914 40.2405 17.0042 40.0536 16.9514 39.6855Z" fill="#8279BF"/>
<path d="M11.4047 45.8693C11.4593 45.8412 11.5436 45.7733 11.5706 45.7883C12.4845 46.4625 13.6216 46.377 14.6424 46.6777C14.7092 46.7307 14.7626 46.7983 14.7985 46.8752C14.8344 46.9522 14.8518 47.0363 14.8493 47.121C14.8667 49.5501 15.2269 51.9581 15.3025 54.3828C15.3013 54.4245 15.2965 54.466 15.288 54.5068C15.2814 54.5548 15.2641 54.6007 15.2373 54.6413C15.2105 54.6818 15.1749 54.7158 15.1331 54.741C15.0913 54.7661 15.0444 54.7816 14.9958 54.7865C14.9471 54.7913 14.898 54.7853 14.852 54.7689C13.8832 54.5172 12.9046 54.2935 12.0041 53.8351C11.9513 53.7946 11.9144 53.737 11.9001 53.6724C11.7457 51.0762 11.4141 48.4834 11.4047 45.8693Z" fill="#C54B1A"/>
<path d="M11.8944 53.6797C12.976 54.0997 14.0896 54.4338 15.2246 54.679C15.2829 54.6496 15.3492 54.6397 15.4136 54.6508C15.7433 54.7689 16.1583 54.7235 16.3365 55.1314C16.3694 55.9055 16.3509 56.6835 16.531 57.4463C16.5595 57.5263 16.5648 57.6127 16.5463 57.6955C16.5278 57.7784 16.4863 57.8545 16.4264 57.9151C14.6924 57.3943 12.9573 56.8804 11.2262 56.3508C10.6385 56.1706 10.3198 55.7734 10.2703 55.1389C10.2208 54.5043 10.5004 54.1364 11.0057 53.857C11.1542 53.774 11.3032 53.696 11.4537 53.6162L11.8944 53.6797Z" fill="#FCEC32"/>
<path d="M32.5279 27.3941C33.6374 27.3296 34.7432 27.0861 35.8598 27.2463C36.1166 27.4545 36.3212 27.7187 36.4579 28.0182C36.5945 28.3177 36.6594 28.6445 36.6475 28.973C36.5104 29.9973 36.1827 30.3228 35.145 30.4245C34.5077 30.5033 33.8665 30.5473 33.2243 30.5564C32.459 30.5502 32.0909 30.2694 31.9173 29.612C31.6376 28.7442 31.7714 27.9863 32.5279 27.3941Z" fill="#FC7979"/>
<path d="M31.9138 29.6122C32.2647 30.2681 32.8221 30.4575 33.5235 30.373C33.9684 30.3107 34.4167 30.2764 34.866 30.2701C35.8001 30.277 36.4184 29.9002 36.6369 28.9704C36.6925 29.6829 36.7511 30.3959 36.8125 31.1092C36.8663 31.798 36.5764 32.322 36.0417 32.7317C35.6504 33.0808 35.1549 32.9567 34.7017 33.0204L34.3592 33.0466C33.7999 33.0315 33.2049 33.3314 32.6964 32.8634L32.5528 32.7447C31.7182 31.829 31.8473 30.7233 31.9138 29.6122Z" fill="#F42C2C"/>
<path d="M42.8986 37.3573C43.2823 38.0362 42.8958 38.5352 42.4969 39.03C42.4616 39.2407 42.3634 39.436 42.2151 39.591C41.2267 40.7864 40.277 42.0147 39.2609 43.1866C38.7647 43.7589 38.3031 43.6491 38.0243 42.9246C37.4217 41.3613 36.8994 39.7679 36.3153 38.1998C35.7817 36.6602 35.2144 35.13 34.6894 33.5897C34.6092 33.3569 34.4551 33.1264 34.6053 32.8656L36.0489 32.7345C37.1343 34.0168 38.29 35.2288 39.7724 36.0795C40.7417 36.6627 41.7963 37.0937 42.8986 37.3573Z" fill="#FC4343"/>
<path d="M32.7007 32.8666C33.2681 33.0296 33.8384 32.8767 34.4052 32.8776C34.5873 33.1145 34.481 33.3634 34.4365 33.6091C34.1444 35.2086 33.8419 36.8054 33.5482 38.405C33.2127 39.9993 32.9455 41.6071 32.6188 43.2041C32.4244 44.156 31.9822 44.3384 31.2776 43.6756C30.0363 42.5145 28.6933 41.4636 27.4933 40.2567C27.2547 40.0258 26.945 39.8533 26.8067 39.5379C26.6539 39.1911 26.6565 38.8496 26.9452 38.5544C28.5848 37.7118 30.0497 36.6404 31.2089 35.2049C31.8078 34.4938 32.3094 33.7076 32.7007 32.8666Z" fill="#E02929"/>
<path d="M26.9573 69.6445C28.0052 69.5642 29.0532 69.4839 30.1011 69.4036C30.8528 69.346 31.3726 69.738 31.4914 70.4218C31.6009 71.0518 31.2359 71.5611 30.5443 71.8155C29.9668 72.0304 29.3639 72.0083 28.7701 72.059C27.3168 72.1829 25.8625 72.2943 24.4072 72.3933C23.4329 72.468 22.9005 72.2016 22.636 71.5716C22.2991 70.7645 22.7431 69.9863 23.6201 69.902C24.7318 69.7997 25.8426 69.7299 26.9573 69.6445Z" fill="#A52B2B"/>
<path d="M48.7438 67.9748C49.4065 67.924 50.0701 67.8629 50.7335 67.8223C51.0346 67.7923 51.3358 67.8783 51.5747 68.0624C51.8136 68.2465 51.9718 68.5146 52.0165 68.8112C52.1346 69.3756 51.8127 70.0403 51.2314 70.1839C49.7169 70.5705 48.1458 70.6909 46.5893 70.5397C45.9799 70.4788 45.5707 69.848 45.6066 69.2273C45.6356 68.9406 45.7664 68.6733 45.9757 68.4731C46.185 68.273 46.4592 68.153 46.7495 68.1344C47.4161 68.068 48.0812 68.0256 48.7438 67.9748Z" fill="#A52B2B"/>
<path d="M40.2597 75.0238C40.9018 74.9746 41.5422 74.9255 42.1826 74.8764C42.9 74.8215 43.3981 75.1997 43.5343 75.8635C43.6021 76.1588 43.5514 76.4687 43.3929 76.7276C43.2344 76.9866 42.9805 77.1744 42.6849 77.2513C41.2099 77.6127 39.6848 77.7296 38.1713 77.5973C37.8724 77.5514 37.6011 77.3981 37.4092 77.1666C37.2172 76.9351 37.1181 76.6416 37.1308 76.3422C37.1434 76.0429 37.267 75.7586 37.4778 75.5438C37.6886 75.329 37.9719 75.1987 38.2735 75.1777C38.9335 75.1152 39.597 75.0746 40.2597 75.0238Z" fill="#A52B2B"/>
<path d="M33.6535 43.5327C35.3742 42.5816 36.9438 43.0723 38.4214 44.0822C39.9409 45.1229 40.9249 46.5836 41.7641 48.1766C40.9177 48.6102 39.9678 48.8656 39.2902 49.5849C37.3311 50.969 36.2144 52.8826 35.7524 55.1949C35.7101 55.4029 35.6746 55.6105 35.6374 55.8181C35.608 55.8313 35.576 55.8378 35.5437 55.837C35.5114 55.8362 35.4798 55.8282 35.451 55.8136C34.6249 55.1823 33.7465 54.6096 33.1393 53.7378C31.525 50.2483 32.0686 46.863 33.6535 43.5327Z" fill="#FC3D95"/>
<path d="M45.6185 48.9361C45.8541 48.9317 46.0888 48.9376 46.3234 48.9196L59.9277 47.877C60.8952 47.8028 61.0022 47.8936 61.077 48.8522C61.3118 51.8598 61.5416 54.8695 61.7663 57.8813C61.2526 57.9206 60.7373 57.9397 60.2268 58.0197C59.7163 58.0998 59.555 57.9535 59.5235 57.4387C59.3958 55.4277 59.2235 53.42 59.065 51.4113C58.9799 50.3204 58.5421 49.9426 57.4531 50.026C54.5713 50.2469 51.6912 50.4676 48.8093 50.6885C48.3333 50.7249 47.9252 50.8364 47.683 51.2868C46.362 51.1355 45.6252 50.4341 45.3474 49.0609C45.3756 49.0164 45.4162 48.9809 45.4643 48.9588C45.5124 48.9366 45.566 48.9287 45.6185 48.9361Z" fill="#FCF6BC"/>
<path d="M48.8454 52.8806C48.7915 51.9699 48.7915 51.9699 49.7145 51.8991C52.1956 51.709 54.6811 51.5305 57.1562 51.3288C57.6305 51.2925 57.7941 51.4028 57.8249 51.8852C57.9481 53.7942 58.1106 55.7002 58.2715 57.6063C58.2964 57.9253 58.3165 58.1832 57.8638 58.2093C56.559 58.2871 55.2559 58.4092 53.9512 58.5092C53.8022 58.5206 53.6481 58.5324 53.538 58.4026C53.5682 58.1494 53.6003 57.8977 53.6322 57.6444C53.8239 57.4078 54.1339 57.4523 54.3793 57.3294C54.6246 57.2065 54.8036 57.0938 54.7557 56.8107C54.7115 56.5547 54.496 56.508 54.2738 56.4858C54.0516 56.4636 53.8423 56.5189 53.6784 56.3386L53.5531 55.0868C53.8461 54.8015 54.2248 54.8647 54.5836 54.8269C54.9424 54.7892 55.2692 54.7829 55.5712 54.5925C55.6503 54.5573 55.7153 54.4972 55.7562 54.4215C55.797 54.3458 55.8114 54.2588 55.797 54.1741C55.7775 54.0903 55.7295 54.0157 55.6611 53.9628C55.5927 53.9099 55.5079 53.882 55.4212 53.8837C54.97 53.8415 54.5258 53.9319 54.0771 53.9441C53.785 53.9528 53.4772 54.0481 53.2196 53.8152C53.2122 53.7955 53.2038 53.7762 53.1944 53.7574C52.7658 52.8788 52.7658 52.8788 51.8781 53.3565C50.8518 53.8909 49.7083 53.7174 48.8454 52.8806Z" fill="#FCF6BC"/>
<path d="M45.618 48.936L45.3516 49.0537C45.3327 48.9722 45.3221 48.8889 45.3201 48.8053C45.3886 47.7401 45.389 47.723 44.2776 47.7638C43.7624 47.7828 43.2687 47.8804 42.7637 47.943C42.8799 47.0482 43.4548 46.4904 44.1889 46.0535C44.2146 45.9933 44.2532 45.9393 44.3022 45.8955C44.3511 45.8516 44.4092 45.8189 44.4723 45.7997C45.3924 45.6268 46.314 45.4281 47.2559 45.6666L49.0569 45.5678C48.3211 45.94 47.7034 46.4123 47.4209 47.2293C47.3036 47.5464 47.2709 47.8881 47.3261 48.2214C47.3986 48.6426 47.2257 48.7889 46.8148 48.7982C46.4038 48.8075 46.0193 48.8916 45.618 48.936Z" fill="#0280E2"/>
<path d="M41.8529 54.3228C41.6826 54.3416 41.5102 54.325 41.3467 54.2742C41.1832 54.2233 41.0322 54.1393 40.9033 54.0275C40.7743 53.9157 40.6703 53.7786 40.5977 53.6248C40.5252 53.4709 40.4858 53.3039 40.4819 53.1341C40.4444 52.4543 40.9748 51.9016 41.709 51.8624C41.8721 51.853 42.0354 51.8756 42.1896 51.9288C42.3439 51.9819 42.486 52.0647 42.608 52.1723C42.73 52.2799 42.8294 52.4103 42.9005 52.556C42.9716 52.7017 43.0131 52.8598 43.0225 53.0213C43.032 53.1829 43.0092 53.3447 42.9555 53.4976C42.9019 53.6504 42.8183 53.7913 42.7097 53.9121C42.6011 54.033 42.4695 54.1314 42.3225 54.2019C42.1755 54.2724 42.0159 54.3135 41.8529 54.3228Z" fill="#A62B2B"/>
<path d="M53.2119 53.8005C53.9157 53.7465 54.6184 53.7012 55.3198 53.6389C55.6845 53.611 55.9627 53.7108 56.0444 54.0954C56.1261 54.48 55.9182 54.6854 55.5734 54.8143C54.9168 55.0523 54.2198 54.9504 53.5487 55.0701C53.4315 54.649 53.3242 54.2237 53.2119 53.8005Z" fill="#F2D373"/>
<path d="M53.6707 56.3238L54.3043 56.2752C54.6467 56.249 54.8869 56.391 54.9553 56.7374C55.0237 57.0837 54.864 57.2889 54.5513 57.4323C54.253 57.5395 53.9408 57.6043 53.6241 57.6245C53.6405 57.1949 53.6547 56.7586 53.6707 56.3238Z" fill="#F2D374"/>
<path d="M16.4262 57.9152C16.2112 56.9592 16.1346 55.9777 16.1987 55.0003C16.0444 54.5462 16.1916 54.1594 16.4685 53.8002C16.8356 53.7141 16.8994 54.0027 16.9879 54.2315C17.6851 56.0458 18.7611 57.6936 20.1456 59.0672C20.6817 59.6013 21.3213 59.9841 21.9335 60.4117C22.1157 60.5394 22.3904 60.5935 22.3561 60.905L17.9061 61.2717C17.1657 60.2599 16.8118 59.0804 16.4262 57.9152Z" fill="#01978B"/>
<path d="M33.2949 53.8334L35.6323 55.8185C35.5514 57.1419 35.7134 58.4688 36.1103 59.7348C34.8351 58.846 33.7454 57.7518 32.5403 56.7894C32.294 56.5915 32.0945 56.3303 31.7814 56.2246C31.5939 56.2509 31.5125 56.1121 31.4342 55.9918C30.3387 54.2716 28.7648 53.1087 26.9603 52.2127C26.8236 52.1517 26.697 52.0705 26.5849 51.9718C24.3791 50.0176 22.0974 48.1511 19.8616 46.2316L19.4705 45.8998C18.8049 45.3176 18.618 44.755 18.8758 44.1071C19.1336 43.4593 19.6831 43.1287 20.5821 43.1486C20.948 43.4221 21.3139 43.6967 21.6799 43.9724C24.1418 46.117 26.6209 48.2397 29.1521 50.3021C29.1743 50.3004 29.2017 50.2983 29.2161 50.3057C30.6544 51.3868 32.0759 52.4948 33.2949 53.8334Z" fill="#6354AF"/>
<path d="M26.6889 51.8938C28.42 52.775 30.0585 53.7725 31.1967 55.4006C31.3882 55.6761 31.5819 55.9508 31.7778 56.2248C31.8413 56.6194 32.1767 56.9214 32.1582 57.3461C31.7723 58.6472 31.0235 59.6689 29.8077 60.3356L22.3489 60.9072C21.9352 60.6163 21.5231 60.3253 21.1078 60.0363C19.0242 58.5882 17.7508 56.5523 16.8228 54.2629C16.7502 54.0841 16.7317 53.8909 16.5223 53.8114C16.2898 53.5254 16.5003 53.2874 16.6363 53.0653C17.3761 51.7968 18.5403 51.1307 19.9436 50.8149C22.3176 50.3992 24.5734 50.7212 26.6889 51.8938Z" fill="#0AB49D"/>
<path d="M29.8166 60.335C30.8384 59.5227 31.5677 58.494 32.1671 57.3454C32.5945 58.12 32.5462 58.9805 32.6134 59.8185C32.6373 60.1256 32.4278 60.1553 32.1999 60.1711L29.8166 60.335Z" fill="#04978A"/>
<path d="M47.2552 45.6718C46.2355 45.849 45.1922 45.7241 44.1844 46.0539C43.7349 45.194 43.713 44.2518 43.7792 43.3336C43.8706 42.0773 44.7356 41.2873 46.1144 41.0314L48.6755 40.8727C47.7739 41.2831 47.0489 41.9258 46.9627 42.9173C46.8646 43.8456 46.9643 44.784 47.2552 45.6718Z" fill="#463B83"/>
<path d="M26.689 51.8938C25.3819 51.4342 24.0769 50.9795 22.6761 50.865C21.7367 50.7902 20.8068 50.7505 19.8825 50.9801C18.9668 50.4819 18.2917 49.6887 17.4719 49.0723C16.8013 48.4921 16.1151 47.932 15.4512 47.3496C15.2667 47.1931 14.9996 47.0805 15.0522 46.7624C16.3655 45.4243 17.5124 43.9419 18.7647 42.5522C18.9313 42.3688 19.0473 42.1124 19.3409 42.0779L20.5772 43.1524C20.4823 43.3047 20.3225 43.2879 20.1752 43.2992C19.54 43.3479 19.1733 43.7037 18.977 44.2786C18.7807 44.8535 19.0017 45.3008 19.4468 45.6848C21.6948 47.5914 23.9424 49.4998 26.1896 51.4098C26.3699 51.5565 26.5264 51.7305 26.689 51.8938Z" fill="#463B83"/>
<path d="M33.2954 53.8334C31.8785 52.6961 30.4852 51.5296 29.144 50.3028C29.5278 48.9079 29.9725 47.5442 30.7568 46.315C31.4952 45.1592 32.3357 44.0997 33.654 43.5327C33.8513 43.6542 33.7226 43.7715 33.6589 43.9044C32.626 46.0294 32.1966 48.393 32.4167 50.7415C32.5082 51.5161 32.7094 52.2741 33.0144 52.993C33.124 53.2714 33.3004 53.5224 33.2954 53.8334Z" fill="#E21E7F"/>
</g>
<g clip-path="url(#clip2_4901_17460)">
<path d="M85.7056 90.7921L73.3985 89.8301C72.5063 89.5439 72.2047 89.1152 72.2806 88.1621C72.7576 82.0897 73.2411 76.0169 73.731 69.9437C73.7474 69.7371 73.7232 69.5102 73.9028 69.345C74.0926 69.2445 74.2945 69.2584 74.4982 69.2743C78.5942 69.59 82.6893 69.9101 86.7833 70.2346C86.9841 70.2503 87.1913 70.2588 87.3547 70.4051C87.5012 70.6072 87.4599 70.8366 87.4432 71.0584C87.3502 72.3105 87.244 73.5606 87.1443 74.8121C86.7402 79.8879 86.3361 84.9637 85.932 90.0395C85.917 90.3004 85.9656 90.5969 85.7056 90.7921Z" fill="#1749BD"/>
<path d="M103.949 92.218L91.7151 91.2618C91.6677 91.2162 91.6313 91.1607 91.6084 91.0994C91.5854 91.0381 91.5766 90.9724 91.5826 90.9073C91.5853 90.753 91.5956 90.5994 91.6078 90.4459C92.1062 84.1852 92.6047 77.9239 93.1033 71.6619C93.1245 71.3947 93.0999 71.1116 93.2933 70.8826C93.5465 70.7118 93.8254 70.785 94.0941 70.806C98.0588 71.1115 102.023 71.4213 105.986 71.7356C106.105 71.7449 106.224 71.7542 106.342 71.7701C106.486 71.7806 106.625 71.8262 106.746 71.9027C106.858 72.002 106.85 72.1358 106.849 72.2654C106.849 72.4436 106.832 72.6206 106.818 72.7978C106.349 78.689 105.88 84.5799 105.411 90.4704C105.385 90.7878 105.372 91.1061 105.24 91.4104C105.031 91.8851 104.713 92.1929 104.158 92.1925C104.087 92.1809 104.015 92.1897 103.949 92.218Z" fill="#1749BD"/>
<path d="M93.3376 70.9166C93.3224 71.0346 93.3016 71.1512 93.2922 71.2687C92.7711 77.8149 92.2499 84.3611 91.7287 90.9073C91.7194 91.0248 91.7205 91.1431 91.7159 91.2619L85.7053 90.7921C85.7204 90.6626 85.7403 90.5336 85.7506 90.4038C86.2699 83.8816 86.7891 77.3594 87.3084 70.8372C87.3187 70.7074 87.3176 70.5767 87.3212 70.4473C87.3361 70.4285 87.3501 70.4095 87.365 70.3916C87.5253 70.2764 87.7084 70.3088 87.8844 70.3216C89.5238 70.4434 91.163 70.5716 92.8021 70.706C92.9771 70.7197 93.163 70.7171 93.3039 70.8558L93.3376 70.9166Z" fill="#E12428"/>
<path d="M72.5391 62.6547C72.9293 61.8272 73.5865 61.5849 74.4724 61.6961C75.215 61.7979 75.9636 61.85 76.7133 61.8522C76.7314 61.8375 76.7523 61.8265 76.7749 61.8201C76.7974 61.8136 76.821 61.8118 76.8442 61.8148C79.8811 62.0522 82.9173 62.2895 85.9529 62.5268C86.1279 62.5404 86.3157 62.5132 86.4662 62.6413C86.553 62.7596 86.5213 62.8925 86.5111 63.0204C86.3758 64.7201 86.2404 66.4201 86.1051 68.1205C86.0704 68.5563 86.0243 68.5908 85.5653 68.5549C82.0262 68.2783 78.4883 68.0018 74.9516 67.7253C74.4401 67.6853 73.9288 67.6292 73.4142 67.7005C72.7009 67.5599 72.2978 67.1366 72.2421 66.4105L72.5391 62.6547Z" fill="#1749BD"/>
<path d="M73.9599 69.3981L74.0836 67.627C74.2123 67.5693 74.3445 67.613 74.4688 67.6228L85.5606 68.4898C85.7146 68.5018 85.8693 68.5396 86.0234 68.4897C86.5206 68.4923 87.0206 68.4723 87.5007 68.6414C87.6751 69.2392 87.6217 69.8797 87.3507 70.441L87.3201 70.451L73.9599 69.3981Z" fill="#0E2C71"/>
<path d="M106.857 70.1896L106.702 71.9574L93.3388 70.9129L93.3111 70.8984C93.2734 70.8392 93.2134 70.7839 93.2161 70.7136C93.2362 70.1708 93.165 69.6152 93.4399 69.1104C93.756 68.9835 94.0733 69.1075 94.3906 69.1094C94.5686 69.11 94.7463 69.1372 94.9242 69.1511C98.7145 69.4474 102.505 69.7437 106.295 70.0399C106.472 70.0538 106.656 70.0348 106.819 70.1342L106.857 70.1896Z" fill="#0E2C71"/>
<path d="M74.5987 60.2484C74.0879 59.4744 73.9369 58.6027 73.9765 57.7068C74.0309 56.4555 74.441 55.3416 75.4587 54.5222C76.2698 53.8696 77.2267 53.6574 78.2429 53.6911C80.4446 53.7602 82.4069 54.5628 84.2403 55.7052C85.2468 56.3203 86.183 57.0417 87.0324 57.8569C87.2785 58.3909 87.1136 58.9271 87.0289 59.4592C87.003 59.6278 86.8345 59.689 86.661 59.6697C86.5562 59.6458 86.4488 59.6345 86.3413 59.6361C86.2744 59.638 86.2096 59.6595 86.1551 59.6981C86.1006 59.7366 86.059 59.7904 86.0355 59.8525C86.0118 59.914 86.0066 59.981 86.0206 60.0454C86.0346 60.1098 86.0672 60.1688 86.1143 60.2152C86.2203 60.334 86.37 60.3877 86.5067 60.4594C86.6434 60.5311 86.7828 60.6173 86.768 60.803C86.7621 60.8811 86.7347 60.956 86.6888 61.0197C86.6428 61.0834 86.58 61.1333 86.5074 61.164C86.3369 61.2524 86.1474 61.2984 85.955 61.2981C85.8231 61.2992 85.6921 61.289 85.5611 61.2788C82.1501 61.0121 78.7396 60.7456 75.3299 60.479C75.072 60.4551 74.8076 60.4411 74.5987 60.2484Z" fill="#E12428"/>
<path d="M95.6151 58.5335C97.8976 57.0321 100.336 55.9528 103.1 55.7399C104.02 55.6688 104.938 55.7024 105.83 55.9799C107.512 56.5033 108.54 57.8668 108.551 59.618C108.56 60.7961 108.297 61.8938 107.508 62.8208C107.306 62.9257 107.076 62.967 106.85 62.939C103.347 62.6652 99.8451 62.3915 96.3429 62.1177C96.0788 62.1085 95.8229 62.024 95.6061 61.8742C95.5395 61.8335 95.4852 61.7757 95.449 61.7069C95.4128 61.6381 95.3961 61.5609 95.4005 61.4835C95.4156 61.294 95.558 61.2336 95.7131 61.1819C95.8287 61.1514 95.9413 61.1111 96.0499 61.0614C96.2094 60.9785 96.3148 60.8514 96.2799 60.6609C96.2451 60.4703 96.0979 60.3978 95.9178 60.3761C95.3462 60.3047 95.3111 60.2734 95.3572 59.6945C95.3889 59.2966 95.3451 58.8794 95.6151 58.5335Z" fill="#E12428"/>
<path d="M105.094 64.0897L107.317 64.2863C107.485 64.3824 107.465 64.5477 107.455 64.6966C107.338 66.3837 107.204 68.0689 107.053 69.7522C107.042 69.8915 107.03 70.0364 106.882 70.1202C106.753 70.1683 106.623 70.1304 106.497 70.1206C102.783 69.8303 99.0703 69.5401 95.3577 69.2499C94.8892 69.2133 94.8802 69.2049 94.9173 68.7388C95.0497 67.0757 95.1821 65.4129 95.3145 63.7505C95.3256 63.6112 95.3151 63.4645 95.4151 63.3446C95.5433 63.245 95.6903 63.2841 95.8299 63.295C98.7826 63.5258 101.735 63.7566 104.687 63.9874C104.824 64.0029 104.971 64 105.094 64.0897Z" fill="#1749BD"/>
<path d="M74.599 60.2484C78.2887 60.5368 81.9781 60.8236 85.6673 61.1088C85.9542 61.1312 86.2416 61.146 86.4977 60.9754C86.695 60.8411 86.7364 60.708 86.462 60.6132C86.3266 60.5663 86.195 60.5088 86.0687 60.4413C85.7841 60.2828 85.7164 60.0325 85.8251 59.7435C85.847 59.6784 85.8825 59.6185 85.9292 59.5679C85.976 59.5172 86.033 59.4768 86.0965 59.4493C86.16 59.4219 86.2286 59.4079 86.2979 59.4084C86.3671 59.4088 86.4356 59.4237 86.4987 59.452C86.8347 59.5936 86.9122 59.4786 86.9247 59.164C86.9431 58.7279 86.9941 58.2924 87.0289 57.8556C87.4495 58.1802 87.8022 58.572 88.1622 58.9566C88.3833 59.0559 88.3755 59.2507 88.3622 59.4423C88.322 60.0674 88.2847 60.6927 88.1987 61.3142C88.1428 61.7989 88.1268 62.2896 87.9598 62.7561C87.4822 62.857 87.0102 62.7553 86.5431 62.6883C86.3833 62.6653 86.2206 62.6192 86.0551 62.6063C83.0801 62.3737 80.1051 62.1412 77.1301 61.9086C77.001 61.8985 76.8657 61.9185 76.7502 61.8465C76.7386 61.8519 76.7258 61.8545 76.713 61.8541C75.7741 61.6225 75.0607 61.0967 74.599 60.2484Z" fill="#BC1619"/>
<path d="M95.6156 58.5335C95.5778 59.0072 95.5506 59.4817 95.5091 59.9552C95.4914 60.1778 95.5563 60.2449 95.7932 60.2052C96.1965 60.1309 96.4482 60.2803 96.5138 60.5933C96.5825 60.9381 96.4169 61.1692 96.0088 61.2803C95.9854 61.2835 95.9624 61.289 95.9401 61.2968C95.8062 61.3722 95.5419 61.2829 95.5391 61.5C95.5374 61.7029 95.7566 61.7897 95.9353 61.8656C96.1167 61.9263 96.3069 61.9576 96.4984 61.9582L107.51 62.8247C106.91 63.611 106.104 64.0103 105.121 64.0794C104.99 64.0948 104.858 64.0912 104.728 64.0687C101.81 63.8406 98.8914 63.6125 95.9731 63.3844C95.4625 63.3445 94.9515 63.4056 94.4369 63.3434C93.8338 63.2696 93.8313 63.2885 93.8795 62.6707C93.9022 62.3864 93.9248 62.1022 93.9474 61.818L93.9584 61.6796C94.0072 61.0676 94.0558 60.4565 94.1045 59.8454C94.1172 59.6853 94.0992 59.5008 94.3173 59.4445C94.7239 59.1058 95.1582 58.8011 95.6156 58.5335Z" fill="#BC1619"/>
<path d="M94.0632 61.6907L94.0574 61.7627C94.0232 61.7956 93.9854 61.8246 93.9447 61.8492C93.7737 61.9312 93.5939 61.9047 93.416 61.8918C91.8348 61.772 90.2542 61.6485 88.6743 61.5211C88.4964 61.5072 88.315 61.5016 88.1589 61.396C88.1225 61.3659 88.09 61.3313 88.0622 61.2931C88.1125 60.6615 88.16 60.0325 88.2048 59.4062C88.2319 59.256 88.2187 59.1014 88.1664 58.958C88.2906 58.9448 88.2961 58.8384 88.3346 58.7547C88.5394 58.3083 88.8685 58.09 89.3469 58.1236C90.657 58.2165 91.9657 58.3188 93.273 58.4305C93.8219 58.4734 94.1312 58.8064 94.1866 59.3427C94.2157 59.8836 94.1107 60.4169 94.0899 60.9558C94.0831 61.1994 94.0223 61.4425 94.0632 61.6907Z" fill="#E12428"/>
<path d="M106.862 70.1195C107.017 68.1754 107.17 66.2311 107.322 64.2867C108.575 64.1578 109.279 65.0832 109.147 66.0262C109.02 66.9249 108.991 67.8368 108.919 68.7435C108.838 69.7582 108.21 70.2888 107.182 70.2113L106.861 70.1861C106.809 70.1611 106.809 70.1383 106.862 70.1195Z" fill="#1749BD"/>
<path d="M93.9889 61.7659L94.0565 61.7626C94.0302 62.0923 94.0286 62.4278 93.9776 62.7536C93.9239 63.1012 94.0622 63.2017 94.3969 63.2269C97.8304 63.4857 101.263 63.7521 104.695 64.0261C104.837 64.0372 104.981 64.0589 105.121 64.0756L105.094 64.0897C104.891 64.0843 104.688 64.0884 104.486 64.0727C101.64 63.8502 98.7938 63.6277 95.9481 63.4053C95.7818 63.3923 95.6142 63.3935 95.4482 63.3882C95.4087 63.414 95.3673 63.4368 95.3244 63.4567C95.1396 63.5299 94.9484 63.5035 94.7589 63.4897C92.2027 63.2899 89.6472 63.0901 87.0922 62.8904C86.901 62.8755 86.7089 62.8709 86.5389 62.7709C86.4999 62.7443 86.4627 62.7153 86.4275 62.684C86.2617 62.6634 86.0974 62.6363 85.9321 62.6224C83.0686 62.3986 80.2051 62.1748 77.3416 61.9509C77.1418 61.9353 76.9337 61.9515 76.7488 61.8445L87.9362 62.719C87.9718 62.6924 88.0094 62.6686 88.0487 62.6477C88.256 62.5571 88.4714 62.595 88.6837 62.6115C90.118 62.7237 91.5589 62.8363 92.997 62.9487C93.6664 63.001 93.7071 62.9613 93.7799 62.312C93.8 62.1086 93.7899 61.8962 93.9889 61.7659Z" fill="#BC1619"/>
<path d="M94.0632 61.6907C93.9661 61.3151 94.0764 60.9443 94.0936 60.5719C94.1128 60.1616 94.1588 59.7524 94.1916 59.3403L94.326 59.4413C94.1725 59.6886 94.2184 59.9706 94.1904 60.2373C94.1403 60.7224 94.1017 61.2065 94.0632 61.6907Z" fill="#BC1619"/>
<path d="M93.4694 69.1518C93.4172 69.7356 93.3653 70.3191 93.3137 70.9024L87.3519 70.4364L87.4741 68.6832C87.5811 68.5476 87.7356 68.5892 87.8733 68.6C89.6107 68.732 91.3478 68.8678 93.0845 69.0073C93.2232 69.0182 93.3782 69.0045 93.4694 69.1518Z" fill="#BC1619"/>
<path d="M86.4286 62.686C86.4491 62.6837 86.4698 62.6827 86.4904 62.6832C86.6476 62.7994 86.6448 62.9679 86.6325 63.1338C86.5119 64.7934 86.3799 66.4523 86.2363 68.1107C86.232 68.2294 86.1977 68.345 86.1364 68.4471C86.1099 68.4861 86.0786 68.5218 86.0433 68.5532L74.0826 67.6269C73.8212 67.5741 73.5412 67.6351 73.2943 67.4976L85.2199 68.4298C85.3392 68.4329 85.4582 68.4422 85.5766 68.4577C85.8697 68.5101 85.9809 68.3939 86.0013 68.1009C86.0875 66.8741 86.1966 65.648 86.2942 64.422L86.4286 62.686Z" fill="#0E2C71"/>
<path d="M86.0443 68.5533C86.0441 68.5317 86.0458 68.5102 86.0494 68.4889C86.2465 68.285 86.4966 68.3589 86.7271 68.376C88.6821 68.5221 90.636 68.6815 92.5905 68.8343C93.1862 68.8808 93.7823 68.9217 94.3776 68.974C94.5545 68.9878 94.7393 68.986 94.8837 69.1184C94.9013 69.1341 94.9128 69.1554 94.9163 69.1787C94.9197 69.2019 94.9148 69.2256 94.9024 69.2457L93.4667 69.1516L87.4743 68.6832L86.0443 68.5533Z" fill="#BC1619"/>
<path d="M94.8987 69.2454C94.9035 69.2243 94.9068 69.2029 94.9087 69.1814C94.7803 69.0655 94.7704 68.9122 94.7819 68.7558C94.8999 67.1037 95.0314 65.4523 95.1763 63.8016C95.1896 63.6349 95.2153 63.4681 95.3881 63.3768C95.4091 63.3784 95.4288 63.3847 95.4496 63.3901C95.3085 65.1619 95.1675 66.9333 95.0265 68.7044C94.988 69.1876 94.9879 69.1894 95.4908 69.2288L106.859 70.1173C106.859 70.1399 106.857 70.1624 106.854 70.1846L94.8987 69.2454Z" fill="#0E2C71"/>
<path d="M88.0159 62.7205L87.9328 62.714C87.9743 62.2399 88.0165 61.7666 88.0593 61.2939L88.1235 61.3094C88.3365 61.6425 88.2784 62.4092 88.0159 62.7205Z" fill="#BC1619"/>
<path d="M88.0164 62.7205C88.054 62.2493 88.0914 61.7784 88.1289 61.3078L93.9923 61.7661C93.9659 62.0977 93.9242 62.4282 93.9199 62.7596C93.9156 63.091 93.79 63.1822 93.4575 63.1534C91.6437 62.9983 89.8332 62.8625 88.0164 62.7205Z" fill="#BC1619"/>
<path d="M95.3876 63.3768L94.9101 69.1815L86.0462 68.4887C86.1958 66.5536 86.3444 64.6185 86.492 62.6834L95.3876 63.3768Z" fill="#E12428"/>
</g>
<defs>
<clipPath id="clip0_4901_17460">
<rect width="48.5793" height="48.1416" fill="white" transform="matrix(0.996342 0.0854592 -0.0870323 0.996206 59.6992 0.249725)"/>
</clipPath>
<clipPath id="clip1_4901_17460">
<rect width="65.9455" height="65.3495" fill="white" transform="matrix(0.997076 -0.0764138 0.0778225 0.996967 0.704102 23.5333)"/>
</clipPath>
<clipPath id="clip2_4901_17460">
<rect width="36.8297" height="36.4969" fill="white" transform="matrix(0.996959 0.0779269 -0.0793631 0.996846 73.2822 53.2185)"/>
</clipPath>
</defs>
</svg>
