<svg width="112" height="91" viewBox="0 0 112 91" fill="none" xmlns="http://www.w3.org/2000/svg">
<g clip-path="url(#clip0_4900_17428)">
<path d="M50.037 11.0596C50.0467 11.0913 50.0498 11.1247 50.0462 11.1577C50.1713 11.3588 50.1381 11.5882 50.1587 11.8064C50.8191 18.7998 51.4794 25.7928 52.1397 32.7853C52.1524 33.0256 52.1837 33.2646 52.2335 33.5002C52.203 33.7986 51.9454 33.8076 51.7395 33.8601C51.1082 34.0225 50.4833 34.1992 49.9124 34.5242C49.0508 34.98 48.3302 35.6589 47.8274 36.4886C47.6637 36.7511 47.549 37.0697 47.1808 37.136C42.2247 37.1404 37.4843 33.6803 35.9898 28.9707C35.6684 27.9625 35.456 26.9233 35.3563 25.8706C34.8819 20.8463 34.4074 15.822 33.9329 10.7976C33.9038 10.4887 33.8177 10.1726 33.9623 9.86607C34.1302 9.66128 34.3628 9.70526 34.5853 9.70936C36.3998 9.76525 38.2046 9.99429 39.9747 10.3933C40.7059 10.5494 41.437 10.7042 42.1757 10.82C43.5006 11.0001 44.8352 11.1015 46.1723 11.1235C47.2542 11.1469 48.3254 11.0167 49.3991 10.927C49.6244 10.9074 49.8515 10.8937 50.037 11.0596Z" fill="#C3F136"/>
<path d="M34.0163 9.85983C34.5424 15.431 35.0129 21.0085 35.6095 26.5732C35.9018 29.3115 37.0979 31.694 39.1242 33.6284C41.2618 35.6713 43.794 36.8168 46.773 36.9574C46.9585 36.9661 47.1428 37.001 47.3277 37.0296C47.4266 37.1911 47.3581 37.3508 47.3154 37.5069C46.9933 38.5373 46.8256 39.5769 47.0767 40.6495C47.101 40.7195 47.1059 40.7948 47.0908 40.8673C47.0757 40.9399 47.0412 41.0071 46.9908 41.0618L45.2219 41.2444C44.9273 41.3632 44.7146 41.1603 44.5022 41.039C42.9065 40.1481 41.2987 39.2743 39.7063 38.3781C39.1048 38.0628 38.5382 37.68 37.9182 37.3937C36.1542 36.386 34.3622 35.4254 32.6003 34.4126C32.5016 34.3625 32.4142 34.2932 32.3431 34.2088C32.2721 34.1244 32.219 34.0267 32.1869 33.9216C32.0207 32.8882 31.9666 31.8395 31.8752 30.8053C31.4976 26.8068 31.1201 22.8091 30.7426 18.8121C30.7152 18.5216 30.6382 18.222 30.8051 17.9406C30.5763 15.5179 30.3475 13.0945 30.1186 10.6701C30.0978 10.4507 30.0932 10.2297 30.081 10.0082C30.4221 9.65505 30.8846 9.72843 31.2933 9.72023C32.1468 9.70417 33.0021 9.5618 33.8555 9.73003C33.9204 9.75736 33.9762 9.80236 34.0163 9.85983Z" fill="#A0D41C"/>
<path d="M32.708 34.3444C34.4705 35.3225 36.2573 36.2415 37.9817 37.3184C38.1396 37.6687 37.9311 37.9724 37.8224 38.2756C37.5338 39.1187 37.2645 39.9673 36.9565 40.8035C36.9173 40.9084 36.8857 41.0159 36.862 41.1252C36.7618 41.6106 36.9573 42.0155 37.3719 42.1762C37.7606 42.3269 38.222 42.1369 38.4364 41.6842C38.676 41.1821 38.791 40.6285 38.9995 40.1132C39.2474 39.5003 39.3021 38.81 39.7366 38.2701L44.7163 40.9993C44.8795 41.0881 45.0499 41.1613 45.2173 41.2423C45.4983 41.4153 45.7858 41.5791 46.0592 41.764C46.8003 42.263 47.2204 42.9315 47.1425 43.8515C47.0892 43.9041 47.0242 43.9437 46.9528 43.9671C46.8813 43.9905 46.8053 43.997 46.7308 43.9861C45.6886 43.8799 44.652 43.7287 43.6187 43.5585C43.5071 43.5387 43.4055 43.4824 43.3302 43.3985C43.2144 43.2435 43.2092 43.056 43.1723 42.8764C43.1033 42.5427 42.9291 42.2967 42.5769 42.2291C42.4051 42.1832 42.223 42.1924 42.0567 42.2553C41.8904 42.3183 41.7485 42.4318 41.6514 42.5796C41.5247 42.7583 41.47 42.9848 41.2821 43.1234C41.053 43.2485 40.8118 43.2053 40.5726 43.1706C38.6951 42.9044 36.8141 42.6533 34.9352 42.3984C34.7341 42.37 34.5264 42.3522 34.3589 42.2168C34.1343 41.9532 34.3229 41.6908 34.3774 41.4347C34.4623 41.0125 34.3643 40.6617 34.0033 40.4206C33.5798 40.1395 33.0611 40.3298 32.7985 40.8143C32.5984 41.1804 32.6202 41.6495 32.2593 41.9378C30.6468 41.8078 29.0248 41.7751 27.5637 40.9088C25.8778 39.9087 24.3039 37.424 25.0736 34.7628C25.2674 34.0918 25.4137 33.3943 25.8909 32.843L26.5623 32.5643C27.1678 32.1952 27.8365 32.2841 28.4937 32.3172C28.7336 32.3358 28.9704 32.3837 29.1986 32.4596C29.7574 32.618 30.2968 32.8372 30.8068 33.1132C30.9035 33.1788 30.9737 33.2761 31.005 33.3879C30.9168 34.2248 30.5309 34.9754 30.2902 35.7707C30.1099 36.3737 29.8694 36.9587 29.6931 37.5637C29.5273 38.1344 29.7033 38.5844 30.1288 38.728C30.6303 38.8967 31.0751 38.6637 31.2926 38.0722C31.6265 37.1668 31.9167 36.2482 32.2315 35.3384C32.3607 34.9888 32.4156 34.6053 32.708 34.3444Z" fill="#F8E009"/>
<path d="M30.7414 33.1922C30.2441 33.028 29.8026 32.7276 29.283 32.6187C29.1449 32.5104 29.0323 32.3735 28.9529 32.2177C28.8735 32.0619 28.8293 31.8909 28.8233 31.7164C28.9583 30.6477 29.3193 29.6322 29.5819 28.5937C29.7519 27.9212 29.7692 27.9332 29.1198 27.7708C28.4088 27.6037 27.743 27.2857 27.1682 26.8387C26.9299 26.6542 26.7213 26.561 26.5155 26.8658C26.0477 27.4386 25.4535 27.8974 24.7785 28.2067C24.2257 28.4708 23.6009 28.5483 22.9995 28.4273C21.2892 28.5178 19.6059 27.5052 18.9413 25.9924C18.8737 25.4878 19.2778 25.5901 19.5188 25.6049C20.3044 25.6319 21.09 25.5486 21.8521 25.3576C25.7031 24.4886 28.6348 20.7711 28.5384 16.8557C28.5315 16.7822 28.5244 16.7074 28.5312 16.6338C28.5425 16.4893 28.5158 16.3124 28.6939 16.2551C28.8394 16.2094 28.917 16.3581 29.0201 16.4314C29.1231 16.5047 29.1612 16.6038 29.2715 16.648C29.3663 16.7597 29.4441 16.8846 29.5024 17.0186C29.6732 17.6373 29.9568 18.0896 30.7155 17.9686C30.835 18.1504 30.8039 18.3623 30.8226 18.561C31.2021 22.5791 31.5814 26.5961 31.9606 30.6118C31.918 31.641 31.3479 32.4248 30.7414 33.1922Z" fill="#7AB82D"/>
<path d="M29.2682 16.6496L28.6539 16.3033C28.7469 17.3455 28.6341 18.3957 28.3217 19.3952C27.4212 22.3233 25.4669 24.2706 22.5846 25.2997C21.6041 25.649 20.5827 25.8563 19.5171 25.7411C19.3215 25.7184 18.9987 25.6185 18.9393 25.9938C17.469 23.3511 19.3537 19.9137 22.4429 19.6483C22.923 19.6038 23.0403 19.5373 22.9541 19.0209C22.8319 18.2356 22.9898 17.4328 23.4006 16.7504C23.8114 16.0681 24.4494 15.549 25.2048 15.2824C25.9377 15.015 26.7411 15.0048 27.4806 15.2536C28.2202 15.5025 28.8512 15.9952 29.2682 16.6496Z" fill="#A0D41C"/>
<path d="M49.7577 34.4482C50.491 34.0098 51.3132 33.738 52.1653 33.6524C52.3481 33.8704 52.2051 34.0742 52.1279 34.2742C51.8971 34.9379 51.7393 35.6243 51.6571 36.3215C51.5854 36.8834 51.8595 37.3008 52.3169 37.3734C52.8148 37.4509 53.1588 37.2075 53.2989 36.6157C53.4769 35.8572 53.5714 35.0866 53.8907 34.3705C53.9844 34.1603 54.0252 33.8918 54.3344 33.8619C56.311 34.2525 58.2565 36.2699 58.5836 38.2667C58.7672 39.3912 58.786 40.5025 58.3387 41.5817C56.5583 42.5544 54.7341 42.5887 52.892 41.7713C51.6551 41.2106 50.6444 40.2542 50.0224 39.0557C49.4003 37.8572 49.2029 36.4863 49.462 35.1633C49.5188 34.91 49.6188 34.6682 49.7577 34.4482Z" fill="#F79B8C"/>
<path d="M49.7575 34.4482C49.6286 35.2641 49.4432 36.0642 49.5318 36.9093C49.8734 40.1564 52.8421 42.4623 55.8822 42.152C56.6104 42.0783 57.3208 41.9741 57.9817 41.637C58.0818 41.5869 58.2005 41.4696 58.3384 41.5817C57.5218 43.8651 55.2674 45.4234 52.768 45.4313C50.3072 45.438 47.9916 43.8235 47.1654 41.5242C47.1094 41.3674 47.0485 41.2123 46.9902 41.0569C46.6375 39.6747 46.8093 38.3354 47.3284 37.0246C47.932 35.9755 48.6436 35.0252 49.7575 34.4482Z" fill="#F7664F"/>
<path d="M41.4384 4.01536C41.657 6.33014 41.8755 8.64451 42.094 10.9585C40.034 10.6226 38.0149 10.0591 35.9153 9.93957C35.2877 9.90253 34.6495 9.88502 34.0168 9.85958L34.0132 9.82157C33.7741 9.61617 33.7877 9.32426 33.7595 9.05231C33.6459 7.92871 33.5471 6.80251 33.4409 5.67823C33.3862 5.09831 33.3287 5.05788 32.7379 5.10647C31.9552 5.17161 31.1738 5.25147 30.3931 5.32386C30.1344 5.34784 29.8677 5.39112 29.6345 5.22227C29.7829 4.98219 30.0368 5.06748 30.2422 5.04844C33.9694 4.69629 37.7014 4.35193 41.4384 4.01536Z" fill="#A9E0F8"/>
<path d="M25.8998 32.8384C25.6955 33.4102 25.4768 33.9759 25.2916 34.5533C24.2458 37.8201 26.4972 41.1733 29.9632 41.5409C30.7373 41.6225 31.5063 41.7553 32.2767 41.8644C32.4025 42.0469 32.2976 42.2174 32.2357 42.3815C31.9875 43.0451 31.84 43.7427 31.5092 44.377C29.926 44.1601 28.3424 43.9442 26.7585 43.729C26.3343 43.6681 25.9217 43.5446 25.5344 43.3627C25.3569 43.1491 25.477 42.94 25.5461 42.7333C25.7567 42.0954 26.0028 41.4764 26.1779 40.8319C26.3316 40.266 26.1397 39.846 25.685 39.6841C25.2304 39.5222 24.84 39.7501 24.596 40.2983C24.4064 40.7228 24.3194 41.1897 24.1293 41.6093C24.0438 41.8003 24.0335 42.061 23.7481 42.106C22.6743 41.0318 22.2425 39.7102 22.2335 38.2269C22.4019 38.001 22.6631 38.0448 22.8958 38.0108C23.1703 37.9693 23.4563 37.9848 23.7208 37.8911C23.8827 37.8421 24.0263 37.7466 24.1333 37.6166C24.2404 37.4867 24.3061 37.3282 24.3222 37.1613C24.3615 36.8113 24.187 36.5628 23.8757 36.3988C23.7401 36.3364 23.6084 36.266 23.4813 36.188C23.2603 35.9747 22.9736 35.8071 22.9696 35.4476C23.6277 34.2215 24.55 33.295 25.8998 32.8384Z" fill="#FBBB04"/>
<path d="M46.1168 11.2759L42.1711 11.0645L32.972 4.89635L45.415 3.64567C46.5287 3.54243 47.6538 3.45543 48.7695 3.33467C49.1733 3.28857 49.3315 3.37779 49.3682 3.80603C49.5744 6.22708 49.8115 8.64527 50.0374 11.0645C48.7329 11.1817 47.4305 11.3346 46.1168 11.2759Z" fill="#A9E0F8"/>
<path d="M54.3325 33.8619C53.8013 34.6347 53.6626 35.5318 53.4983 36.4227C53.402 36.9486 53.2808 37.4496 52.6049 37.5358C51.929 37.6219 51.4202 37.1373 51.4875 36.4496C51.5812 35.4849 51.8691 34.5689 52.1596 33.6528C51.4515 26.1543 50.7434 18.6562 50.0354 11.1585C50.1967 11.3463 50.1466 11.5823 50.1668 11.7968C50.8308 18.775 51.4898 25.7537 52.1438 32.7328L52.2103 33.4366C52.5823 32.8158 52.8745 32.2879 53.2039 31.7849C53.6975 31.036 54.3008 30.364 54.994 29.7909C55.573 29.313 56.1326 29.3044 56.5265 29.7614C56.9204 30.2184 56.8301 30.782 56.2942 31.2671C55.4757 32.0108 54.7296 32.8072 54.3325 33.8619Z" fill="#C3F136"/>
<path d="M29.6233 5.21972C30.7369 5.11648 31.8612 5.02089 32.9757 4.88665C33.4076 4.83424 33.5672 4.93817 33.601 5.38894C33.7115 6.86283 33.8689 8.34474 34.0084 9.82213C32.6997 9.82845 31.3889 9.8399 30.0887 10.0037C29.9332 8.4095 29.778 6.81484 29.6233 5.21972Z" fill="#57B6EA"/>
<path d="M34.3421 42.1242C36.1128 42.3706 37.8754 42.6228 39.6436 42.8694C40.1935 42.9421 40.7346 43.1208 41.3029 43.0458C41.4347 43.2513 41.2982 43.4321 41.2435 43.619C41.0839 44.1632 40.8639 44.6882 40.7057 45.2334C40.6645 45.3795 40.6696 45.5781 40.4376 45.5934C38.6962 45.3665 36.9526 45.1435 35.212 44.9129C34.6243 44.835 34.0398 44.7396 33.4549 44.6516C33.3599 43.9628 33.7788 43.4033 33.9536 42.7823C34.0173 42.5451 33.9997 42.2128 34.3421 42.1242Z" fill="#FBBB04"/>
<path d="M23.537 36.0829C23.6396 36.1253 23.7425 36.1702 23.8472 36.2087C24.3112 36.3772 24.5554 36.7157 24.493 37.1915C24.4764 37.4254 24.3746 37.6454 24.2065 37.8105C24.0384 37.9756 23.8154 38.0745 23.5792 38.0888C23.1335 38.1412 22.6866 38.1802 22.2415 38.2251C20.4745 38.389 18.7076 38.5528 16.9397 38.7068C16.3742 38.7592 15.9407 38.4778 15.8057 38.013C15.7407 37.7977 15.7544 37.5667 15.8446 37.3605C15.9347 37.1544 16.0955 36.9865 16.2985 36.8863C16.5378 36.7807 16.795 36.7204 17.0568 36.7084C18.4154 36.5825 19.7732 36.4566 21.1302 36.3308C21.4086 36.305 21.6854 36.262 21.963 36.2276C22.4575 35.8998 22.9893 35.8999 23.537 36.0829Z" fill="#C3F136"/>
<path d="M28.9438 31.6559C28.9586 32.0107 29.1668 32.2994 29.2839 32.6138C28.3839 32.3361 27.4793 32.4447 26.5722 32.5548C25.5671 31.2826 24.5605 30.008 23.5654 28.7225C23.409 28.5206 23.2084 28.4847 22.9984 28.4288C24.4249 28.4128 25.5485 27.7805 26.4731 26.7462C26.6723 26.7277 26.728 26.8821 26.7862 27.009C27.4959 28.5634 28.3251 30.0609 28.9438 31.6559Z" fill="#A0D41C"/>
<path d="M23.5351 36.0829L21.9563 36.2293C19.8374 35.508 17.7148 34.7748 15.5834 34.0794C15.1712 33.9445 15.0573 33.7955 15.2383 33.399C15.4193 33.0026 15.5387 32.6143 15.685 32.221C15.8368 32.0833 16.0015 32.1496 16.1586 32.2006C17.7789 32.717 19.3814 33.2833 21.0005 33.8011C21.1639 33.8527 21.2824 33.9839 21.4476 34.028L22.9758 35.4471L23.5351 36.0829Z" fill="#7AB82D"/>
<path d="M21.4433 34.0282C20.3018 33.836 19.2565 33.3417 18.1645 33.0126C17.332 32.762 16.5083 32.4859 15.6807 32.2213L16.6765 29.2176L21.4433 34.0282Z" fill="#A0D41C"/>
<path d="M43.3627 43.2977C44.3364 43.6292 45.3715 43.6062 46.368 43.7958C46.6253 43.8301 46.8846 43.8473 47.1442 43.8475C47.1815 45.2329 45.893 46.353 44.4497 46.1776C43.7906 46.0977 43.1349 45.9878 42.478 45.8916C42.4371 45.8529 42.4084 45.8033 42.3952 45.7488C42.3821 45.6943 42.3852 45.6372 42.4041 45.5843C42.6623 44.8554 42.8779 44.1119 43.1864 43.4006C43.1999 43.3663 43.2246 43.3376 43.2566 43.3189C43.2886 43.3002 43.3259 43.2928 43.3627 43.2977Z" fill="#FBBB04"/>
<path d="M34.3419 42.1242C34.045 42.9639 33.7499 43.8042 33.4566 44.6452L31.5101 44.3755C31.6024 43.4888 32.0209 42.6993 32.2789 41.8628C32.4137 41.4793 32.534 41.0884 32.6894 40.7116C32.7813 40.487 32.9576 40.3065 33.1811 40.208C33.4046 40.1096 33.6579 40.1009 33.8878 40.1837C34.1105 40.2571 34.3002 40.4054 34.4242 40.6028C34.5482 40.8003 34.5985 41.0345 34.5665 41.2648C34.5104 41.5557 34.4125 41.8406 34.3419 42.1242Z" fill="#E49730"/>
<path d="M43.3657 43.2977C43.0264 44.1468 42.7312 45.0126 42.481 45.8916C41.7943 45.8376 41.1122 45.7355 40.4401 45.5861L41.3054 43.0385C41.5308 42.2533 41.8925 41.96 42.5419 42.042C43.075 42.1101 43.3038 42.4575 43.3657 43.2977Z" fill="#E49730"/>
<path d="M23.7461 42.1047C24.1047 41.5137 24.2032 40.8256 24.471 40.1984C24.7166 39.6265 25.1895 39.3477 25.6934 39.5026C26.2616 39.6775 26.509 40.2086 26.3315 40.8398C26.0946 41.6891 25.7035 42.4909 25.5323 43.3614C24.8366 43.1038 24.2209 42.6706 23.7461 42.1047Z" fill="#E49730"/>
<path d="M31.9366 30.8528C31.531 26.5583 31.1226 22.2642 30.7113 17.9703C30.7415 17.9549 30.7736 17.9436 30.8067 17.9367C31.213 22.2393 31.6193 26.5411 32.0254 30.8421C32.0213 30.8497 32.0153 30.8563 32.0081 30.8612C32.0008 30.8661 31.9925 30.8692 31.9838 30.8703C31.9751 30.8714 31.9662 30.8703 31.958 30.8673C31.9498 30.8642 31.9424 30.8592 31.9366 30.8528Z" fill="#81BF41"/>
<path d="M32.7067 34.3444C32.2567 35.6723 31.8196 37.0053 31.3516 38.3275C31.1673 38.848 30.6021 39.0612 30.061 38.8702C29.8343 38.7789 29.651 38.6057 29.5482 38.3857C29.4454 38.1656 29.4308 37.9151 29.5072 37.6847C29.9755 36.2462 30.4605 34.8124 30.9402 33.3765C31.5487 33.2904 31.8947 33.7419 32.3181 34.0353L32.7067 34.3444Z" fill="#E49730"/>
<path d="M39.7419 38.2661C39.3665 39.4053 39.0079 40.5517 38.6053 41.6811C38.4087 42.2435 37.8331 42.5182 37.3561 42.3584C36.8402 42.1824 36.5526 41.6352 36.7338 41.0556C37.1313 39.8055 37.5583 38.565 37.9751 37.3205C38.6278 37.5308 39.1654 37.9373 39.7419 38.2661Z" fill="#E49730"/>
<path d="M30.788 27.7879C31.0914 27.7597 31.3358 27.7199 31.3338 27.6989C31.3318 27.6779 31.0843 27.6837 30.7808 27.7119C30.4774 27.74 30.2331 27.7798 30.235 27.8008C30.237 27.8218 30.4846 27.816 30.788 27.7879Z" fill="#82BE29"/>
</g>
<g clip-path="url(#clip1_4900_17428)">
<path d="M91.8776 38.2293C91.4114 37.4417 90.9687 36.6391 90.4763 35.8679C88.8569 33.3359 86.6145 31.2534 83.9597 29.8159C81.7543 28.5992 80.414 26.7921 80.0159 24.3142C80.0013 24.1965 79.9957 24.0778 79.9992 23.9593C79.998 21.731 79.9969 19.5037 79.9957 17.2773C79.9328 17.2191 79.8581 17.1751 79.7765 17.148C79.695 17.121 79.6085 17.1116 79.523 17.1205C78.1354 17.1103 76.7464 17.1083 75.3589 17.1226C75.2387 17.1226 75.1197 17.1463 75.0089 17.1924C74.9477 17.2227 74.8969 17.2702 74.8629 17.329C74.7555 17.5708 74.7763 17.8288 74.7765 18.0814C74.7801 25.031 74.7837 31.9801 74.7873 38.9288C74.7874 39.1828 74.7669 39.4408 74.8786 39.6811C75.124 39.9868 75.474 39.8965 75.7868 39.8977C79.8407 39.902 83.8937 39.8999 87.9458 39.8915C88.118 39.8914 88.2903 39.8995 88.4611 39.8912C88.6157 39.8731 88.7718 39.9103 88.9012 39.9961C89.0306 40.0819 89.1248 40.2107 89.1669 40.3592C89.726 41.7723 90.0614 43.2624 90.1613 44.777C90.3176 47.1818 89.8921 49.5889 88.9202 51.798C87.9482 54.007 86.458 55.9542 84.5734 57.4775C84.2863 57.6961 83.9289 57.804 83.5676 57.7811C80.9578 57.777 78.3475 57.7783 75.7368 57.7851C75.4529 57.7852 75.1442 57.7253 74.9101 57.9698C74.7632 58.983 74.6672 59.9947 74.9654 60.9995L85.1732 60.9943C85.8359 60.8438 86.3166 60.393 86.8125 59.9831C87.2257 59.6457 87.6389 59.3137 88.0259 58.9571C89.2378 57.6744 90.3477 56.3167 91.2054 54.768C92.2888 52.8109 93.047 50.7461 93.3435 48.5246C93.3613 48.388 93.3999 48.2597 93.426 48.1258C93.855 44.927 93.4182 41.6726 92.1603 38.6961C92.0885 38.5336 92.0375 38.3507 91.8776 38.2293Z" fill="#FEF6CB"/>
<path d="M74.9527 39.7247L74.9411 17.2799C74.7674 17.097 74.5359 17.1135 74.3154 17.1122C73.078 17.1065 71.8406 17.1071 70.6032 17.1141C70.3841 17.1142 70.1513 17.0993 69.9791 17.2865C69.9802 19.3959 70.0695 21.5108 69.97 23.6148C69.8418 26.2992 68.5449 28.3465 66.1741 29.6966C61.0662 32.6061 57.8523 36.8757 56.8108 42.653C55.8902 47.7421 57.0818 52.3864 60.07 56.5779C61.3281 58.3416 62.92 59.8464 64.7573 61.0088L74.9651 61.0036L74.9635 57.9712L74.9097 57.8975C74.6561 57.7515 74.375 57.7967 74.1036 57.7955C71.564 57.7968 69.0231 57.7899 66.4822 57.7993C66.0176 57.8218 65.5624 57.6644 65.2129 57.3603C62.0808 54.6599 60.2767 51.2843 59.8336 47.179C59.5927 44.9304 59.9526 42.7743 60.6763 40.659C60.9294 39.9189 60.9653 39.9107 61.7438 39.9089C65.829 39.9069 69.9141 39.9048 73.9993 39.9027C74.2748 39.9026 74.5504 39.9325 74.8177 39.8463C74.876 39.8232 74.924 39.7801 74.9527 39.7247Z" fill="#FEE5B2"/>
<path d="M93.273 48.2461C92.7401 52.1213 90.9722 55.7265 88.2268 58.5365C88.1139 58.654 87.9403 58.7428 87.9666 58.9463C88.0163 59.1592 88.2079 59.2192 88.3719 59.3079C89.7699 60.043 91.2721 60.5642 92.8276 60.8539C93.2631 60.9329 93.7136 60.8712 94.1436 60.9898L94.7623 60.9895C94.8599 60.9475 94.9652 60.9258 95.0716 60.9258C95.178 60.9257 95.2833 60.9473 95.381 60.9891L96.2078 60.9887C96.3051 60.9468 96.4102 60.9252 96.5164 60.9251C96.6226 60.925 96.7276 60.9466 96.8251 60.9884L97.5471 60.988C98.2194 60.6764 98.9649 60.6787 99.6689 60.4982C102.818 59.6978 105.436 58.0581 107.598 55.6622C108.215 54.9792 108.172 54.1723 107.528 53.4627C105.396 51.1126 102.804 49.5056 99.711 48.7166C99.6644 48.697 99.6211 48.6703 99.5828 48.6375C99.0701 48.2705 98.45 48.2913 97.8698 48.2055C96.3361 47.9797 94.8038 48.0432 93.273 48.2461Z" fill="#BDE65E"/>
<path d="M96.8233 60.998C96.7382 60.923 96.6284 60.8817 96.5146 60.8817C96.4008 60.8818 96.291 60.9233 96.206 60.9983L96.8233 60.998Z" fill="#CBEB80"/>
<path d="M95.378 60.9987C95.2926 60.924 95.1825 60.8828 95.0686 60.8828C94.9546 60.8829 94.8446 60.9242 94.7593 60.999L95.378 60.9987Z" fill="#CDEC83"/>
<path d="M93.2733 48.2461C93.2789 48.2704 93.2894 48.2934 93.3042 48.3135C93.3191 48.3337 93.3379 48.3507 93.3595 48.3635C93.3812 48.3762 93.4052 48.3845 93.4302 48.3878C93.4552 48.391 93.4806 48.3892 93.5048 48.3825C95.5123 48.0716 97.5008 48.2057 99.4797 48.6293C99.5141 48.6321 99.5487 48.632 99.5831 48.6293C102.035 46.4244 103.714 43.757 104.487 40.5522C104.865 39.0494 104.999 37.4966 104.883 35.9521C104.798 34.9213 104.27 34.3987 103.202 34.3419C100.952 34.2194 98.7018 34.5743 96.6012 35.3829C94.8543 36.05 93.3088 37.0407 91.8777 38.2211C91.8241 38.4054 91.9371 38.5515 92.0006 38.703C93.2804 41.7135 93.7199 45.0095 93.2733 48.2461Z" fill="#00CA75"/>
<path d="M79.5981 10.0261C79.3413 9.08556 78.8395 8.69532 77.8681 8.69582C76.8966 8.69631 75.9155 8.70636 74.9386 8.71232C74.776 8.87215 74.7775 9.08105 74.7763 9.28175C74.7706 10.7545 74.7713 12.2268 74.7785 13.6986C74.7606 13.8857 74.8068 14.0732 74.9097 14.2311C75.0509 14.3304 75.2243 14.3741 75.3962 14.3537C76.6281 14.3594 77.8604 14.3588 79.0932 14.3518C79.2647 14.3731 79.4382 14.3328 79.5823 14.2382C79.6726 12.836 79.6443 11.4311 79.5981 10.0261Z" fill="#B24F03"/>
<path d="M74.9413 14.1928L74.9385 8.71235C73.8788 8.71289 72.8192 8.68748 71.7596 8.70304C70.9424 8.71574 70.3131 9.41785 70.3067 10.2985C70.2991 11.6024 70.308 12.9077 70.3087 14.2116C70.4824 14.3917 70.7125 14.3766 70.933 14.3778C72.0629 14.3836 73.1923 14.383 74.3213 14.3761C74.5473 14.3733 74.7761 14.3909 74.9413 14.1928Z" fill="#A14603"/>
<path d="M74.9406 14.1928L70.3108 14.2088C69.5956 14.1928 69.0473 14.4826 68.7197 15.1149C68.4113 15.7158 68.5618 16.2687 68.9631 16.7682C69.0887 16.9187 69.2439 17.0424 69.4192 17.1317C69.5946 17.221 69.7864 17.2741 69.983 17.2879L74.9436 17.2853C75.113 17.0859 75.0963 16.8443 75.099 16.6026C75.1056 16.0564 75.1108 15.5199 75.0981 14.9792C75.0883 14.6051 75.2536 14.4712 75.6187 14.4724C76.728 14.4718 77.8386 14.4849 78.9479 14.4707C79.1738 14.4706 79.4743 14.551 79.5664 14.2055L74.9406 14.1928Z" fill="#FEC980"/>
<path d="M79.5716 14.2028C79.4256 14.3844 79.2217 14.3053 79.0439 14.3054C77.8602 14.3142 76.6766 14.3271 75.4943 14.3072C75.0809 14.2979 74.9156 14.399 74.9351 14.84C74.97 15.6592 74.947 16.4702 74.9488 17.2867L79.9962 17.2841C81.0448 17.1471 81.6147 16.1473 81.2242 15.144C81.1375 14.9102 80.9879 14.7043 80.7916 14.5487C80.5952 14.3931 80.3597 14.2937 80.1104 14.2612C79.697 14.1986 79.6762 14.0088 79.6802 13.688C79.6934 12.6489 79.6874 11.6099 79.6786 10.5723C79.6785 10.3907 79.739 10.1954 79.597 10.033L79.5716 14.2028Z" fill="#FEE5B2"/>
<path d="M74.9619 57.9711C76.9195 57.961 78.8775 57.951 80.8361 57.9409C81.8323 57.9403 82.8286 57.9317 83.8262 57.9393C84.0979 57.9503 84.3637 57.8589 84.5702 57.6836C87.6968 55.1726 89.5622 51.9289 90.1789 48.0114C90.5924 45.3745 90.2812 42.6759 89.2778 40.1994C89.1316 39.8281 88.9372 39.7367 88.5583 39.7369C84.2453 39.7528 79.9328 39.7572 75.6208 39.7503C75.3975 39.7504 75.1757 39.7342 74.9525 39.7247L74.9525 39.767C74.7638 39.9596 74.786 40.2068 74.7861 40.4498C74.789 46.0522 74.7919 51.6542 74.7948 57.2558C74.7949 57.492 74.773 57.7391 74.9619 57.9384L74.9619 57.9711Z" fill="#FEDD46"/>
<path d="M74.9655 57.9288L74.9561 39.7698C70.3721 39.7721 65.7886 39.7671 61.2055 39.7549C60.89 39.7551 60.8033 39.9094 60.7138 40.1511C58.6498 45.6913 59.4792 50.7878 63.1097 55.4417C63.7842 56.2807 64.554 57.0398 65.4038 57.7043C65.5673 57.8553 65.7812 57.9412 66.0047 57.9457C68.9902 57.9369 71.9772 57.9313 74.9655 57.9288Z" fill="#FECC00"/>
</g>
<g clip-path="url(#clip2_4900_17428)">
<path d="M40.1259 84.7019C39.9172 84.7933 39.7122 84.7107 39.5114 84.6803C37.1039 84.3162 34.6936 83.9698 32.2888 83.5878C28.4958 82.9959 24.7032 82.3954 20.9108 81.7863C17.3115 81.207 15.1422 78.2838 15.6778 74.7372C16.2056 71.2411 16.7274 67.7441 17.3035 64.2553C17.5122 62.981 17.1657 61.9917 16.1584 61.1712C14.6609 59.9531 13.8544 58.3704 13.6729 56.4707C13.658 56.3166 13.7395 56.1285 13.5709 55.9997L13.9138 53.7739C14.1132 53.713 14.119 53.5149 14.1811 53.3725C15.4004 50.5914 18.0536 49.0202 21.1414 49.1897C24.6962 49.3857 28.2417 49.6426 31.7612 50.1977C32.0405 50.24 32.3261 50.2407 32.6073 50.2604C32.8046 50.3631 33.0267 50.3451 33.2358 50.3919L34.2773 50.5494C37.5213 50.8883 40.6773 51.6572 43.7888 52.5758C46.6639 53.4237 48.4971 55.9119 48.647 58.9289C48.7077 60.3131 48.3401 61.6818 47.5927 62.8543C46.8453 64.0268 45.7534 64.948 44.4611 65.4963C43.195 66.0245 42.5371 66.8756 42.3416 68.2247C41.8548 71.7058 41.295 75.1789 40.749 78.6525C40.3542 81.165 38.4612 83.2156 36.0743 83.7702C35.7187 83.853 35.3632 83.8145 35.0115 83.8311C36.6886 83.954 38.355 84.1939 39.9981 84.5489C40.057 84.5843 40.1021 84.6382 40.1259 84.7019Z" fill="#AD6C6C"/>
<path d="M46.9607 52.3268C49.7156 52.6919 52.4419 53.2333 55.1763 53.7213C57.9107 54.2094 60.6761 54.7476 63.4022 55.3695C64.7361 55.6745 66.1005 55.9021 67.3667 56.4156C69.9057 57.4404 71.6286 59.8921 71.6253 62.4806C71.621 65.4455 70.2599 67.6236 67.5216 68.8448C66.2047 69.4321 65.5114 70.2824 65.3147 71.6997C64.8389 75.149 64.2801 78.5858 63.7391 82.0268C63.2891 84.8878 61.2378 86.8932 58.4294 87.2564C57.8431 87.3235 57.25 87.3079 56.6679 87.2102L40.1246 84.7079L40.1328 84.6544C40.1795 84.4216 40.3937 84.3447 40.5569 84.2281C41.2884 83.7163 41.9048 83.0619 42.3681 82.3055C42.8313 81.5492 43.1315 80.707 43.25 79.8311C43.8316 76.0561 44.4298 72.2837 44.9857 68.5048C45.1944 67.0802 45.8968 66.0901 47.247 65.5169C49.5685 64.5348 51.0722 62.8354 51.6342 60.4104C51.8398 59.5697 51.868 58.6962 51.7169 57.8436C51.5659 56.9911 51.2389 56.1776 50.756 55.4534C49.9239 54.1674 48.8152 53.2026 47.3436 52.6687C47.1863 52.6069 46.9581 52.5845 46.9607 52.3268Z" fill="#845151"/>
<path d="M46.9614 52.3269C47.9787 52.7419 48.9729 53.1869 49.7624 53.9775C51.1793 55.3975 52.0105 57.0507 51.935 59.0847C51.8248 62.0958 50.3269 64.2092 47.6177 65.5122C46.6171 65.991 45.6877 66.4897 45.3558 67.6315C45.2896 67.8443 45.2366 68.0609 45.1971 68.2801C44.5819 72.2733 44.0088 76.2742 43.3304 80.2563C43.003 82.1807 41.893 83.671 40.1375 84.6491L34.7232 83.8301C36.4426 83.7682 37.8674 83.0621 39.0425 81.8611C39.8839 80.9864 40.4257 79.8743 40.5921 78.6805C41.1451 75.091 41.7163 71.5042 42.2512 67.912C42.4313 66.6926 43.0872 65.8944 44.2142 65.4468C47.0245 64.3292 48.4787 61.8281 48.5064 59.3724C48.5327 56.2848 46.8859 53.9099 44.1045 52.8544C43.1081 52.4965 42.0867 52.2106 41.0483 51.9989C38.8081 51.5006 36.5767 50.9459 34.3107 50.6153C34.2744 50.5906 34.264 50.5678 34.2796 50.5468C34.2949 50.5279 34.3103 50.5181 34.3223 50.5199C36.8063 50.6785 39.2475 51.1555 41.7097 51.4854C43.4475 51.7149 45.2014 52.0409 46.9614 52.3269Z" fill="#704444"/>
<path d="M34.2942 50.5157C34.2892 50.5483 34.2844 50.5795 34.2796 50.6106L33.1505 50.4398C33.1142 50.4151 33.1035 50.3938 33.1187 50.3758C33.1354 50.3571 33.1489 50.35 33.1625 50.3521L34.2942 50.5157Z" fill="#835252"/>
<path d="M33.1656 50.357C33.1596 50.386 33.1551 50.4152 33.1521 50.4446C32.9644 50.3995 32.7463 50.4515 32.6023 50.2733L33.1656 50.357Z" fill="#956666"/>
<path d="M20.6749 78.9005C19.9353 78.6706 19.304 78.1869 18.8961 77.5378C18.4882 76.8887 18.331 76.1175 18.4532 75.3651C19.0142 71.7236 19.5753 68.0817 20.1365 64.4393C20.4743 62.2461 19.6995 60.4784 17.9925 59.0859C16.6589 57.9974 16.1202 56.0695 16.7656 54.5272C17.4807 52.8132 19.1163 51.902 20.9516 51.9898C22.9525 52.086 24.9475 52.2708 26.948 52.3593C27.0039 52.3677 27.0597 52.3762 27.1171 52.3849C29.0352 52.637 30.9655 52.8303 32.8675 53.1575C35.1427 53.5487 37.401 54.0391 39.659 54.5219C40.3784 54.6747 41.074 54.9318 41.8006 55.0584C43.1476 55.8695 43.4604 57.168 43.3714 58.5576C43.2496 60.3507 42.2066 61.5565 40.5613 62.2597C38.9827 62.932 37.9623 64.0911 37.3889 65.6671C37.2922 65.9709 37.225 66.2831 37.1881 66.5994C36.6242 70.2602 36.0599 73.9224 35.4964 77.5801C35.301 78.8488 34.7153 79.8733 33.5069 80.4679C33.0809 80.6816 32.5967 80.7567 32.1239 80.6824L20.9541 78.9929C20.853 78.9949 20.7543 78.9622 20.6749 78.9005Z" fill="#C28E85"/>
<path d="M20.6747 78.9005L31.7283 80.5724C32.4296 80.6614 33.1403 80.514 33.7442 80.1541C34.3482 79.7942 34.8096 79.2432 35.0532 78.5911C35.2019 78.1695 35.3087 77.7346 35.3722 77.2925C35.9245 73.7075 36.4633 70.1204 37.0292 66.5374C37.364 64.4243 38.5274 62.9284 40.5509 62.0957C43.0694 61.0584 44.0116 58.1306 42.5431 55.8919C42.3405 55.5834 42.0485 55.3327 41.7981 55.0534C43.4617 55.3537 44.7678 56.11 45.4552 57.7233C46.04 59.1009 45.5681 61.081 44.4406 62.0933C43.7603 62.6995 42.899 62.9458 42.1456 63.3952C40.8328 64.1761 39.9137 65.2897 39.6628 66.7778C39.0515 70.4147 38.5396 74.0681 37.9525 77.7086C37.8254 78.5337 37.5939 79.3444 36.995 79.9933C36.6463 80.3936 36.1987 80.6988 35.695 80.8798C35.1914 81.0607 34.6487 81.1113 34.1188 81.0266C29.7856 80.4091 25.46 79.7321 21.1357 79.0765C20.9737 79.055 20.781 79.0729 20.6747 78.9005Z" fill="#B77D72"/>
<path d="M55.1945 69.3489C53.0512 69.0247 50.9073 68.7004 48.7629 68.376C48.1591 68.2847 47.8278 67.9187 47.8876 67.4206C47.9442 66.9524 48.435 66.6242 48.9935 66.7087C53.3004 67.3602 57.6068 68.0116 61.9127 68.6629C62.3534 68.7295 62.6596 68.9277 62.7647 69.3687C62.8642 69.7756 62.643 70.0382 62.3372 70.2683C62.1273 70.4279 61.9063 70.3686 61.6814 70.3346C59.52 70.0067 57.3578 69.6781 55.1945 69.3489Z" fill="#704444"/>
<path d="M50.8558 80.3422C50.8103 80.631 50.667 80.8961 50.4492 81.0946C50.2314 81.2931 49.9518 81.4134 49.6555 81.4362C49.3678 81.4614 49.0798 81.3887 48.8396 81.2302C48.5994 81.0717 48.4217 80.837 48.3362 80.5655C48.1017 79.6502 48.1932 78.6844 48.5956 77.829C48.74 77.5031 49.0199 77.4209 49.3547 77.5733C50.0299 77.8728 50.9703 79.6094 50.8558 80.3422Z" fill="#FDD1A3"/>
<path d="M60.7156 64.1863C60.4658 64.1481 60.2327 64.039 60.0447 63.8725C59.8568 63.706 59.7222 63.4893 59.6576 63.249C59.5929 63.0086 59.6009 62.7551 59.6807 62.5195C59.7605 62.2839 59.9085 62.0765 60.1067 61.9228C60.7612 61.4339 61.537 61.1261 62.354 61.0312C63.0287 60.9526 63.278 61.2697 63.0849 61.901C62.8425 62.6529 62.4078 63.3306 61.8225 63.8693C61.6797 64.0088 61.5037 64.1109 61.3103 64.1663C61.117 64.2216 60.9126 64.2285 60.7156 64.1863Z" fill="#FDD1A3"/>
<path d="M56.929 75.9827C56.9624 75.7599 57.0766 75.5567 57.2504 75.4103C57.9631 74.8091 58.854 74.4499 59.7916 74.3856C60.2827 74.346 60.5488 74.6838 60.4053 75.1541C60.1652 75.9876 59.6802 76.7324 59.0112 77.2953C58.8131 77.4763 58.5582 77.5855 58.2883 77.6051C58.0184 77.6247 57.7495 77.5535 57.5257 77.4032C57.0468 77.1029 56.8333 76.6637 56.929 75.9827Z" fill="#FDD1A3"/>
<path d="M55.7474 58.0897C55.3353 58.0274 54.3509 57.1284 54.2422 56.7308C54.194 56.5676 54.1998 56.3936 54.2588 56.2341C54.3178 56.0746 54.427 55.9378 54.5704 55.8436C54.7051 55.7352 54.8722 55.673 55.0463 55.6665C55.2204 55.6599 55.392 55.7094 55.5352 55.8073C55.9359 56.0619 56.2904 56.3809 56.5838 56.7509C56.8441 57.0666 56.7888 57.4257 56.5846 57.7487C56.4991 57.8846 56.3723 57.9907 56.2221 58.0519C56.0719 58.1131 55.9059 58.1263 55.7474 58.0897Z" fill="#FDD1A3"/>
<path d="M66.2233 62.7355C66.9329 62.8717 66.9411 63.5305 67.1495 64.0524C67.3133 64.4629 67.2646 64.8291 66.9214 65.1219C66.822 65.2119 66.7017 65.2768 66.571 65.3111C66.4403 65.3454 66.3031 65.3481 66.171 65.3188C66.0388 65.2896 65.9158 65.2294 65.8124 65.1433C65.709 65.0571 65.6283 64.9477 65.5771 64.8244C65.4147 64.486 65.2954 64.1293 65.2218 63.7624C65.1943 63.6253 65.2008 63.4837 65.2407 63.3498C65.2805 63.2158 65.3526 63.0933 65.4508 62.9926C65.549 62.8919 65.6705 62.816 65.8049 62.7713C65.9394 62.7265 66.0829 62.7143 66.2233 62.7355Z" fill="#FCD1A3"/>
<path d="M54.9406 82.7823C54.335 82.7028 53.9648 82.0182 54.3033 81.5152C54.6021 81.0798 55.0415 80.7563 55.5507 80.5969C56.1565 80.4046 56.7574 80.9753 56.635 81.5793C56.5418 82.0739 55.4518 82.8429 54.9406 82.7823Z" fill="#FDD1A3"/>
<path d="M62.3171 57.6287C62.2398 58.1302 61.2263 58.8941 60.7112 58.8389C60.559 58.8292 60.4122 58.7793 60.2862 58.6945C60.1603 58.6096 60.0599 58.493 59.9956 58.3569C59.9314 58.2207 59.9056 58.0702 59.921 57.921C59.9365 57.7719 59.9926 57.6297 60.0834 57.5095C60.3516 57.1455 60.7195 56.8641 61.1445 56.6981C61.2867 56.6466 61.4401 56.6322 61.5899 56.6565C61.7396 56.6808 61.8804 56.7428 61.9986 56.8366C62.1168 56.9304 62.2083 57.0527 62.2641 57.1915C62.3199 57.3304 62.3382 57.481 62.3171 57.6287Z" fill="#FDD1A3"/>
<path d="M54.3131 76.7396C54.1861 77.1602 53.9741 77.5512 53.6896 77.8889C53.4179 78.1986 53.0478 78.2048 52.693 78.0418C52.5224 77.9737 52.3825 77.8473 52.299 77.6859C52.2154 77.5246 52.1938 77.3392 52.2382 77.1637C52.3326 76.7028 52.551 76.2754 52.8706 75.9262C52.9898 75.7876 53.1553 75.6954 53.3375 75.6659C53.5198 75.6364 53.7069 75.6717 53.8654 75.7654C54.2117 75.9438 54.3935 76.2476 54.3131 76.7396Z" fill="#FDD1A3"/>
<path d="M50.1229 70.732C50.9383 70.8432 51.5373 72.1987 51.1222 72.7873C51.1106 72.8023 51.1003 72.819 51.089 72.8324C50.7884 73.1696 50.4251 73.2619 50.0137 73.0646C49.6024 72.8672 49.1009 71.771 49.2509 71.3487C49.4009 70.9265 49.7373 70.698 50.1229 70.732Z" fill="#FDD1A3"/>
<path d="M56.3705 63.3892C56.2721 63.9377 55.2733 64.6157 54.7263 64.5071C54.5022 64.4611 54.3047 64.332 54.1747 64.1466C54.0448 63.9612 53.9924 63.7338 54.0285 63.5117C54.1254 62.9934 55.1734 62.2864 55.6894 62.3964C55.9119 62.4422 56.1076 62.5716 56.2348 62.7571C56.3621 62.9425 56.4107 63.1693 56.3705 63.3892Z" fill="#FCD1A3"/>
<path d="M26.6507 60.3607C26.7224 59.8947 26.7551 59.4821 27.1405 59.3567C27.5259 59.2312 27.8586 59.5184 28.1388 59.7749C28.5869 60.1813 28.9528 60.6674 29.2171 61.2074C29.4667 61.7129 29.5063 62.2078 29.125 62.677C28.9752 62.8716 28.7714 63.0195 28.538 63.103C28.3046 63.1864 28.0516 63.2019 27.8091 63.1476C27.228 63.04 26.8987 62.6409 26.781 62.081C26.6498 61.5171 26.6058 60.9371 26.6507 60.3607Z" fill="#FDD1A3"/>
<path d="M34.3254 60.0001C34.3405 59.5711 34.6032 59.2601 35.0183 59.0419C35.6199 58.726 36.2283 58.4263 36.9178 58.3423C37.6972 58.2461 37.9701 58.6001 37.6936 59.3221C37.4471 59.9881 37.062 60.5959 36.5629 61.1068C36.3572 61.3148 36.088 61.4509 35.7962 61.4947C35.5043 61.5385 35.2056 61.4876 34.9454 61.3496C34.4323 61.0807 34.2248 60.653 34.3254 60.0001Z" fill="#FDD1A3"/>
<path d="M28.1377 73.2845C28.1 73.553 27.9775 73.803 27.7873 73.999C27.5972 74.195 27.3491 74.3272 27.0781 74.3769C26.7931 74.4203 26.5012 74.3669 26.2507 74.2255C26.0001 74.0841 25.8058 73.8632 25.6997 73.599C25.3303 72.7186 25.3793 71.8089 25.6258 70.9108C25.6367 70.8453 25.6615 70.7828 25.6986 70.7274C25.7358 70.6721 25.7844 70.6251 25.8414 70.5895C25.8983 70.554 25.9623 70.5307 26.0291 70.5212C26.0959 70.5117 26.164 70.5162 26.229 70.5343C27.036 70.7004 28.2684 72.466 28.1377 73.2845Z" fill="#FDD1A3"/>
<path d="M32.8159 75.515C32.1608 75.4159 31.2326 74.1321 31.3216 73.5139C31.3781 73.1474 31.6083 72.9666 31.9299 72.8543C32.0813 72.7946 32.2487 72.7858 32.406 72.8294C32.5632 72.873 32.7016 72.9664 32.7994 73.0952C33.1056 73.4516 33.3844 73.8297 33.6338 74.2266C33.8113 74.5176 33.8702 74.8576 33.6188 75.1657C33.4059 75.4251 33.1528 75.6039 32.8159 75.515Z" fill="#FDD1A3"/>
<path d="M25.154 66.9597C24.4326 66.8399 24.1037 66.1175 24.4978 65.5849C24.7313 65.2688 25.0007 64.98 25.3008 64.7239C25.6736 64.4098 26.0864 64.3872 26.4779 64.7334C26.5619 64.8028 26.6311 64.888 26.6813 64.9839C26.7316 65.0798 26.7619 65.1846 26.7705 65.2921C26.7791 65.3996 26.7659 65.5076 26.7315 65.6099C26.6971 65.7122 26.6423 65.8066 26.5703 65.8878C26.3383 66.1811 26.0889 66.4608 25.8234 66.7253C25.7379 66.8126 25.633 66.8791 25.5169 66.9197C25.4007 66.9604 25.2766 66.9741 25.154 66.9597Z" fill="#FDD1A3"/>
<path d="M31.2015 56.5194C31.7197 56.6145 32.553 57.5818 32.5478 58.0471C32.5567 58.226 32.5085 58.403 32.41 58.5533C32.3115 58.7037 32.1676 58.8199 31.9984 58.8857C31.8425 58.9594 31.666 58.9798 31.4967 58.9438C31.3275 58.9077 31.1751 58.8173 31.0637 58.6867C30.825 58.4467 30.6027 58.1914 30.3983 57.9224C30.2878 57.7795 30.2264 57.6057 30.2232 57.4263C30.22 57.2469 30.2751 57.0713 30.3805 56.9252C30.4628 56.7868 30.5841 56.6748 30.7297 56.6028C30.8754 56.5308 31.0392 56.5019 31.2015 56.5194Z" fill="#FDD1A3"/>
<path d="M24.8528 55.5577C24.7769 56.0503 23.9346 56.8158 23.4299 56.8533C22.8783 56.8944 22.3277 56.2675 22.5459 55.7736C22.6597 55.5075 22.8277 55.2673 23.0396 55.0677C23.2516 54.8681 23.5029 54.7134 23.7781 54.6131C24.401 54.39 24.9553 54.9126 24.8528 55.5577Z" fill="#FDD1A3"/>
<path d="M33.7062 69.2844C33.5926 69.269 33.4831 69.2318 33.3841 69.1748C33.2851 69.1178 33.1984 69.0422 33.129 68.9523C33.0597 68.8624 33.009 68.76 32.9799 68.6509C32.9508 68.5418 32.9438 68.4282 32.9594 68.3165C33.0346 67.8284 34.0889 67.0707 34.5626 67.1545C34.9668 67.2278 35.3446 67.783 35.2628 68.1836C35.1562 68.705 34.2217 69.3669 33.7062 69.2844Z" fill="#FDD1A3"/>
</g>
<defs>
<clipPath id="clip0_4900_17428">
<rect width="57.6575" height="44.4026" fill="white" transform="matrix(0.99573 -0.0923165 0.0940136 0.995571 5.91797 5.32272)"/>
</clipPath>
<clipPath id="clip1_4900_17428">
<rect width="52.9131" height="52.4292" fill="white" transform="matrix(-1 0.000507699 0.000517116 1 108.767 8.56955)"/>
</clipPath>
<clipPath id="clip2_4900_17428">
<rect width="58.6213" height="35.4326" fill="white" transform="matrix(0.988753 0.149558 -0.152268 0.988339 15.0664 46.2133)"/>
</clipPath>
</defs>
</svg>
