<svg width="113" height="103" viewBox="0 0 113 103" fill="none" xmlns="http://www.w3.org/2000/svg">
<g clip-path="url(#clip0_4903_17741)">
<path d="M27.5515 79.1719C26.4934 78.8384 26.1457 78.0588 26.0235 77.0105C25.573 73.151 25.0727 69.2965 24.568 65.4477C24.4686 64.6612 24.5962 63.9958 25.2033 63.4582C25.3836 63.1178 25.7253 63.054 26.0496 63.0052C27.1171 62.8444 28.1882 62.709 29.2629 62.599C29.5905 62.5666 29.937 62.5499 30.1952 62.8257C30.8938 63.1853 31.2061 63.7668 31.3005 64.5436C31.7807 68.4845 32.2697 72.4244 32.7944 76.3597C32.9334 77.3981 32.6781 78.1661 31.7249 78.652L27.5515 79.1719Z" fill="#EFC319"/>
<path d="M13.0551 52.3216C12.7442 57.1216 12.6684 61.9229 12.7695 66.7354C12.786 67.4988 12.8333 68.2609 12.8641 69.025C13.1481 69.5868 13.0231 70.2016 13.0694 70.7921C13.1218 71.4516 13.1491 72.1168 13.1915 72.7788C13.2166 73.2223 13.2858 73.6576 13.1367 74.0908C13.3009 75.9818 13.446 77.8752 13.6395 79.7625C13.691 80.2724 13.5982 80.6714 13.2009 80.9798L11.0091 81.2569C10.4992 81.0929 10.3273 80.7235 10.2714 80.2103C9.78897 75.8023 9.48823 71.3817 9.36919 66.9484C9.3612 66.6913 9.33543 66.4364 9.31728 66.1805C9.09259 65.6796 9.18619 65.1437 9.16704 64.6246C9.14481 63.8465 9.14181 63.0672 9.14642 62.2869C9.12903 62.1114 9.17716 61.9356 9.28154 61.7935C9.31745 57.8608 9.45599 53.9333 9.85807 50.0176C9.87111 49.9407 9.88909 49.8647 9.91191 49.7901C10.1202 49.7121 10.2378 49.8663 10.3606 49.9799C11.1168 50.682 11.8713 51.3818 12.7626 51.9171C12.9065 52.0138 13.0791 52.103 13.0551 52.3216Z" fill="#4FB96F"/>
<path d="M36.2286 55.0857C36.8909 54.6676 37.5481 54.6788 38.2711 54.9863C41.9333 56.5486 45.6123 58.0804 49.2923 59.6199C50.6559 60.1949 50.9879 60.9829 50.4124 62.353C50.0438 63.2361 49.6729 64.1177 49.2997 64.9979C48.851 66.0435 47.9596 66.4053 46.9114 65.966C43.1939 64.4055 39.481 62.8302 35.7545 61.2902C34.9876 60.9728 34.4377 60.5337 34.2735 59.6947C34.1569 59.4255 34.218 59.1635 34.3159 58.9071C34.7228 57.8372 35.1923 56.7929 35.6347 55.7378C35.7528 55.4673 35.9119 55.1942 36.2286 55.0857Z" fill="#EFC319"/>
<path d="M13.0549 52.3217C12.4847 51.8955 11.9146 51.4706 11.3437 51.0394C10.8409 50.6563 10.4558 50.1422 9.91046 49.8006C9.57424 49.3978 9.23089 48.9997 8.90166 48.5908C8.05446 47.5362 7.35664 46.4071 7.05405 45.0654C6.92454 44.4557 6.93522 43.8245 7.08528 43.2194C7.14922 42.939 7.2638 42.8651 7.54943 42.9903C8.55762 43.4296 9.57673 43.8429 10.592 44.267C11.1356 44.2783 11.5848 44.5739 12.0573 44.7788C12.6621 45.0393 13.3306 45.1806 13.8445 45.6411C16.9664 46.9529 20.0879 48.2647 23.209 49.5766C23.2824 49.6042 23.3573 49.6275 23.4334 49.6464C23.4945 49.8232 23.3576 49.9141 23.2576 50.0016C21.7419 51.3886 21.315 53.0962 21.7446 55.0647C21.7754 55.2066 21.9158 55.398 21.6524 55.4894C18.8129 55.0973 16.0836 54.1285 13.6325 52.6424C13.4441 52.5307 13.2479 52.429 13.0549 52.3217Z" fill="#547580"/>
<path d="M21.3268 32.2446C22.7262 32.0819 23.7984 32.7518 24.7613 33.6292C26.4877 35.2052 27.5575 37.2141 28.3861 39.3671C29.6401 42.619 29.9461 45.9882 29.553 49.4341C29.5437 49.4807 29.5286 49.526 29.5081 49.5689C29.2828 49.6555 29.1073 49.5228 28.9265 49.4307C27.3204 48.6114 25.7207 48.5787 24.1114 49.4289C23.5585 49.7222 23.4841 49.6748 23.406 49.0573C22.7175 43.6117 22.0291 38.1665 21.3407 32.7218C21.3228 32.5601 21.2618 32.4038 21.3268 32.2446Z" fill="#7F8B8C"/>
<path d="M21.3262 32.2447C22.0353 37.8538 22.7419 43.4628 23.4459 49.0716C23.4949 49.4592 23.577 49.5779 23.9559 49.3583C25.6777 48.3661 27.4025 48.4191 29.1216 49.3764C29.2453 49.446 29.379 49.5026 29.5068 49.5639C30.3246 50.2944 31.0058 51.1184 31.356 52.183C31.4614 52.5065 31.3808 52.9001 31.6976 53.1492C31.7677 54.337 31.5787 55.4659 30.9087 56.4761C30.5747 56.9792 30.2356 57.4829 29.6639 57.7591L29.6308 57.7633L29.5978 57.7572C29.2413 58.307 28.6507 58.4953 28.0829 58.6703C26.8974 59.0345 25.7118 59.0604 24.5646 58.4916C24.142 58.212 23.7105 57.9542 23.3165 57.6452C22.7296 57.1808 22.2595 56.5855 21.9439 55.9069C21.8853 55.7427 21.7836 55.5972 21.6493 55.4859C21.7108 55.1554 21.569 54.8506 21.5285 54.5305C21.2431 52.6509 21.8349 51.1032 23.2419 49.8474C23.3114 49.7844 23.3706 49.7111 23.4354 49.6422C22.7186 43.973 22.0019 38.3038 21.2851 32.6346C21.2632 32.5122 21.1743 32.3607 21.3262 32.2447Z" fill="#94A4A4"/>
<path d="M13.8419 45.644L10.5945 44.2693C11.0004 42.3746 11.3467 40.4681 11.8895 38.5948C11.5273 38.527 11.2164 38.7122 10.903 38.6021C11.0218 38.4089 11.2282 38.4177 11.4122 38.3931C11.7299 38.353 11.8688 38.1547 11.9497 37.8656C12.0734 37.4253 12.1652 36.9774 12.3251 36.5467C12.5739 36.7179 12.5343 36.4557 12.5682 36.3662C12.8432 35.6524 13.0953 34.9299 13.3718 34.2173C13.7545 33.2317 14.6815 32.7944 15.6029 33.1491C16.5024 33.4949 16.8812 34.459 16.5069 35.45C16.2311 36.178 15.9041 36.8893 15.7307 37.6522C15.7934 37.9541 15.6392 38.215 15.5596 38.4832C15.2503 39.5189 14.9773 40.5654 14.7256 41.617C14.6886 41.755 14.6278 41.8855 14.5458 42.0025C14.2116 43.1975 14.0333 44.4218 13.8419 45.644Z" fill="#4FB96F"/>
<path d="M12.3254 36.5466C12.4308 37.1555 12.0794 37.6633 11.9567 38.2249C11.9012 38.4901 11.6705 38.4831 11.4663 38.5115C11.2621 38.5399 11.0867 38.5724 10.9033 38.602C7.75787 38.8706 4.35159 37.1068 2.76269 33.9941C2.70086 33.8805 2.66678 33.754 2.66321 33.6247C2.65965 33.4955 2.68671 33.3672 2.74219 33.2504C2.79767 33.1337 2.87999 33.0316 2.98242 32.9528C3.08486 32.8739 3.2045 32.8203 3.33158 32.7965C5.53204 32.415 7.69289 32.4452 9.69363 33.6083C10.8833 34.2983 11.7956 35.2556 12.3254 36.5466Z" fill="#24AD5F"/>
<path d="M29.665 57.759C30.1169 57.2488 30.6238 56.7961 30.9508 56.1765C31.385 55.3535 31.6427 54.5025 31.562 53.5678C31.5492 53.4055 31.5212 53.2451 31.6985 53.1465C33.211 53.7866 34.7493 54.3653 36.229 55.0832C35.8348 55.4777 35.653 55.9899 35.4434 56.4862C35.1469 57.204 34.8509 57.9256 34.5356 58.638C34.4015 58.9753 34.3159 59.3299 34.2815 59.6912C32.7236 59.0904 31.1901 58.4375 29.665 57.759Z" fill="#547580"/>
<path d="M24.5649 58.498C25.0852 58.529 25.5741 58.7512 26.1027 58.7863C27.3524 58.8725 28.592 58.5098 29.5981 57.7635C29.7825 59.2763 29.9668 60.7883 30.1509 62.2994C30.1728 62.4722 30.1832 62.6464 30.1987 62.82C29.7802 62.7274 29.3482 62.7137 28.9247 62.7797C28.0609 62.9044 27.1953 63.0139 26.3277 63.1081C25.9343 63.1549 25.5526 63.2718 25.2005 63.4533C24.9891 61.8019 24.7773 60.1501 24.5649 58.498Z" fill="#7F8B8C"/>
<path d="M9.28644 61.8045L9.3244 66.1886C8.20313 65.4268 6.91994 65.1914 5.61465 65.0467C4.79248 64.9557 4.85223 64.9688 5.21422 64.2789C6.06478 62.6546 7.45628 61.8577 9.28644 61.8045Z" fill="#F2D45B"/>
<path d="M14.547 42.0023C14.8161 40.5212 15.2126 39.0662 15.732 37.6533C17.4214 37.9974 18.5116 39.0239 19.1217 40.6133C19.2431 40.9297 19.1082 40.9557 18.8562 40.9734C17.8325 41.0448 16.7977 41.1201 15.8038 41.4368C15.3697 41.5897 14.9493 41.7789 14.547 42.0023Z" fill="#F2D45B"/>
<path d="M13.1296 74.0917C13.013 72.4038 12.8938 70.7162 12.8621 69.0253C14.4727 68.6035 16.4538 69.3664 17.4287 70.747C17.6927 71.1202 17.399 71.1251 17.199 71.1969C16.1759 71.5689 15.1966 72.0219 14.3255 72.6871C13.8201 73.0528 13.41 73.5345 13.1296 74.0917Z" fill="#F2D45B"/>
<path d="M27.399 54.5462C28.3723 54.4232 29.1413 55.0023 29.2654 55.9535C29.2963 56.1718 29.2839 56.3941 29.2289 56.6077C29.1739 56.8212 29.0774 57.0218 28.9449 57.1981C28.8123 57.3743 28.6464 57.5227 28.4565 57.6348C28.2666 57.7469 28.0565 57.8205 27.8382 57.8515C27.6199 57.8824 27.3976 57.87 27.184 57.815C26.9705 57.76 26.7699 57.6635 26.5936 57.5309C26.4174 57.3984 26.269 57.2325 26.1569 57.0426C26.0448 56.8527 25.9712 56.6426 25.9403 56.4243C25.8134 55.4412 26.4118 54.671 27.399 54.5462Z" fill="#547580"/>
</g>
<g clip-path="url(#clip1_4903_17741)">
<path d="M90.3743 40.0059C90.2546 40.4291 90.1418 40.8558 90.0133 41.2776C88.5418 46.1062 87.0705 50.934 85.5995 55.761C85.1747 57.155 84.638 57.5771 83.2119 57.6445L82.4845 57.4229C81.3939 56.6547 81.2352 55.667 81.618 54.4324C83.2318 49.2369 84.7995 44.0274 86.3846 38.8219C86.5405 38.6971 86.7143 38.7355 86.8811 38.7837C87.924 39.0883 88.9637 39.4051 90.0001 39.7342C90.1554 39.7726 90.2897 39.8701 90.3743 40.0059Z" fill="#4D5C7D"/>
<path d="M71.1255 34.4538C71.6167 33.1463 72.1249 31.8439 72.5955 30.53C73.0044 29.3882 73.3704 28.2306 73.7579 27.0808C73.8278 26.873 73.7617 26.6727 73.7273 26.4727C73.2812 23.8197 72.8448 21.1696 72.3642 18.5299C72.2759 18.0153 72.3449 17.4859 72.5621 17.0111C73.048 15.8516 73.4743 14.67 73.9233 13.4966C74.4696 12.0734 75.0744 10.6759 75.5937 9.24573C75.9528 8.25427 76.3468 7.27875 76.7079 6.28924C76.8153 5.99342 76.9365 5.70446 77.0553 5.41475C77.174 5.12505 77.306 5.08314 77.5869 5.17005C78.2778 5.38062 78.2812 5.36971 78.0728 6.05339C77.0682 9.34977 76.0639 12.6453 75.0598 15.9401C75.0092 16.1062 74.829 16.3281 75.0333 16.4619C75.3026 16.6297 75.6141 16.7173 75.9314 16.7144C75.9767 16.7136 76.0468 16.6052 76.0607 16.5379C76.1624 16.039 76.4398 15.6069 76.6014 15.1288C77.1428 13.5173 77.6835 11.9042 78.2751 10.3106C78.707 9.14529 79.1653 7.98931 79.5362 6.80273C79.6292 6.55249 79.7369 6.30795 79.8587 6.07039C79.8736 6.02499 79.9054 5.98709 79.9476 5.96463C79.9897 5.94216 80.0389 5.93687 80.0849 5.94987C80.1152 5.9591 80.1455 5.96834 80.1758 5.97757C80.4631 6.06512 80.8022 6.09561 81.0144 6.2689C81.2866 6.48432 80.96 6.78222 80.9479 7.0435C80.944 7.21522 80.9213 7.386 80.8801 7.55276C80.4477 9.10213 79.977 10.6425 79.5792 12.1998C79.1566 13.8475 78.7537 15.4999 78.2628 17.1282C78.1941 17.3536 78.2358 17.4644 78.4726 17.5524C79.3299 17.8693 79.3031 17.8704 79.5982 17.0105C80.1261 15.4611 80.6887 13.9236 81.2214 12.3756C81.6419 11.1565 82.1296 9.96045 82.519 8.73049C82.6902 8.19048 82.9686 7.68978 83.1018 7.13553C83.1334 6.99681 83.2157 6.90528 83.3745 6.95368C83.6621 7.04135 83.9498 7.12903 84.2375 7.2167C84.4291 7.27507 84.3966 7.41622 84.3587 7.56232C84.1805 8.24722 84.0107 8.93471 83.8297 9.62009C83.3712 11.3549 82.8643 13.079 82.4612 14.8281C82.2068 15.9322 81.862 17.0115 81.6274 18.1204C81.5674 18.4042 81.6227 18.5098 81.8911 18.5982C82.6155 18.8296 82.6118 18.8417 82.8268 18.1362C83.8264 14.856 84.8349 11.5771 85.8164 8.29136C85.9479 7.85981 86.1115 7.70564 86.5341 7.90995C86.635 7.9566 86.7419 7.98917 86.8517 8.00673C87.1722 8.06336 87.2358 8.21123 87.1512 8.53653C86.7068 10.2558 86.2684 11.9769 85.8737 13.7113C85.5198 15.2594 85.1307 16.7968 84.7668 18.3432C84.5553 19.2458 84.2869 20.1351 84.1226 21.0482C84.0566 21.3586 83.8952 21.6406 83.6609 21.8547C81.6874 23.879 79.7234 25.9114 77.7499 27.9357C77.4422 28.2253 77.2442 28.6125 77.1894 29.0314C77.0817 29.6507 76.9338 30.2624 76.7467 30.8625C76.3492 32.2887 76.113 33.7548 75.6562 35.1669C75.6302 35.2896 75.6183 35.4148 75.6206 35.5402C75.3948 35.6291 75.1848 35.5399 74.9775 35.4767C74.0575 35.1963 73.1348 34.9244 72.2185 34.6359C71.869 34.5065 71.4981 34.4447 71.1255 34.4538Z" fill="#C3C8D3"/>
<path d="M90.3736 40.0058L86.3851 38.8221C86.3873 38.8065 86.3919 38.7914 86.3988 38.7773C86.9781 37.7456 86.5678 36.9489 85.8283 36.1976C85.5256 35.8868 85.29 35.5037 85.0148 35.1548C84.8057 34.8977 84.7898 34.6279 84.8619 34.3134C85.2641 32.5587 85.817 30.8487 86.3473 29.1304C87.0749 26.7689 88.0675 24.5159 89.1893 22.3128C90.3847 19.9361 91.8408 17.6996 93.5305 15.6447C94.6307 14.3213 95.8057 13.0738 97.2005 12.0443C97.6056 11.7451 97.9792 11.806 98.3429 12.0254C98.7253 12.2572 98.7312 12.6247 98.6055 13.0328C95.8566 22.0241 93.1127 31.0151 90.3736 40.0058Z" fill="#C3C8D3"/>
<path d="M71.1256 34.4538C71.2333 34.3091 71.2959 34.1427 71.5607 34.226C72.8623 34.6412 74.1712 35.0322 75.4781 35.4344C75.535 35.4603 75.588 35.4938 75.6358 35.5341C74.9911 38.1568 74.3468 40.7796 73.7029 43.4025C73.1212 45.7807 72.5718 48.1662 71.9582 50.536C71.8553 50.9401 71.6715 51.3191 71.418 51.6502C71.1645 51.9812 70.8465 52.2575 70.4832 52.4623C70.12 52.667 69.719 52.796 69.3045 52.8415C68.89 52.887 68.4705 52.8479 68.0715 52.7268C67.6725 52.6056 67.3022 52.4049 66.983 52.1366C66.6637 51.8684 66.4021 51.5382 66.2141 51.166C66.026 50.7939 65.9153 50.3874 65.8886 49.9713C65.862 49.5552 65.9199 49.1379 66.059 48.7448C67.3191 45.136 68.6282 41.5447 69.9109 37.944C70.3242 36.7836 70.7209 35.6168 71.1256 34.4538Z" fill="#4D5C7D"/>
</g>
<path d="M42.3358 79.1303C40.6273 76.8297 39.4324 74.3433 39.4651 71.3913C39.4993 68.3697 40.5274 65.6735 42.1741 63.1973C45.0483 58.8441 49.0537 55.8004 53.6883 53.5426C58.5771 51.1602 63.7441 49.8866 69.1989 49.8977C72.7485 49.9045 76.1802 50.5108 79.4155 52.0371C79.5372 52.0944 79.6679 52.1292 79.7966 52.1765C81.5292 52.7772 82.8788 53.9218 84.1169 55.2294C85.4208 56.5986 86.2573 58.236 86.852 60.0108C86.9283 60.2476 86.9617 60.496 86.9506 60.7445C86.9811 60.9771 86.9405 61.2171 87.0265 61.4472C87.462 64.0191 86.915 66.4547 85.8606 68.7719C84.4201 71.9395 82.2197 74.5272 79.556 76.7442C78.4703 77.6682 77.3153 78.5076 76.1011 79.2549C75.8765 79.3895 75.6627 79.6084 75.3652 79.4157C75.372 78.9407 75.8005 78.8191 76.085 78.5945C78.1906 76.935 79.9958 75.018 81.1543 72.5735C82.3986 69.9418 82.5806 67.2976 81.0491 64.7062C80.0806 63.0669 78.5925 62.0112 76.8846 61.249C73.5925 59.782 70.1417 59.6102 66.6335 60.0875C62.9853 60.5732 59.4743 61.7972 56.3147 63.6847C53.3306 65.4518 50.7824 67.6828 49.078 70.7621C48.0586 72.6124 47.5409 74.582 47.9129 76.7067C48.3608 79.2694 49.9419 80.9881 52.1157 82.2465C54.2894 83.5049 56.6566 83.8631 59.0851 84.0616C59.4756 84.0922 59.9157 83.9668 60.186 84.3962C60.0307 84.6535 59.7632 84.6363 59.5221 84.6507C54.83 84.9387 50.2967 84.3727 46.0967 82.0918C44.6788 81.3207 43.3641 80.4038 42.3358 79.1303Z" fill="#395166"/>
<path d="M42.3393 79.1307C42.5263 79.1098 42.6246 79.2352 42.7357 79.3497C44.9244 81.5752 47.6346 82.8591 50.5957 83.6816C53.6377 84.5165 56.7419 84.659 59.8716 84.4323C59.981 84.4164 60.0888 84.3911 60.1938 84.3568C60.4059 84.1726 60.658 84.1947 60.9007 84.1695C65.4657 83.7039 69.7518 82.3261 73.8115 80.2097C74.325 79.9413 74.7536 79.4962 75.372 79.4424C77.4829 78.3111 79.3303 76.8252 81.037 75.1669C83.3015 72.9639 85.1276 70.4565 86.2007 67.4548C86.8975 65.5107 87.1462 63.4342 86.9282 61.3805C86.8851 61.2306 86.9617 61.2221 87.0759 61.2562C87.993 64.2305 88.1481 67.3875 87.527 70.4374C85.9977 77.9984 81.1464 82.9356 74.6221 86.4523C70.2499 88.8093 65.5157 89.6826 60.5495 89.5298C57.2737 89.4271 54.1157 88.9529 51.1481 87.5027C47.3332 85.6338 44.4176 82.8169 42.3393 79.1307Z" fill="#E34B4D"/>
<path d="M86.7695 60.7461C86.9903 60.7672 86.9854 60.9905 87.0956 61.1103L87.0741 61.2503L86.9264 61.3746L86.7695 60.7461Z" fill="#CD555A"/>
<path d="M75.3698 79.4402C73.3485 80.8021 71.122 81.7409 68.8386 82.5479C66.2239 83.4904 63.4994 84.0945 60.7315 84.3457C60.5453 84.3613 60.372 84.353 60.1916 84.3547C58.6806 84.2725 57.1777 84.0797 55.6949 83.7777C52.9809 83.177 50.5673 82.0085 48.9335 79.6514C47.5192 77.6128 47.2964 75.3787 47.9812 73.0029C48.8644 69.9463 50.7897 67.6545 53.184 65.6828C57.8663 61.8224 63.3062 59.9327 69.3082 59.6713C72.5259 59.5298 75.641 60.1279 78.4461 61.8582C81.6772 63.8543 83.0362 67.509 81.9146 71.0527C81.0538 73.7728 79.3591 75.8795 77.3299 77.7951C76.7063 78.3848 75.9137 78.7593 75.3698 79.4402Z" fill="#2F4054"/>
<path d="M80.1042 56.6032C80.0712 56.8174 79.9752 57.0168 79.8284 57.1761C79.6816 57.3354 79.4906 57.4473 79.2799 57.4976C79.0692 57.5479 78.8483 57.5342 78.6454 57.4583C78.4424 57.3825 78.2667 57.2479 78.1407 57.0717C78.0146 56.8956 77.9439 56.6858 77.9375 56.4693C77.9312 56.2527 77.9896 56.0392 78.1051 55.856C78.2207 55.6728 78.3883 55.5281 78.5864 55.4406C78.7845 55.353 79.0043 55.3265 79.2176 55.3643C79.4979 55.4141 79.7476 55.5716 79.9133 55.8032C80.079 56.0347 80.1475 56.3219 80.1042 56.6032Z" fill="#A4B0BA"/>
<path d="M83.1586 58.1751C83.3733 58.2056 83.574 58.2994 83.7351 58.4446C83.8962 58.5898 84.0104 58.7797 84.0629 58.9901C84.1155 59.2005 84.104 59.4218 84.0301 59.6257C83.9562 59.8296 83.8231 60.0068 83.648 60.1346C83.4728 60.2625 83.2634 60.3351 83.0467 60.3433C82.83 60.3515 82.6158 60.2949 82.4314 60.1807C82.2471 60.0665 82.101 59.8998 82.0119 59.7021C81.9228 59.5044 81.8946 59.2846 81.9311 59.0708C81.9753 58.7894 82.1294 58.537 82.3596 58.3691C82.5897 58.2011 82.8771 58.1314 83.1586 58.1751Z" fill="#A4B0BA"/>
<path fill-rule="evenodd" clip-rule="evenodd" d="M85.902 58.1373C86.3098 58.9617 86.7227 59.7964 86.7702 60.7462C86.8145 60.7886 86.8404 60.8459 86.866 60.9026C86.9117 61.0039 86.9565 61.1032 87.1037 61.1116C87.1171 61.0259 87.1304 60.9402 87.1437 60.8545C87.3446 59.5577 87.5457 58.2603 88.1235 57.0579C89.6035 53.9681 92.0629 52.1111 95.3816 51.4081C97.287 51.0043 99.0575 50.3776 100.618 49.1581C101.734 48.2792 102.886 47.4447 104.04 46.6095C104.628 46.1835 105.217 45.7574 105.801 45.3251C107.839 43.8188 108.287 41.276 106.772 39.0034C106.155 38.0766 105.21 37.4178 104.127 37.1594C103.044 36.9009 101.904 37.062 100.935 37.6102C98.9599 38.7164 97.1788 40.1299 95.4795 41.6202C94.259 42.6869 93.5108 44.0762 92.7609 45.4687C92.6108 45.7473 92.4607 46.0261 92.3066 46.3025C90.4587 49.606 87.6586 51.5074 83.9063 52.0066C83.1702 52.1032 82.431 52.1062 81.692 52.1091C81.0582 52.1117 80.4244 52.1142 79.793 52.1759C79.8955 52.2375 79.998 52.2998 80.1005 52.3621C80.2856 52.4747 80.4709 52.5874 80.6576 52.6965C82.9039 53.9973 84.7088 55.7301 85.8705 58.0736C85.881 58.0948 85.8915 58.116 85.902 58.1373ZM104.073 40.6691C103.912 40.5228 103.711 40.428 103.496 40.3966C103.358 40.3732 103.216 40.3774 103.079 40.409C102.942 40.4406 102.813 40.4991 102.698 40.581C102.584 40.6629 102.487 40.7666 102.413 40.8861C102.339 41.0057 102.29 41.1387 102.267 41.2775C102.228 41.4912 102.253 41.7118 102.34 41.911C102.427 42.1102 102.572 42.2788 102.755 42.3953C102.939 42.5118 103.153 42.5708 103.37 42.5646C103.587 42.5585 103.798 42.4876 103.974 42.361C104.151 42.2344 104.286 42.0579 104.361 41.8541C104.437 41.6504 104.45 41.4287 104.398 41.2175C104.347 41.0064 104.234 40.8154 104.073 40.6691Z" fill="#E34B4D"/>
<g clip-path="url(#clip2_4903_17741)">
<path d="M56.0312 41.1224C56.1959 41.7072 56.4695 42.2613 56.5481 42.8682C56.6988 44.0478 56.2875 44.9583 55.3183 45.5948C55.2874 45.6144 55.2741 45.6596 55.2528 45.6942L54.149 46.0534C52.664 46.1652 51.6559 45.4642 51.1737 43.9824C51.086 43.7128 50.9894 43.4413 50.9105 43.1736C50.8651 43.0128 50.8043 42.8475 50.9464 42.6966C50.9768 42.6662 51.0121 42.6413 51.0507 42.623C52.5887 42.0684 54.1503 41.5866 55.7084 41.094C55.7606 41.0746 55.8165 41.0671 55.8722 41.072C55.9279 41.0769 55.9822 41.0941 56.0312 41.1224Z" fill="#B8ABAB"/>
<path d="M50.9013 42.7918C51.161 43.4286 51.2426 44.145 51.626 44.7392C52.1685 45.5786 52.9453 45.9738 53.9035 46.0058C53.9837 46.0085 54.0691 45.9807 54.1424 46.0483L51.7009 46.8428C51.665 46.8257 51.6287 46.7966 51.5918 46.7942C49.9998 46.6775 49.2782 46.1044 48.7733 44.5531L48.457 43.5812C48.5537 43.3838 48.7505 43.351 48.9265 43.2865C49.4244 43.1077 49.9396 42.9821 50.4393 42.805C50.5893 42.7538 50.7432 42.7001 50.9013 42.7918Z" fill="#9D9696"/>
<path d="M40.5976 4.41351C42.075 4.0096 43.6154 3.87913 45.1471 4.02815C48.3447 4.33888 51.1128 5.66219 53.4251 7.97063C54.6888 9.23138 55.6944 10.7372 56.3813 12.3971C57.6503 15.4153 57.8192 18.4778 56.9844 21.5941C56.538 23.2602 55.7294 24.7376 54.7628 26.1379C53.7828 27.558 53.5595 29.1359 54.0735 30.8262C54.2855 31.5206 54.5228 32.2068 54.7425 32.8999C54.7286 32.9398 54.7066 32.976 54.6778 33.0061C54.649 33.0362 54.6141 33.0595 54.5755 33.0745C53.6212 33.4091 52.6778 33.7811 51.6817 33.9802C51.427 33.914 51.4427 33.6901 51.4241 33.5002C51.2079 31.2238 50.9919 28.9468 50.7761 26.6694C50.4407 23.149 50.1161 19.6262 49.7683 16.1073C49.7536 15.9655 49.747 15.8233 49.7397 15.6826C49.7394 15.5024 49.8509 15.3687 49.9149 15.2144C50.182 14.5733 49.9831 13.9623 49.3896 13.6001C49.1337 13.4483 48.8341 13.3971 48.5475 13.456C48.261 13.5149 48.0073 13.6799 47.8346 13.9198C47.6515 14.1709 47.5689 14.4854 47.6035 14.8004C47.6381 15.1153 47.7873 15.4073 48.0212 15.6179C48.1216 15.7151 48.2564 15.7818 48.3119 15.9201C48.3236 15.9839 48.3186 16.0495 48.2973 16.1101C48.2761 16.1707 48.2393 16.2241 48.1909 16.2648C47.8502 16.6294 47.5018 16.988 47.1382 17.3288C46.9596 17.4963 46.7391 17.4923 46.5129 17.4565C45.8151 17.3434 45.1148 17.2371 44.419 17.1124C44.2907 17.0831 44.1576 17.0889 44.0334 17.1293C43.9092 17.1697 43.7982 17.2433 43.7117 17.3426C43.2408 17.8337 42.747 18.301 42.2814 18.7976C42.0302 19.0645 41.7558 19.1778 41.3924 19.0929C40.8798 18.9724 40.3457 18.9755 39.845 18.7874C39.7493 18.6117 39.8545 18.4585 39.8922 18.2983C39.9697 17.9996 39.9347 17.6799 39.794 17.4023C39.6534 17.1247 39.4172 16.9094 39.1323 16.7988C38.8473 16.6882 38.5341 16.6904 38.2546 16.8049C37.9751 16.9195 37.7496 17.1381 37.6225 17.4175C37.3487 18.0092 37.5599 18.6798 38.1345 19.0375C38.2863 19.1099 38.4269 19.2052 38.5517 19.3201C39.4855 20.8136 40.3595 22.3385 41.2584 23.8578C42.9388 26.6925 44.6188 29.5277 46.2987 32.3633C46.7408 33.1091 47.1807 33.8556 47.6235 34.6C47.7279 34.7776 47.8816 34.9488 47.8149 35.1881C47.7301 35.2736 47.6285 35.3396 47.5166 35.382C47.4048 35.4244 47.2851 35.4422 47.1652 35.4344C46.9197 35.3569 46.9062 35.1184 46.8355 34.9262C46.5717 34.2197 46.4025 33.4813 46.0752 32.7943C45.4209 31.4179 44.3772 30.5 42.9887 29.9985C41.6977 29.5314 40.447 28.9946 39.2987 28.1997C37.1605 26.7321 35.4662 24.6746 34.4162 22.2709C33.6353 20.4996 33.2277 18.5852 33.2205 16.6545C33.2132 14.7238 33.6065 12.821 34.3742 11.0724C35.3756 8.7478 36.9893 6.76388 39.0372 5.33971C39.5344 4.99035 40.0848 4.73666 40.5976 4.41351Z" fill="#FEE077"/>
<path d="M40.5967 4.41375C40.669 4.49603 40.6634 4.53991 40.5552 4.59436C38.1213 5.82048 36.2762 7.6701 34.9741 10.1064C33.5031 12.8694 33.0192 15.7993 33.5342 18.9367C34.0197 21.8613 35.3313 24.3512 37.371 26.4526C38.1767 27.2655 39.0796 27.9702 40.0574 28.5491C41.0491 29.1497 42.1223 29.5206 43.1769 29.9384C44.4944 30.4618 45.5026 31.3528 46.1438 32.6818C46.5586 33.5483 46.7673 34.4795 47.0947 35.378C46.7804 35.7664 46.2881 35.7439 45.8795 35.9178C45.4728 36.0152 45.107 36.3026 44.6518 36.179C44.2622 35.1108 44.0514 33.9759 43.4488 32.9878C42.8134 31.907 41.8152 31.0977 40.6458 30.7152C37.6384 29.7138 35.1627 27.9563 33.3222 25.2743C29.6695 19.954 30.209 12.6166 34.5614 8.04663C36.2093 6.29694 38.2938 5.0422 40.5967 4.41375Z" fill="#FED05B"/>
<path d="M45.8429 35.8084L47.0938 35.3784L47.8107 35.1451C48.1405 34.7901 48.6219 34.797 49.0287 34.6285C49.4475 34.4826 49.8682 34.3421 50.2937 34.2168C50.7193 34.0916 51.1105 33.8248 51.5867 33.9163L54.7454 32.8967C56.0091 32.5023 56.0175 32.5068 56.4392 33.8026C56.51 34.02 56.5713 34.2405 56.6378 34.4593C56.5309 34.6504 56.3331 34.6908 56.1496 34.7505C53.1178 35.7371 50.0856 36.7239 47.0531 37.7108C46.8697 37.7705 46.6867 37.8421 46.4907 37.7737C46.4131 37.7239 46.347 37.6574 46.2971 37.5789C46.2471 37.5003 46.2146 37.4117 46.2018 37.3194C46.0791 36.8171 45.7477 36.3611 45.8429 35.8084Z" fill="#E0D2CD"/>
<path d="M50.901 42.7921L50.5067 42.9023C49.4949 43.1679 48.6819 42.7833 47.9895 42.0384C47.8581 41.896 47.6699 41.7156 47.9086 41.4997C48.0879 41.3951 48.2809 41.3165 48.482 41.2662C51.3557 40.3309 54.2294 39.3957 57.1031 38.4605C57.3339 38.3854 57.5626 38.2533 57.823 38.3585C57.8412 39.7291 57.1972 40.7166 56.0275 41.1129L50.901 42.7921Z" fill="#E0D2CD"/>
<path d="M46.4727 37.7409L56.083 34.6217C56.2675 34.5617 56.4509 34.502 56.6368 34.4499L57.0564 35.7392C56.9629 35.9392 56.7689 35.9879 56.588 36.048C53.5351 37.0415 50.4829 38.0348 47.4314 39.0279C47.2786 39.094 47.1104 39.1159 46.9449 39.0913C46.5504 38.7604 46.5076 38.2886 46.4416 37.8244L46.4727 37.7409Z" fill="#B8ABAB"/>
<path d="M46.8913 39.0475L57.0568 35.7393L57.4873 37.0623C57.3805 37.2534 57.1836 37.2934 56.9991 37.3534C53.9603 38.3424 50.9218 39.3312 47.8837 40.32C47.7193 40.394 47.538 40.4215 47.3582 40.3996C46.9693 40.0645 46.9297 39.5881 46.8545 39.1208L46.8913 39.0475Z" fill="#E0D2CD"/>
<path d="M47.3226 40.3498L56.9693 37.2103C57.1391 37.1551 57.3116 37.105 57.4834 37.0526C57.646 37.4806 57.8086 37.8978 57.8233 38.3583L47.8255 41.6264C47.8195 41.6353 47.8118 41.6428 47.8028 41.6484C47.7938 41.654 47.7837 41.6576 47.7732 41.659C47.7627 41.6604 47.752 41.6595 47.7417 41.6565C47.7315 41.6534 47.7219 41.6482 47.7137 41.6412C47.4534 41.2678 47.3664 40.8248 47.2256 40.403C47.2276 40.3924 47.2319 40.3824 47.2381 40.3738C47.2443 40.3651 47.2523 40.358 47.2616 40.353C47.2708 40.3479 47.2811 40.345 47.2916 40.3444C47.3021 40.3439 47.3127 40.3457 47.3226 40.3498Z" fill="#B8ABAB"/>
<path d="M47.7411 41.6562L47.8276 41.6353C48.4462 42.5761 49.2948 43.002 50.3912 42.8785C50.4282 42.8737 50.469 42.8988 50.5091 42.911L48.4549 43.588C47.2513 43.952 46.0225 43.4827 45.3934 42.4202C45.4367 42.3319 45.5115 42.2646 45.6026 42.2319C46.2161 42.0034 46.8367 41.8003 47.4675 41.625C47.5124 41.611 47.5599 41.6066 47.6069 41.6119C47.6539 41.6173 47.6996 41.6323 47.7411 41.6562Z" fill="#CCBEB9"/>
<path d="M45.8432 35.8083L46.4722 37.7412L46.4726 37.7639C46.4038 37.8706 46.2992 37.9474 46.178 37.98C45.5909 38.1819 45.0023 38.3758 44.4091 38.5556C44.3515 38.5794 44.2896 38.5909 44.227 38.5896C44.1645 38.5882 44.1027 38.574 44.0452 38.5478C43.9037 38.113 43.7463 37.6833 43.609 37.2543C43.4742 36.8401 43.6234 36.5391 44.0264 36.3875C44.2341 36.3091 44.4463 36.2448 44.6568 36.1751L45.8432 35.8083Z" fill="#CCBEB9"/>
<path d="M44.0452 38.55L46.4723 37.7685L46.8887 39.048L46.8909 39.0546C46.8386 39.1542 46.752 39.2299 46.6476 39.2672C46.0313 39.4906 45.4086 39.6944 44.7796 39.8751C44.7274 39.8921 44.6721 39.8978 44.6172 39.8918C44.5623 39.8859 44.509 39.8685 44.4606 39.8407L44.0452 38.55Z" fill="#9E9797"/>
<path d="M44.4655 39.8369L46.8901 39.0479C47.0316 39.4827 47.1731 39.9176 47.3146 40.3524L47.2313 40.3795C47.2112 40.424 47.1824 40.4636 47.1466 40.4959C47.1108 40.5282 47.0688 40.5526 47.0232 40.5675C46.4126 40.7975 45.7909 40.9974 45.1615 41.1734C45.0688 41.2019 44.9681 41.1914 44.8816 41.1442L44.4655 39.8369Z" fill="#CCBEB9"/>
<path d="M44.8923 41.1526L47.2421 40.3879C47.5287 40.7635 47.5922 41.2273 47.7415 41.6573L45.3896 42.4227C45.1065 42.0399 45.0191 41.5886 44.8923 41.1526Z" fill="#9E9797"/>
<path d="M49.0563 34.7359L47.8092 35.1418C46.7073 33.2818 45.6058 31.4221 44.5048 29.5627C42.5305 26.2329 40.5555 22.9034 38.5797 19.5741C38.5347 19.4859 38.4966 19.3941 38.466 19.2998C38.9785 19.2412 39.4034 18.9562 39.8622 18.754C40.4171 18.7682 40.9596 18.9018 41.5033 18.993C41.617 19.0197 41.735 19.015 41.8451 18.9791C41.9552 18.9433 42.0534 18.8777 42.1295 18.7892C42.6359 18.2565 43.1679 17.7491 43.6728 17.2157C43.7555 17.1146 43.8642 17.0394 43.9869 16.9982C44.1096 16.957 44.2417 16.9514 44.3686 16.9821C45.0911 17.1172 45.8198 17.2143 46.5434 17.3455C46.7998 17.3919 46.9977 17.3588 47.1699 17.15C47.52 16.7247 48.0046 16.4263 48.2775 15.9251C48.3258 15.8973 48.3798 15.8813 48.4354 15.8784C48.4911 15.8755 48.5469 15.8858 48.5985 15.9084C49.0625 16.0267 49.4132 15.7142 49.8159 15.6048C50.016 17.0185 50.111 18.4423 50.2474 19.8611C50.6691 24.278 51.0893 28.6942 51.5081 33.1096C51.5332 33.3768 51.5647 33.6419 51.5857 33.9104L50.3365 34.3169C50.1643 34.2034 50.1987 34.0155 50.1854 33.8527C49.861 30.5919 49.5626 27.3359 49.253 24.0776C49.0648 22.095 48.8724 20.1138 48.6905 18.1291C48.6798 18.0208 48.7108 17.8725 48.5915 17.8247C48.4722 17.777 48.4025 17.9139 48.3274 17.9876C47.2423 19.0453 47.6826 18.9404 46.0467 18.689C45.6616 18.6304 45.2775 18.5786 44.8938 18.4991C44.7583 18.4664 44.6174 18.4718 44.4861 18.5145C44.3547 18.5573 44.2376 18.6359 44.1474 18.742C43.7379 19.1783 43.2862 19.5741 42.8961 20.0269C42.5351 20.4473 42.131 20.5741 41.6026 20.437C41.323 20.3571 41.035 20.3154 40.7461 20.313C40.6814 20.4543 40.7888 20.5336 40.8466 20.6217C43.5072 25.1324 46.1853 29.6325 48.8459 34.1431C48.9434 34.3315 49.0833 34.5035 49.0563 34.7359Z" fill="#FEC244"/>
<path d="M39.8642 18.7583C39.4825 19.1579 39.0516 19.428 38.468 19.3041C37.879 19.1351 37.4894 18.7509 37.4055 18.1278C37.363 17.874 37.3947 17.6143 37.4967 17.3816C37.5986 17.149 37.7662 16.9539 37.9781 16.8209C38.1934 16.6694 38.45 16.59 38.7134 16.5935C38.9768 16.597 39.2343 16.6832 39.4511 16.8405C39.9458 17.1965 40.1462 17.7083 40.0074 18.2777C39.967 18.44 39.9117 18.5962 39.8642 18.7583Z" fill="#FDB037"/>
<path d="M49.819 15.6124C49.3811 16.0579 48.8641 16.1529 48.2806 15.9328C47.1528 15.2935 47.3862 14.0189 48.0133 13.578C48.554 13.1976 49.1553 13.2183 49.6844 13.6761C49.9174 13.8737 50.0759 14.1483 50.1317 14.4511C50.1876 14.7539 50.1371 15.0653 49.9894 15.3298C49.9424 15.4256 49.8772 15.5154 49.819 15.6124Z" fill="#FDB037"/>
<path d="M49.0569 34.7359C48.0337 33.0082 47.0104 31.2801 45.9871 29.5517C44.1964 26.5332 42.4064 23.5154 40.6169 20.4982C40.563 20.4076 40.4766 20.3179 40.5097 20.1436C40.987 20.2203 41.4646 20.2837 41.9384 20.3783C42.0589 20.4094 42.1848 20.4056 42.3021 20.3674C42.4194 20.3292 42.5234 20.2582 42.6026 20.1622C43.111 19.6288 43.6452 19.1208 44.1504 18.5849C44.2295 18.4894 44.3332 18.4187 44.45 18.3807C44.5669 18.3426 44.6923 18.3387 44.8124 18.3694C45.4818 18.4954 46.1596 18.5682 46.8255 18.7122C47.2303 18.7992 47.5167 18.7084 47.7707 18.3925C47.9722 18.1617 48.1869 17.9434 48.4135 17.7385C48.4879 17.6662 48.5492 17.5212 48.6724 17.5773C48.7955 17.6334 48.7772 17.7668 48.7872 17.8802C48.8721 18.8252 48.9521 19.7694 49.0415 20.7141C49.4246 24.7572 49.8095 28.7998 50.1962 32.8418C50.2434 33.3354 50.2902 33.8279 50.3366 34.3194L49.0569 34.7359Z" fill="#FEE077"/>
</g>
<defs>
<clipPath id="clip0_4903_17741">
<rect width="49.1777" height="49.1777" fill="white" transform="translate(0.697266 35.607) rotate(-7.20585)"/>
</clipPath>
<clipPath id="clip1_4903_17741">
<rect width="48.6621" height="48.6621" fill="white" transform="translate(64.3984 1.04889) rotate(16.9485)"/>
</clipPath>
<clipPath id="clip2_4903_17741">
<rect width="29.267" height="43.9005" fill="white" transform="translate(25.9775 9.0571) rotate(-18.027)"/>
</clipPath>
</defs>
</svg>
